<svg width="72" height="72" viewBox="0 0 72 72" fill="none" xmlns="http://www.w3.org/2000/svg">
<g clip-path="url(#clip0_1850_7879)">
<path d="M23.3812 30.8096C23.3812 31.4787 23.4552 32.0213 23.5846 32.4191C23.7325 32.817 23.9174 33.2511 24.1763 33.7213C24.2688 33.866 24.3058 34.0106 24.3058 34.1372C24.3058 34.3181 24.1948 34.4989 23.9544 34.6798L22.7895 35.4394C22.623 35.5479 22.4566 35.6021 22.3087 35.6021C22.1238 35.6021 21.9388 35.5117 21.7539 35.3489C21.495 35.0777 21.2731 34.7883 21.0882 34.4989C20.9033 34.1915 20.7184 33.8479 20.515 33.4319C19.0726 35.0957 17.2604 35.9277 15.0784 35.9277C13.5251 35.9277 12.2862 35.4936 11.3801 34.6255C10.474 33.7574 10.0117 32.6 10.0117 31.1532C10.0117 29.616 10.5665 28.3681 11.6945 27.4277C12.8225 26.4872 14.3203 26.017 16.2249 26.017C16.8536 26.017 17.5008 26.0713 18.185 26.1617C18.8692 26.2521 19.5719 26.3968 20.3116 26.5596V25.2394C20.3116 23.8649 20.0157 22.9064 19.4425 22.3457C18.8507 21.7851 17.8522 21.5138 16.4283 21.5138C15.7811 21.5138 15.1154 21.5862 14.4312 21.7489C13.747 21.9117 13.0813 22.1106 12.4341 22.3638C12.1383 22.4904 11.9164 22.5628 11.7869 22.5989C11.6575 22.6351 11.565 22.6532 11.4911 22.6532C11.2322 22.6532 11.1027 22.4723 11.1027 22.0926V21.2064C11.1027 20.917 11.1397 20.7 11.2322 20.5734C11.3246 20.4468 11.4911 20.3202 11.7499 20.1936C12.3971 19.8681 13.1738 19.5968 14.0799 19.3798C14.986 19.1447 15.9475 19.0362 16.9646 19.0362C19.1651 19.0362 20.7739 19.5245 21.8094 20.5011C22.8264 21.4777 23.3442 22.9606 23.3442 24.95V30.8096H23.3812ZM15.8736 33.5585C16.4838 33.5585 17.1125 33.45 17.7782 33.233C18.4439 33.016 19.0356 32.6181 19.5349 32.0755C19.8308 31.7319 20.0527 31.3521 20.1636 30.9181C20.2746 30.484 20.3486 29.9596 20.3486 29.3447V28.5851C19.8123 28.4585 19.2391 28.35 18.6473 28.2777C18.0556 28.2053 17.4824 28.1691 16.9091 28.1691C15.6702 28.1691 14.7641 28.4043 14.1539 28.8926C13.5436 29.3809 13.2478 30.0681 13.2478 30.9723C13.2478 31.8223 13.4697 32.4553 13.932 32.8894C14.3758 33.3415 15.023 33.5585 15.8736 33.5585ZM30.7224 35.5117C30.3895 35.5117 30.1676 35.4574 30.0197 35.3309C29.8718 35.2223 29.7423 34.9691 29.6314 34.6255L25.2858 20.6457C25.1749 20.284 25.1194 20.0489 25.1194 19.9223C25.1194 19.633 25.2673 19.4702 25.5632 19.4702H27.3754C27.7267 19.4702 27.9671 19.5245 28.0966 19.6511C28.2445 19.7596 28.3554 20.0128 28.4664 20.3564L31.573 32.3287L34.4577 20.3564C34.5502 19.9947 34.6611 19.7596 34.809 19.6511C34.957 19.5426 35.2159 19.4702 35.5487 19.4702H37.028C37.3794 19.4702 37.6198 19.5245 37.7677 19.6511C37.9156 19.7596 38.0451 20.0128 38.119 20.3564L41.0407 32.4734L44.2398 20.3564C44.3507 19.9947 44.4802 19.7596 44.6096 19.6511C44.7575 19.5426 44.9979 19.4702 45.3308 19.4702H47.0505C47.3464 19.4702 47.5128 19.6149 47.5128 19.9223C47.5128 20.0128 47.4943 20.1032 47.4758 20.2117C47.4573 20.3202 47.4203 20.4649 47.3464 20.6638L42.8899 34.6436C42.7789 35.0053 42.6495 35.2404 42.5016 35.3489C42.3536 35.4574 42.1132 35.5298 41.7989 35.5298H40.2086C39.8573 35.5298 39.6169 35.4755 39.4689 35.3489C39.321 35.2223 39.1916 34.9872 39.1176 34.6255L36.2514 22.9606L33.4037 34.6074C33.3112 34.9691 33.2003 35.2043 33.0523 35.3309C32.9044 35.4574 32.6455 35.5117 32.3127 35.5117H30.7224ZM54.4842 36C53.5226 36 52.561 35.8915 51.6364 35.6745C50.7119 35.4574 49.9907 35.2223 49.5099 34.9511C49.214 34.7883 49.0106 34.6074 48.9367 34.4447C48.8627 34.2819 48.8257 34.1011 48.8257 33.9383V33.016C48.8257 32.6362 48.9736 32.4553 49.251 32.4553C49.362 32.4553 49.4729 32.4734 49.5839 32.5096C49.6948 32.5457 49.8612 32.6181 50.0462 32.6904C50.6749 32.9617 51.3591 33.1787 52.0802 33.3234C52.8199 33.4681 53.5411 33.5404 54.2808 33.5404C55.4457 33.5404 56.3518 33.3415 56.9805 32.9436C57.6093 32.5457 57.9421 31.967 57.9421 31.2255C57.9421 30.7191 57.7757 30.3032 57.4428 29.9596C57.11 29.616 56.4813 29.3085 55.5752 29.0191L52.8939 28.2053C51.544 27.7894 50.5454 27.1745 49.9352 26.3606C49.325 25.5649 49.0106 24.6787 49.0106 23.7383C49.0106 22.9787 49.1771 22.3096 49.5099 21.7309C49.8428 21.1521 50.2866 20.6457 50.8413 20.2479C51.3961 19.8319 52.0248 19.5245 52.7644 19.3074C53.5041 19.0904 54.2808 19 55.0944 19C55.5012 19 55.9265 19.0181 56.3333 19.0723C56.7586 19.1266 57.147 19.1989 57.5353 19.2713C57.9051 19.3617 58.2565 19.4521 58.5893 19.5606C58.9222 19.6691 59.181 19.7777 59.366 19.8862C59.6248 20.0309 59.8098 20.1755 59.9207 20.3383C60.0317 20.483 60.0871 20.6819 60.0871 20.9351V21.7851C60.0871 22.1649 59.9392 22.3638 59.6618 22.3638C59.5139 22.3638 59.2735 22.2915 58.9591 22.1468C57.9051 21.6766 56.7217 21.4415 55.4087 21.4415C54.3547 21.4415 53.5226 21.6043 52.9494 21.9479C52.3761 22.2915 52.0802 22.816 52.0802 23.5574C52.0802 24.0638 52.2652 24.4979 52.635 24.8415C53.0048 25.1851 53.689 25.5287 54.6691 25.8362L57.2949 26.65C58.6263 27.066 59.5879 27.6447 60.1611 28.3862C60.7343 29.1277 61.0117 29.9777 61.0117 30.9181C61.0117 31.6957 60.8453 32.4011 60.5309 33.016C60.1981 33.6309 59.7543 34.1734 59.181 34.6074C58.6078 35.0596 57.9236 35.3851 57.1285 35.6202C56.2963 35.8734 55.4272 36 54.4842 36Z" fill="#252F3E"/>
<path fill-rule="evenodd" clip-rule="evenodd" d="M57.7045 45.3424C51.65 49.8143 42.8534 52.1883 35.2899 52.1883C24.6898 52.1883 15.1387 48.2685 7.92482 41.7539C7.35433 41.2386 7.86961 40.5393 8.55051 40.9442C16.3533 45.4713 25.978 48.2133 35.934 48.2133C42.651 48.2133 50.0305 46.8147 56.8212 43.9438C57.8333 43.4838 58.6983 44.6063 57.7045 45.3424Z" fill="#FF9900"/>
<path fill-rule="evenodd" clip-rule="evenodd" d="M60.2256 42.4715C59.4526 41.4777 55.1096 41.993 53.1405 42.2322C52.5516 42.3059 52.4595 41.7906 52.9932 41.4041C56.453 38.9749 62.1394 39.6742 62.8019 40.484C63.4645 41.3121 62.6179 46.9986 59.379 49.7222C58.8821 50.1455 58.4037 49.9246 58.6245 49.3725C59.3606 47.5507 60.9985 43.4468 60.2256 42.4715Z" fill="#FF9900"/>
</g>
<defs>
<clipPath id="clip0_1850_7879">
<rect width="56" height="56" fill="white" transform="translate(8 8)"/>
</clipPath>
</defs>
</svg>
