<svg width="72" height="72" viewBox="0 0 72 72" fill="none" xmlns="http://www.w3.org/2000/svg">
<path fill-rule="evenodd" clip-rule="evenodd" d="M57.1193 34.0489C57.227 33.3279 57.2827 32.5899 57.2827 31.839C57.2827 23.6436 50.6391 17 42.4438 17C35.8302 17 30.2271 21.3266 28.3107 27.3037C27.6636 27.1492 26.9883 27.0674 26.2939 27.0674C21.9249 27.0674 18.3122 30.306 17.7256 34.5135C17.6978 34.5132 17.6701 34.5131 17.6422 34.5131C12.1401 34.5131 7.67969 38.9735 7.67969 44.4757C7.67969 49.9778 12.1401 54.4382 17.6422 54.4382L53.0879 54.4382H53.088C58.9376 54.4382 63.6797 49.6961 63.6797 43.8465C63.6797 39.4241 60.9694 35.6348 57.1193 34.0489ZM32.6831 33.045H29.7415V47.7528H32.6831V33.045ZM38.5663 33.045H35.6247V38.9281H38.5663V33.045ZM41.5078 33.045H44.4494V47.7528H41.5078V33.045Z" fill="url(#paint0_linear_1850_7930)"/>
<defs>
<linearGradient id="paint0_linear_1850_7930" x1="11.229" y1="14.1487" x2="33.584" y2="55.5693" gradientUnits="userSpaceOnUse">
<stop stop-color="#6CDAA3"/>
<stop offset="1" stop-color="#3BA88D"/>
</linearGradient>
</defs>
</svg>
