<svg width="122" height="24" viewBox="0 0 122 24" fill="none" xmlns="http://www.w3.org/2000/svg">
<path fill-rule="evenodd" clip-rule="evenodd" d="M24.0569 0H0V24H24.0569V0ZM7.51777 4.5H4.51067V19.5H7.51777V4.5ZM13.532 4.5H10.5249V10.5H13.532V4.5ZM16.5391 4.5H19.5462V19.5H16.5391V4.5Z" fill="#6CDAA3"/>
<path fill-rule="evenodd" clip-rule="evenodd" d="M32.0566 6H34.462V18H32.0566V6ZM41.6783 6H44.0836V18H41.6783V6ZM39.2729 6H36.8675V10.8H39.2729V6ZM58.5161 8.4V6H51.2999V8.4L58.5161 8.4ZM46.4891 18H48.8945H58.5161V15.6H48.8945L48.8945 13.2H46.4891V18ZM48.8945 10.8V13.2L58.5161 13.2V10.8L48.8945 10.8ZM72.9485 6V8.4L68.1377 8.4V18H65.7323V8.4L60.9215 8.4V6H65.7323H68.1377H72.9485ZM87.381 10.8H84.9756V6H87.381V10.8ZM75.3539 10.8H77.7593L84.9756 10.8V13.2H77.7593V18H75.3539V10.8ZM84.9756 18H87.381V13.2H84.9756V18ZM77.7593 6V8.4L84.9756 8.4V6H77.7593ZM89.7865 18H92.1918V6L89.7865 6V18ZM99.408 8.4L106.624 8.4V6H99.408V8.4ZM106.624 13.2H104.219V10.8L97.0026 10.8V8.4L94.5972 8.4V13.2L97.0026 13.2L104.219 13.2V15.6H94.5972V18L104.219 18H106.624V13.2ZM116.246 6H121.057V8.4L116.246 8.4V18H113.84V8.4L109.03 8.4V6H113.84H116.246Z" fill="white"/>
</svg>
