<?xml version="1.0" encoding="utf-8"?>
<!-- Generator: Adobe Illustrator 25.2.0, SVG Export Plug-In . SVG Version: 6.00 Build 0)  -->
<svg version="1.1" id="Subject_1_" xmlns="http://www.w3.org/2000/svg" xmlns:xlink="http://www.w3.org/1999/xlink" x="0px" y="0px"
	 viewBox="0 0 256 256" style="enable-background:new 0 0 256 256;" xml:space="preserve">
<style type="text/css">
	.st0{fill:#38B2AC;}
	.st1{fill:#9BD8D5;}
</style>
<g>
	<path class="st0" d="M253,183.7l-10.9-1.3c-1.1-4.1-2.7-8.1-4.8-11.7l6.8-8.6c1-1.3,0.9-3.4-0.3-4.6l-11.2-11.2
		c-1.2-1.2-3.2-1.3-4.6-0.3l-8.6,6.8c-3.6-2.1-7.5-3.7-11.7-4.8l-1.3-10.9c-0.2-1.7-1.7-3-3.4-3h-15.9c-1.7,0-3.2,1.4-3.4,3
		l-1.3,10.9c-4.1,1.1-8.1,2.7-11.7,4.8l-8.6-6.8c-1.3-1-3.4-0.9-4.5,0.3l-11.2,11.2c-1.2,1.2-1.3,3.2-0.3,4.6l6.8,8.6
		c-2.1,3.6-3.7,7.6-4.8,11.7l-10.9,1.3c-1.7,0.2-3,1.7-3,3.4V203c0,1.7,1.4,3.2,3,3.4l10.9,1.3c1.1,4.1,2.7,8.1,4.8,11.7l-6.8,8.6
		c-1,1.3-0.9,3.4,0.3,4.6l11.2,11.2c1.2,1.2,3.2,1.3,4.5,0.3l8.6-6.8c3.6,2.1,7.5,3.7,11.7,4.8l1.3,10.9c0.2,1.7,1.7,3,3.4,3H203
		c1.7,0,3.2-1.4,3.4-3l1.3-10.9c4.1-1.1,8.1-2.7,11.7-4.8l8.6,6.8c1.3,1,3.4,0.9,4.5-0.3l11.2-11.2c1.2-1.2,1.3-3.2,0.3-4.6
		l-6.8-8.6c2.1-3.6,3.7-7.5,4.8-11.7l10.9-1.3c1.7-0.2,3-1.7,3-3.4v-15.9C256,185.4,254.6,183.9,253,183.7z M195.1,225.5
		c-16.8,0-30.5-13.6-30.5-30.5s13.6-30.5,30.5-30.5s30.5,13.6,30.5,30.5S211.9,225.5,195.1,225.5z"/>
</g>
<g>
	<path class="st1" d="M167,42.2l-16.2,4.6c-4-5.2-8.6-9.8-13.8-13.7l4.5-16.2c0.7-2.5-0.7-5.3-3.1-6.3L116,1.3c-2.4-1-5.3,0-6.6,2.3
		l-8.2,14.7c-6.4-0.8-12.9-0.8-19.4,0.1L73.6,3.7c-1.3-2.2-4.2-3.3-6.6-2.3l-22.4,9.4c-2.4,1-3.7,3.8-3,6.3L46,33.3
		c-5.2,4-9.8,8.6-13.7,13.7l-16.2-4.5c-2.5-0.7-5.3,0.7-6.3,3.1L0.6,68.1c-1,2.4,0.1,5.3,2.3,6.6l14.6,8.2
		c-0.8,6.4-0.8,12.9,0.1,19.4L3,110.5c-2.2,1.3-3.3,4.2-2.3,6.6l9.4,22.4c1,2.4,3.8,3.7,6.3,3l16.2-4.6c4,5.2,8.6,9.8,13.7,13.7
		l-4.5,16.2c-0.7,2.5,0.7,5.3,3.1,6.3l22.5,9.3c2.4,1,5.3-0.1,6.6-2.3l8.2-14.7c6.4,0.8,12.9,0.8,19.4-0.1l8.3,14.6
		c1.3,2.2,4.2,3.3,6.6,2.3l22.4-9.4c2.4-1,3.7-3.8,3-6.3l-4.6-16.2c5.2-4,9.8-8.6,13.7-13.7l16.2,4.5c2.5,0.7,5.3-0.7,6.3-3.1
		l9.2-22.5c1-2.4,0-5.3-2.3-6.6l-14.7-8.2c0.8-6.4,0.8-12.9-0.1-19.4l14.6-8.3c2.2-1.3,3.3-4.2,2.3-6.6l-9.4-22.4
		C172.3,42.8,169.5,41.5,167,42.2z M109.7,135.5c-23.8,9.9-51.2-1.3-61.1-25.1s1.3-51.2,25.1-61.1s51.2,1.3,61.1,25.1
		S133.5,125.6,109.7,135.5z"/>
</g>
</svg>
