<?xml version="1.0" encoding="utf-8"?>
<!-- Generator: Adobe Illustrator 25.2.0, SVG Export Plug-In . SVG Version: 6.00 Build 0)  -->
<svg version="1.1" id="Subject_1_" xmlns="http://www.w3.org/2000/svg" xmlns:xlink="http://www.w3.org/1999/xlink" x="0px" y="0px"
	 viewBox="0 0 256 256" style="enable-background:new 0 0 256 256;" xml:space="preserve">
<style type="text/css">
	.st0{fill:#D9D9D9;}
	.st1{fill:#9BD8D5;}
	.st2{fill:#38B2AC;}
</style>
<path class="st0" d="M69.7,78H8.3C3.7,78,0,74.3,0,69.7V8.3C0,3.7,3.7,0,8.3,0h61.4C74.3,0,78,3.7,78,8.3v61.4
	C78,74.3,74.3,78,69.7,78z"/>
<g>
	<path class="st1" d="M158.7,5c1.8,0,3.3,1.5,3.3,3.3v61.4c0,1.8-1.5,3.3-3.3,3.3H97.3c-1.8,0-3.3-1.5-3.3-3.3V8.3
		C94,6.5,95.5,5,97.3,5H158.7 M158.7,0H97.3C92.7,0,89,3.7,89,8.3v61.4c0,4.6,3.7,8.3,8.3,8.3h61.4c4.6,0,8.3-3.7,8.3-8.3V8.3
		C167,3.7,163.3,0,158.7,0L158.7,0z"/>
</g>
<path class="st2" d="M247.7,78h-61.4c-4.6,0-8.3-3.7-8.3-8.3V8.3c0-4.6,3.7-8.3,8.3-8.3h61.4c4.6,0,8.3,3.7,8.3,8.3v61.4
	C256,74.3,252.3,78,247.7,78z"/>
<g>
	<path class="st2" d="M69.7,94c1.8,0,3.3,1.5,3.3,3.3v61.4c0,1.8-1.5,3.3-3.3,3.3H8.3c-1.8,0-3.3-1.5-3.3-3.3V97.3
		C5,95.5,6.5,94,8.3,94H69.7 M69.7,89H8.3C3.7,89,0,92.7,0,97.3v61.4c0,4.6,3.7,8.3,8.3,8.3h61.4c4.6,0,8.3-3.7,8.3-8.3V97.3
		C78,92.7,74.3,89,69.7,89L69.7,89z"/>
</g>
<path class="st0" d="M158.7,167H97.3c-4.6,0-8.3-3.7-8.3-8.3V97.3c0-4.6,3.7-8.3,8.3-8.3h61.4c4.6,0,8.3,3.7,8.3,8.3v61.4
	C167,163.3,163.3,167,158.7,167z"/>
<path class="st1" d="M247.7,167h-61.4c-4.6,0-8.3-3.7-8.3-8.3V97.3c0-4.6,3.7-8.3,8.3-8.3h61.4c4.6,0,8.3,3.7,8.3,8.3v61.4
	C256,163.3,252.3,167,247.7,167z"/>
<path class="st1" d="M69.7,256H8.3c-4.6,0-8.3-3.7-8.3-8.3v-61.4c0-4.6,3.7-8.3,8.3-8.3h61.4c4.6,0,8.3,3.7,8.3,8.3v61.4
	C78,252.3,74.3,256,69.7,256z"/>
<path class="st2" d="M158.7,256H97.3c-4.6,0-8.3-3.7-8.3-8.3v-61.4c0-4.6,3.7-8.3,8.3-8.3h61.4c4.6,0,8.3,3.7,8.3,8.3v61.4
	C167,252.3,163.3,256,158.7,256z"/>
<g>
	<path class="st0" d="M247.7,183c1.8,0,3.3,1.5,3.3,3.3v61.4c0,1.8-1.5,3.3-3.3,3.3h-61.4c-1.8,0-3.3-1.5-3.3-3.3v-61.4
		c0-1.8,1.5-3.3,3.3-3.3H247.7 M247.7,178h-61.4c-4.6,0-8.3,3.7-8.3,8.3v61.4c0,4.6,3.7,8.3,8.3,8.3h61.4c4.6,0,8.3-3.7,8.3-8.3
		v-61.4C256,181.7,252.3,178,247.7,178L247.7,178z"/>
</g>
</svg>
