<?xml version="1.0" encoding="utf-8"?>
<!-- Generator: Adobe Illustrator 25.2.0, SVG Export Plug-In . SVG Version: 6.00 Build 0)  -->
<svg version="1.1" id="Subject_1_" xmlns="http://www.w3.org/2000/svg" xmlns:xlink="http://www.w3.org/1999/xlink" x="0px" y="0px"
	 viewBox="0 0 256 256" style="enable-background:new 0 0 256 256;" xml:space="preserve">
<style type="text/css">
	.st0{fill:#D9D9D9;}
	.st1{fill:#9BD8D5;}
	.st2{fill:#38B2AC;}
</style>
<path class="st0" d="M98.1,1H41.6C37.6,1,34,3.1,32,6.5L4,55c-2,3.4-2,7.7,0,11.1l28,48.7c2,3.4,5.6,5.5,9.6,5.6h56
	c4,0,7.6-2.1,9.6-5.6l28-48.5c2-3.4,2-7.7,0-11.1l-28-48.5c-2-3.4-5.6-5.5-9.6-5.5"/>
<path class="st1" d="M98.1,136.7H41.6c-4,0-7.6,2.1-9.6,5.6L4,190.8c-2,3.4-2,7.7,0,11.1l28,48.6c2,3.4,5.6,5.5,9.6,5.6h56
	c4,0,7.6-2.1,9.6-5.6l28-48.5c2-3.4,2-7.7,0-11.1l-28-48.5c-2-3.4-5.6-5.5-9.6-5.6"/>
<g>
	<path class="st2" d="M215.4,73.2c2.2,0,4.2,1.2,5.3,3.1l28,48.5c1.1,1.9,1.1,4.2,0,6.1l-28,48.5c-1.1,1.9-3.1,3-5.3,3.1h-56
		c-2.2,0-4.2-1.2-5.3-3l-28-48.7c-1.1-1.9-1.1-4.2,0-6.1l28-48.5c1.1-1.9,3.1-3,5.3-3l0,0L215.4,73.2 M159.4,68.2
		c-3.9,0-7.6,2.1-9.6,5.5l-28,48.5c-2,3.4-2,7.7,0,11.1l28,48.7c2,3.4,5.6,5.5,9.6,5.6h56c4,0,7.6-2.1,9.6-5.6l28-48.5
		c2-3.4,2-7.7,0-11.1l-28-48.5c-2-3.4-5.6-5.6-9.6-5.6L159.4,68.2C159.4,68.2,159.4,68.2,159.4,68.2L159.4,68.2z"/>
</g>
</svg>
