<svg width="276" height="192" viewBox="0 0 276 192" fill="none" xmlns="http://www.w3.org/2000/svg">
<g opacity="0.4" clip-path="url(#clip0_2_3494)">
<rect width="276" height="191" transform="translate(0 1)" fill="white"/>
<g filter="url(#filter0_dd_2_3494)">
<rect width="40" height="40" rx="4" transform="matrix(0.83205 -0.5547 0.830139 0.557556 61 28.188)" fill="white"/>
<rect width="24" height="24" transform="matrix(0.83205 -0.5547 0.830139 0.557556 74.2975 28.2109)" fill="#06AC38"/>
<path fill-rule="evenodd" clip-rule="evenodd" d="M88.5434 24.4273C89.9654 23.4792 90.6448 23.1292 91.9747 22.86C93.4235 22.5768 95.0044 22.8605 96.2554 23.7007C97.4086 24.4753 97.9387 25.4594 97.6291 26.4702C97.3476 27.3968 96.4788 28.0789 95.2109 28.9241L92.0236 31.049L85.3421 26.5615L88.5434 24.4273ZM92.2439 29.0314L94.1843 27.7378C95.5433 26.8318 96.0279 25.7792 94.6022 24.8216C93.2743 23.9297 91.8536 24.0911 90.2074 25.2167L88.393 26.445L92.2439 29.0314ZM95.0396 30.9091L93.4214 31.9879L96.3568 33.9594L97.975 32.8806L95.0396 30.9091Z" fill="white"/>
<rect x="0.831095" y="0.00142801" width="39" height="39" rx="3.5" transform="matrix(0.83205 -0.5547 0.830139 0.557556 61.1384 28.6497)" stroke="#DDDDDD"/>
</g>
<g filter="url(#filter1_dd_2_3494)">
<rect width="40" height="40" rx="4" transform="matrix(0.83205 -0.5547 0.830139 0.557556 103 56.188)" fill="white"/>
<g clip-path="url(#clip1_2_3494)">
<path fill-rule="evenodd" clip-rule="evenodd" d="M124.031 61.0584C120.844 57.434 121.577 52.6958 126.23 49.5941L126.236 49.5854C131.75 45.9096 140.68 45.9249 146.181 49.6197C151.682 53.3145 151.663 59.295 146.15 62.972C141.498 66.073 134.413 66.5469 129.009 64.4007C128.96 64.3819 128.914 64.3589 128.874 64.3324C128.612 64.1561 128.612 63.8721 128.875 63.6967L132.901 61.0126C133.087 60.8889 133.365 60.8498 133.611 60.9119C133.611 60.9119 133.628 60.9154 133.637 60.9178C136.254 61.5638 139.306 61.1883 141.41 59.7861C144.298 57.8602 144.304 54.7308 141.422 52.795C138.539 50.8592 133.862 50.8518 130.973 52.7777C128.869 54.1804 128.296 56.2215 129.253 57.9747C129.256 57.9805 129.262 57.9922 129.262 57.9922C129.308 58.0727 129.318 58.1604 129.29 58.2445C129.263 58.3287 129.2 58.4058 129.109 58.4663L125.082 61.1505C124.819 61.3258 124.393 61.3239 124.132 61.1488C124.093 61.1216 124.059 61.0912 124.031 61.0584ZM138.568 54.6995C139.879 55.5794 139.876 57.0023 138.563 57.8777C137.25 58.7532 135.123 58.7495 133.813 57.8696C132.503 56.9897 132.506 55.5667 133.819 54.6913C135.132 53.8159 137.258 53.8195 138.568 54.6995Z" fill="#161616"/>
</g>
<rect x="0.831095" y="0.00142801" width="39" height="39" rx="3.5" transform="matrix(0.83205 -0.5547 0.830139 0.557556 103.138 56.6497)" stroke="#DDDDDD"/>
</g>
<g filter="url(#filter2_dd_2_3494)">
<rect width="40" height="40" rx="4" transform="matrix(0.83205 -0.5547 0.830139 0.557556 103 2.18802)" fill="white"/>
<g clip-path="url(#clip2_2_3494)">
<path fill-rule="evenodd" clip-rule="evenodd" d="M147.163 0.562046L144.294 1.0129L145.119 3.55148L142.925 4.3853L143.567 6.84803L144.325 7.25279L151.161 0.797899L145.874 -2.11128L147.163 0.562046ZM137.393 4.30167L138.547 3.30481C138.851 3.22224 139.035 3.14575 139.353 3.01538C139.85 2.81392 140.406 2.56774 140.77 1.89397C140.856 1.73804 140.905 1.326 140.878 1.12782L145.386 -3.10568L152.184 0.719386L144.45 7.96523L137.393 4.30167ZM145.222 -3.92892L144.781 -3.50801L133.843 -9.47766L118.206 3.48338L136.704 13.0171L138.479 11.4625C138.097 11.4253 137.578 11.4182 136.804 11.4818C135.732 11.5704 135.15 10.8939 135.005 10.3191C134.628 9.43492 135.981 7.0907 134.487 6.27187C133.945 5.97372 133.219 5.59873 132.288 5.63069C132.452 5.76559 132.661 5.86153 132.661 5.86153C132.661 5.86153 132.22 5.83489 131.793 5.68233C131.568 5.66467 131.449 5.69003 131.176 5.64826C131.294 5.82874 131.528 5.97295 131.528 5.97295C131.528 5.97295 131 5.83893 130.667 5.6509C130.707 5.80822 130.943 5.99975 130.943 5.99975C130.943 5.99975 130.156 5.75811 129.896 5.51844C129.53 5.40341 128.708 5.23902 127.58 4.37144C128.464 4.24946 129.559 3.40846 129.388 2.67895C129.331 2.4371 128.865 1.98466 127.409 1.45204C126.475 1.11075 124.873 0.743219 124.26 0.60745L124.252 0.635001C124.688 0.782695 125.6 1.09483 126.019 1.26125C127.29 1.7665 127.712 1.95623 128.056 2.35067C128.357 2.69207 128.373 3.03639 128.036 3.65691C127.701 4.27806 126.139 4.35179 126.046 4.36035C124.975 4.46353 123.756 4.28043 123.341 4.07301C122.89 3.84396 122.952 3.48446 122.78 3.1663C122.621 3.34921 122.482 3.57873 122.482 3.57873C122.482 3.57873 122.493 3.20036 122.607 2.8024C122.664 2.64355 122.692 2.54728 122.727 2.36342C122.499 2.51058 122.323 2.63604 122.323 2.63604C122.323 2.63604 122.509 2.26026 122.759 1.9097C122.464 2.09097 122.203 2.27846 122.203 2.27846C122.203 2.27846 122.689 1.48857 123.093 0.877744C123.373 0.459238 123.867 0.198421 124.451 0.25782C125.217 0.335142 125.798 0.266715 126.673 -0.118547C126.935 -0.539893 126.976 -0.694075 127.394 -1.16348C127.382 -1.83241 127.704 -2.13487 127.704 -2.13487C127.704 -2.13487 127.676 -1.89624 127.883 -1.68848C127.957 -2.01312 128.092 -2.33292 128.092 -2.33292C128.092 -2.33292 128.11 -2.16193 128.217 -1.94224L128.278 -1.93547C128.422 -2.27574 128.662 -2.62834 128.662 -2.62834C128.662 -2.62834 128.681 -2.46834 128.72 -2.27009C128.964 -2.43547 129.475 -2.76059 129.69 -2.87606C130.857 -3.62308 129.932 -4.56224 130.226 -4.95284C130.592 -5.44226 130.727 -5.6804 132.522 -5.7289C134.062 -5.77028 136.009 -5.30369 135.992 -4.89749C135.976 -4.55861 135.119 -4.4435 133.883 -4.50852C133.229 -4.54342 132.585 -4.67033 131.95 -4.95396C131.413 -5.19329 130.803 -5.1328 130.803 -5.1328C130.803 -5.1328 131.43 -4.98491 131.803 -4.7341C132.007 -4.59714 132.797 -4.10336 133.576 -4.04982C133.603 -3.98469 133.834 -3.80803 133.843 -3.75072C132.975 -3.78741 131.77 -3.42419 131.53 -3.39402C132.383 -3.46832 134.344 -3.63948 135.584 -3.3779C136.757 -3.13052 137.224 -2.49837 137.611 -2.51198C137.721 -2.51559 139.473 -2.42371 140.102 -2.20999C141.198 -1.83764 141.808 -1.08545 141.99 -0.487241L141.14 0.272428C140.957 0.344079 140.84 0.396784 140.639 0.436437C140.593 0.308898 140.44 0.0149633 140.38 -0.0269508L140.232 -0.0512213C140.332 0.429375 140.21 1.04136 140.007 1.48143C139.741 2.05699 139.046 2.45926 138.501 2.65914C136.956 3.22744 135.065 3.47621 134.593 3.52527C134.593 3.52527 134.743 3.63743 134.831 3.6269C135.451 3.63882 136.72 3.56321 137.791 3.38593L136.509 4.43652L142.085 7.2781C141.826 7.50451 141.799 7.54873 141.515 7.79644C140.275 7.35013 139.101 7.30134 138.135 7.46095C137.284 7.60172 136.477 8.04321 135.904 8.59914L135.907 8.66203C136.349 8.30423 136.992 7.96378 137.935 7.80353C138.86 7.64591 140.215 7.92828 140.921 8.17145C141.824 8.482 142.706 8.86981 142.884 9.78553C143.01 10.4368 142.078 11.4646 140.423 11.6889C141.089 11.7796 141.776 11.7588 142.323 11.4768C143.135 11.0577 143.702 10.5237 143.722 9.90739C143.739 9.38087 143.147 8.69804 142.243 8.16591L142.792 7.68424L144.544 8.55353L153.889 0.742683L145.222 -3.92892ZM134.684 -2.43583C134.717 -2.3742 134.712 -2.31595 134.985 -2.22553L135.001 -2.22055L135.038 -2.21022L135.128 -2.18859C135.491 -2.11199 135.853 -2.05259 136.197 -2.12843C136.247 -2.17425 136.302 -2.21938 136.363 -2.26381C136.569 -2.41326 136.737 -2.4825 136.866 -2.51099C136.834 -2.543 136.777 -2.58352 136.686 -2.6383C136.368 -2.82971 135.936 -3.2281 135.044 -2.99484C134.708 -2.9066 134.41 -2.66601 134.427 -2.50772C134.449 -2.51947 134.471 -2.52878 134.489 -2.53513C134.709 -2.60933 134.65 -2.49857 134.684 -2.43583ZM139.241 -1.70778C139.118 -1.68151 138.753 -1.41632 138.515 -1.21773C138.061 -0.839854 137.675 -0.361627 137.642 -0.222108C137.58 0.0304277 137.956 0.149126 138.231 0.117088C139.003 0.0266333 139.614 -0.0965246 139.983 -0.411735C140.21 -0.605256 140.056 -1.0132 139.872 -1.35317C139.744 -1.58692 139.487 -1.75964 139.241 -1.70778ZM132.282 -0.334651C132.299 -0.516184 131.271 -0.0547387 131.027 0.675766C130.848 1.21456 131.503 1.67605 132.356 1.61724C132.441 1.61111 132.506 1.60312 132.565 1.59352C132.642 1.46113 132.737 1.31545 132.863 1.15835C133.076 0.892976 133.282 0.691839 133.465 0.535793C133.461 0.399467 133.394 0.199234 133.034 -0.00401656C132.545 -0.279617 132.251 0.0119501 132.282 -0.334651Z" fill="#632CA6"/>
</g>
<rect x="0.831095" y="0.00142801" width="39" height="39" rx="3.5" transform="matrix(0.83205 -0.5547 0.830139 0.557556 103.138 2.64966)" stroke="#DDDDDD"/>
</g>
<g filter="url(#filter3_dd_2_3494)">
<rect width="40" height="40" rx="4" transform="matrix(0.83205 -0.5547 0.830139 0.557556 145 28.188)" fill="white"/>
<g clip-path="url(#clip3_2_3494)">
<path d="M169.705 22.5103C164.98 25.6607 164.997 30.8015 169.745 33.9906C173.544 36.5422 179.219 37.0721 183.757 35.5684C184.264 35.337 184.136 35.0658 183.909 34.9137L182.309 33.8386C180.448 35.7751 178.418 35.0747 178.418 35.0747C177.035 34.6668 176.209 34.8634 176.209 34.8634C174.898 35.0227 175.746 34.4731 175.746 34.4731C176.665 33.9406 177.944 34.1941 177.944 34.1941C180.021 34.5679 180.88 33.487 181.148 33.0136C180.669 32.5897 180.511 32.1868 180.543 31.8794C178.423 32.9997 175.688 33.8367 172.394 31.6245C171.455 30.9936 171.022 30.2557 170.968 29.4867C170.662 29.3999 169.494 29.0077 168.775 27.9027C168.775 27.9027 169.264 27.2685 172.011 26.9251C172.503 26.3421 173.139 25.7903 173.863 25.3029C174.594 24.8204 175.422 24.3961 176.296 24.0681C176.818 22.232 177.767 21.9086 177.767 21.9086C179.417 22.3936 179.998 23.1766 180.126 23.3809C181.277 23.4191 182.376 23.7134 183.315 24.3438C186.617 26.5618 185.343 28.3849 183.65 29.7982C184.223 29.7728 185.026 29.9373 185.829 30.4762L188.188 32.0609C188.417 32.2145 188.823 32.3036 189.172 31.9573C191.432 28.9271 190.659 25.1302 186.862 22.5797C182.113 19.3905 174.432 19.3594 169.705 22.5103Z" fill="black"/>
</g>
<rect x="0.831095" y="0.00142801" width="39" height="39" rx="3.5" transform="matrix(0.83205 -0.5547 0.830139 0.557556 145.138 28.6497)" stroke="#DDDDDD"/>
</g>
<g filter="url(#filter4_dd_2_3494)">
<rect width="40" height="40" rx="4" transform="matrix(0.83205 -0.5547 0.830139 0.557556 60 85.188)" fill="white"/>
<path d="M102.432 78.3735L84.9731 78.5384L83.2817 78.5548L82.9404 91.3677C82.9301 91.7871 83.4291 92.1222 84.0553 92.1165L96.0617 92.003L103.205 91.9361L103.546 79.1223C103.558 78.7032 103.059 78.368 102.432 78.3735V78.3735ZM96.1882 87.2233L90.1917 87.28L90.2978 83.267L96.296 83.2105L96.1882 87.2233Z" fill="#2684FF"/>
<path d="M90.2978 83.267C86.3709 83.3035 83.2368 81.2121 83.2835 78.5844L83.0471 87.3652L90.1913 87.2977L90.2978 83.267Z" fill="url(#paint0_linear_2_3494)"/>
<path d="M96.2961 83.1992L96.1882 87.2233C98.0828 87.2048 99.8877 87.6909 101.204 88.5749C102.52 89.4589 103.239 90.6678 103.205 91.9361L103.439 83.1324L96.2961 83.1992Z" fill="url(#paint1_linear_2_3494)"/>
<rect x="0.831095" y="0.00142801" width="39" height="39" rx="3.5" transform="matrix(0.83205 -0.5547 0.830139 0.557556 60.1384 85.6497)" stroke="#DDDDDD"/>
</g>
<g filter="url(#filter5_dd_2_3494)">
<rect width="40" height="40" rx="4" transform="matrix(0.83205 -0.5547 0.830139 0.557556 145 85.188)" fill="white"/>
<path d="M178.152 71.9743L158.183 85.2871L178.107 98.6684L198.076 85.3556L178.152 71.9743Z" fill="url(#paint2_linear_2_3494)"/>
<path fill-rule="evenodd" clip-rule="evenodd" d="M178.122 89.6592L184.362 85.4989L178.136 81.3172L171.896 85.4775L178.122 89.6592ZM178.636 80.9844L179.634 80.3188L180.132 80.6533L179.134 81.3189L180.13 81.988L181.128 81.3224L181.626 81.6569L180.628 82.3225L181.375 82.8243L182.374 82.1587L182.872 82.4932L181.873 83.1589L182.869 83.8279L183.868 83.1623L184.366 83.4968L183.367 84.1625L184.364 84.8315L185.362 84.1659L185.86 84.5004L184.862 85.1661L184.896 85.1888C185.152 85.3608 185.151 85.6397 184.894 85.8108L184.861 85.8334L185.857 86.5025L185.357 86.8353L184.361 86.1663L183.363 86.8319L184.359 87.501L183.86 87.8338L182.864 87.1647L182.115 87.6639L183.111 88.333L182.612 88.6658L181.616 87.9968L180.617 88.6624L181.613 89.3315L181.114 89.6643L180.118 88.9952L179.119 89.6609L180.116 90.3299L179.616 90.6628L178.62 89.9937L178.586 90.0163C178.33 90.1874 177.913 90.1867 177.657 90.0147L177.623 89.992L176.874 90.4912L176.376 90.1567L177.125 89.6574L176.129 88.9884L175.38 89.4876L174.882 89.1531L175.63 88.6538L174.634 87.9848L173.885 88.484L173.387 88.1495L174.136 87.6502L173.389 87.1484L172.64 87.6477L172.142 87.3131L172.891 86.8139L171.895 86.1448L171.146 86.6441L170.648 86.3095L171.397 85.8103L171.363 85.7876C171.107 85.6156 171.107 85.3366 171.364 85.1656L171.398 85.1429L170.402 84.4739L170.901 84.1411L171.897 84.8101L172.896 84.1445L171.899 83.4754L172.399 83.1426L173.395 83.8117L174.393 83.146L173.397 82.477L173.896 82.1441L174.893 82.8132L175.641 82.314L174.645 81.6449L175.144 81.3121L176.141 81.9812L177.139 81.3155L176.143 80.6464L176.642 80.3136L177.638 80.9827L177.672 80.9601C177.929 80.789 178.346 80.7897 178.602 80.9617L178.636 80.9844ZM184.823 89.4831C184.84 89.4945 184.84 89.5132 184.823 89.5245L178.146 93.9763C178.129 93.9876 178.101 93.9876 178.084 93.9762L171.421 89.5015C171.404 89.4901 171.404 89.4714 171.421 89.4601L172.888 88.4823L172.39 88.1478L170.923 89.1256C170.631 89.3204 170.63 89.6384 170.922 89.8343L177.584 94.309C177.876 94.5049 178.351 94.5057 178.644 94.3109L185.321 89.8591C185.614 89.6642 185.614 89.3462 185.323 89.1503L184.108 88.3347L183.609 88.6675L184.823 89.4831ZM178.675 76.3337L185.337 80.8084C185.629 81.0043 185.628 81.3223 185.336 81.5171L183.869 82.495L183.371 82.1604L184.838 81.1826C184.855 81.1713 184.855 81.1526 184.838 81.1412L178.175 76.6665C178.158 76.6551 178.13 76.6551 178.113 76.6664L171.436 81.1182C171.419 81.1295 171.419 81.1482 171.436 81.1596L172.899 82.1424L172.4 82.4752L170.936 81.4924C170.645 81.2965 170.645 80.9785 170.938 80.7837L177.615 76.3319C177.908 76.137 178.383 76.1378 178.675 76.3337Z" fill="white"/>
<rect x="0.831095" y="0.00142801" width="39" height="39" rx="3.5" transform="matrix(0.83205 -0.5547 0.830139 0.557556 145.138 85.6497)" stroke="#DDDDDD"/>
</g>
<g filter="url(#filter6_dd_2_3494)">
<rect width="40" height="40" rx="4" transform="matrix(0.83205 -0.5547 0.830139 0.557556 103 114.188)" fill="white"/>
<path d="M136.152 100.974L116.183 114.287L136.306 127.802L156.275 114.489L136.152 100.974Z" fill="url(#paint3_linear_2_3494)"/>
<path fill-rule="evenodd" clip-rule="evenodd" d="M142.167 111.36L141.695 110.947C142.622 110.804 143.003 110.824 143.141 110.848C143.036 110.98 142.689 111.157 142.167 111.36ZM134.521 113.816C134.504 113.805 134.504 113.786 134.521 113.775C134.525 113.772 134.532 113.771 134.539 113.77L134.563 113.818C134.549 113.823 134.534 113.825 134.521 113.816ZM145.664 115.42C145.677 115.431 145.69 115.441 145.705 115.451C145.755 115.485 145.826 115.695 145.503 116.201C145.359 116.426 145.162 116.674 144.916 116.938C144.286 117.619 143.379 118.367 142.364 119.043C139.651 120.852 137.295 121.475 136.983 121.265C136.969 121.256 136.954 121.247 136.937 121.238L126.405 115.81C126.531 115.789 126.661 115.763 126.793 115.733C126.831 115.724 126.87 115.714 126.909 115.704C127.022 115.677 127.137 115.648 127.254 115.615C127.304 115.601 127.355 115.586 127.406 115.571C127.528 115.535 127.652 115.496 127.778 115.454C127.815 115.442 127.852 115.43 127.889 115.418C128.049 115.363 128.212 115.304 128.377 115.241C128.423 115.223 128.47 115.204 128.516 115.186C128.642 115.137 128.769 115.086 128.896 115.032C128.952 115.009 129.007 114.986 129.062 114.962C129.204 114.901 129.347 114.837 129.491 114.771C129.523 114.757 129.553 114.744 129.585 114.729C129.757 114.649 129.932 114.565 130.107 114.479C130.156 114.454 130.206 114.429 130.255 114.404C130.387 114.338 130.519 114.27 130.651 114.201C130.704 114.172 130.758 114.144 130.813 114.115C130.97 114.031 131.128 113.944 131.285 113.857C131.303 113.846 131.323 113.836 131.342 113.825C131.516 113.726 131.69 113.625 131.862 113.523C131.911 113.494 131.96 113.464 132.009 113.435C132.138 113.357 132.266 113.278 132.393 113.199C132.443 113.168 132.493 113.137 132.542 113.106C132.71 112.999 132.877 112.891 133.041 112.782C133.205 112.673 133.366 112.561 133.527 112.449C133.574 112.417 133.62 112.383 133.667 112.35C133.786 112.265 133.904 112.18 134.02 112.094C134.065 112.061 134.11 112.029 134.154 111.996C134.307 111.88 134.458 111.765 134.606 111.649C134.623 111.636 134.638 111.623 134.655 111.61C134.787 111.505 134.915 111.401 135.042 111.296C135.085 111.259 135.128 111.223 135.171 111.187C135.274 111.099 135.376 111.012 135.475 110.924C135.513 110.891 135.551 110.857 135.588 110.824C135.718 110.708 135.844 110.591 135.965 110.476C135.986 110.455 136.007 110.434 136.028 110.413C136.127 110.317 136.222 110.222 136.314 110.127C136.35 110.09 136.385 110.053 136.42 110.016C136.5 109.931 136.577 109.846 136.651 109.762C136.679 109.731 136.707 109.7 136.734 109.67C136.829 109.559 136.917 109.45 137 109.343C137.019 109.319 137.036 109.295 137.054 109.271C137.117 109.186 137.176 109.103 137.231 109.02C137.254 108.987 137.276 108.954 137.297 108.92C137.347 108.841 137.392 108.764 137.433 108.687C137.446 108.662 137.462 108.637 137.475 108.612C137.52 108.523 137.56 108.436 137.592 108.352L141.359 111.65C139.813 112.172 137.486 112.799 135.186 113.328C134.807 113.097 134.227 113.097 133.868 113.337C133.498 113.584 133.504 113.991 133.88 114.244C134.257 114.497 134.865 114.502 135.235 114.255C135.381 114.158 135.466 114.036 135.496 113.909C137.562 113.439 140.135 112.795 141.925 112.145L145.664 115.42ZM129.295 110.266C132.634 108.04 136.039 107.179 136.668 107.543L136.728 107.594C136.742 107.612 136.75 107.634 136.76 107.655C136.769 107.672 136.779 107.687 136.784 107.707C136.79 107.73 136.79 107.758 136.792 107.784C136.794 107.806 136.798 107.828 136.797 107.853C136.795 107.881 136.787 107.913 136.782 107.944C136.777 107.973 136.774 107.999 136.766 108.031C136.756 108.063 136.741 108.1 136.729 108.136C136.716 108.17 136.707 108.202 136.691 108.239C136.675 108.276 136.652 108.316 136.633 108.355C136.613 108.395 136.596 108.433 136.572 108.475C136.549 108.515 136.521 108.559 136.495 108.601C136.467 108.646 136.442 108.69 136.41 108.737C136.381 108.781 136.345 108.828 136.312 108.874C136.277 108.923 136.244 108.971 136.204 109.023C136.168 109.071 136.125 109.121 136.085 109.171C136.042 109.224 136.002 109.276 135.955 109.33C135.911 109.383 135.86 109.437 135.812 109.491C135.763 109.546 135.716 109.601 135.663 109.658C135.609 109.715 135.55 109.774 135.493 109.833C135.438 109.889 135.385 109.945 135.326 110.003C135.264 110.065 135.195 110.129 135.129 110.191C135.068 110.249 135.011 110.306 134.946 110.365C134.876 110.429 134.799 110.496 134.725 110.562C134.657 110.621 134.593 110.68 134.522 110.741C134.44 110.811 134.351 110.884 134.264 110.955C134.194 111.013 134.128 111.07 134.055 111.128C133.957 111.207 133.852 111.287 133.749 111.366C133.68 111.42 133.615 111.472 133.543 111.526C133.429 111.612 133.306 111.7 133.186 111.788C133.119 111.836 133.056 111.883 132.988 111.932C132.795 112.068 132.596 112.206 132.389 112.344C132.182 112.482 131.976 112.615 131.771 112.743C131.698 112.789 131.625 112.831 131.552 112.877C131.422 112.956 131.291 113.037 131.163 113.113C131.078 113.163 130.995 113.209 130.91 113.258C130.796 113.324 130.679 113.392 130.566 113.454C130.479 113.503 130.393 113.547 130.307 113.593C130.199 113.651 130.091 113.711 129.985 113.765C129.895 113.812 129.808 113.855 129.719 113.899C129.62 113.949 129.52 114.001 129.423 114.047C129.331 114.092 129.242 114.132 129.152 114.174C129.061 114.216 128.969 114.261 128.881 114.3C128.792 114.34 128.708 114.376 128.621 114.413C128.534 114.451 128.447 114.49 128.363 114.524C128.277 114.56 128.196 114.591 128.113 114.624C128.033 114.655 127.951 114.689 127.873 114.719C127.79 114.75 127.712 114.777 127.631 114.806C127.558 114.832 127.483 114.86 127.412 114.884C127.334 114.911 127.261 114.933 127.185 114.957C127.119 114.978 127.049 115.002 126.985 115.02C126.913 115.042 126.848 115.058 126.78 115.077C126.717 115.094 126.652 115.113 126.592 115.128C126.529 115.144 126.472 115.155 126.413 115.169C126.354 115.181 126.294 115.196 126.239 115.206C126.184 115.217 126.135 115.224 126.083 115.232C126.031 115.24 125.976 115.25 125.928 115.256C125.88 115.261 125.84 115.263 125.796 115.267C125.751 115.27 125.703 115.275 125.662 115.276C125.624 115.277 125.591 115.274 125.556 115.273C125.518 115.271 125.478 115.271 125.444 115.267C125.414 115.263 125.391 115.256 125.364 115.25C125.334 115.243 125.301 115.238 125.276 115.229L125.199 115.189C124.659 114.766 125.958 112.491 129.295 110.266ZM143.721 110.366C143.278 110.16 142.456 110.176 141.088 110.415L137.478 107.254L137.476 107.253L137.476 107.253L137.365 107.157C137.353 107.146 137.34 107.136 137.326 107.126C135.966 106.213 131.659 107.817 128.643 109.828C125.627 111.838 123.215 114.715 124.574 115.628C124.588 115.637 124.604 115.646 124.62 115.655L124.764 115.729L124.765 115.729L136.368 121.709C137.61 122.487 141.096 120.762 143.016 119.482C144.078 118.773 145.03 117.988 145.696 117.269C145.965 116.98 146.183 116.705 146.345 116.451C146.76 115.801 146.768 115.327 146.371 115.041L142.711 111.836C143.082 111.677 143.399 111.519 143.629 111.366C143.94 111.159 144.105 110.959 144.078 110.773C144.055 110.607 143.928 110.462 143.721 110.366Z" fill="white"/>
<rect x="0.831095" y="0.00142801" width="39" height="39" rx="3.5" transform="matrix(0.83205 -0.5547 0.830139 0.557556 103.138 114.65)" stroke="#DDDDDD"/>
</g>
<g filter="url(#filter7_dd_2_3494)">
<rect width="40" height="40" rx="4" transform="matrix(0.83205 -0.5547 0.830139 0.557556 187 56.188)" fill="white"/>
<path d="M220.152 42.9743L200.183 56.2871L220.306 69.8022L240.275 56.4894L220.152 42.9743Z" fill="url(#paint4_linear_2_3494)"/>
<path fill-rule="evenodd" clip-rule="evenodd" d="M220.521 63.5995L221.02 63.2667C218.906 61.8466 218.108 59.4853 228.226 52.7399L227.723 52.402C217.165 59.4407 218.157 62.0122 220.521 63.5995ZM223.528 63.6147L224.027 63.2819C222.124 62.0037 219.248 60.0721 229.232 53.4157L228.729 53.0778C224.152 56.1292 221.766 58.5139 221.435 60.3685C221.141 62.0118 222.521 62.9383 223.528 63.6147ZM210.467 58.1834L209.968 58.5162C211.828 59.7657 215.512 58.8864 220.951 55.9068C216.478 59.5351 215.151 61.997 217.011 63.2465L217.51 62.9137C216.289 62.0935 215.927 59.5932 227.22 52.0641L226.717 51.7263C215.424 59.2553 211.688 59.0036 210.467 58.1834ZM209.953 55.8334L209.453 56.1662C211.817 57.7536 215.656 58.427 226.214 51.3884L225.711 51.0505C215.593 57.7959 212.067 57.2535 209.953 55.8334ZM224.705 50.3747L225.208 50.7126C220.631 53.7641 217.058 55.3517 214.285 55.5665C211.829 55.757 210.449 54.8305 209.442 54.1541L209.941 53.8213C211.844 55.0995 214.72 57.0311 224.705 50.3747Z" fill="white"/>
<rect x="0.831095" y="0.00142801" width="39" height="39" rx="3.5" transform="matrix(0.83205 -0.5547 0.830139 0.557556 187.138 56.6497)" stroke="#DDDDDD"/>
</g>
<g filter="url(#filter8_dd_2_3494)">
<rect width="40" height="40" rx="4" transform="matrix(0.83205 -0.5547 0.830139 0.557556 60 142.188)" fill="white"/>
<path d="M93.1524 128.974L73.1832 142.287L93.1066 155.668L113.076 142.356L93.1524 128.974Z" fill="url(#paint5_linear_2_3494)"/>
<path fill-rule="evenodd" clip-rule="evenodd" d="M96.4473 148.442L93.6063 150.336L90.0877 143.687L94.4533 144.714L96.4473 148.442ZM89.5113 142.928C89.3517 142.891 89.1751 142.917 89.0561 142.997L89.0551 142.997C88.9361 143.077 88.8962 143.196 88.9529 143.303L93.0106 150.97C93.0612 151.065 93.181 151.137 93.3288 151.16C93.4756 151.183 93.6298 151.153 93.7364 151.082L97.2666 148.729C97.3869 148.649 97.4265 148.529 97.3695 148.422L95.2105 144.385C95.1653 144.301 95.066 144.235 94.94 144.206L89.5113 142.928ZM105.286 142.549L102.471 144.426L87.6883 140.774C87.5277 140.734 87.3474 140.76 87.2268 140.84L85.3783 142.073L83.2013 140.608L86.8456 138.178L101.606 141.845C101.767 141.885 101.947 141.859 102.069 141.778L103.107 141.085L105.286 142.549ZM102.795 140.46L101.644 141.228L86.884 137.561C86.7228 137.521 86.5424 137.547 86.4216 137.628L82.2683 140.397C82.0971 140.511 82.097 140.697 82.2686 140.813L85.0678 142.696C85.1506 142.752 85.2623 142.783 85.3789 142.784C85.4959 142.784 85.6075 142.753 85.6898 142.698L87.6512 141.391L102.434 145.043C102.595 145.083 102.775 145.057 102.896 144.976L106.22 142.76C106.392 142.645 106.391 142.459 106.219 142.344L103.418 140.462C103.246 140.347 102.967 140.346 102.795 140.46Z" fill="white"/>
<rect x="0.831095" y="0.00142801" width="39" height="39" rx="3.5" transform="matrix(0.83205 -0.5547 0.830139 0.557556 60.1384 142.65)" stroke="#DDDDDD"/>
</g>
<g filter="url(#filter9_dd_2_3494)">
<rect width="40" height="40" rx="4" transform="matrix(0.83205 -0.5547 0.830139 0.557556 103 172.188)" fill="white"/>
<g clip-path="url(#clip4_2_3494)">
<path d="M131.262 162.245L121.11 169.013C120.719 169.274 120.718 169.695 121.109 169.957L123.416 171.508L134.982 163.797L132.674 162.247C132.582 162.185 132.472 162.135 132.351 162.102C132.229 162.068 132.1 162.05 131.968 162.05C131.837 162.05 131.707 162.067 131.586 162.101C131.465 162.134 131.355 162.183 131.262 162.245V162.245Z" fill="#BC3200"/>
<path d="M133.868 162.395L121.326 170.757C121.191 170.846 121.085 170.952 121.012 171.069C120.939 171.186 120.902 171.312 120.901 171.439C120.901 171.565 120.938 171.691 121.011 171.808C121.083 171.926 121.189 172.032 121.323 172.122L122.125 172.66L136.71 162.937L135.908 162.399C135.775 162.309 135.616 162.237 135.441 162.188C135.266 162.139 135.078 162.114 134.889 162.114C134.699 162.113 134.511 162.138 134.336 162.186C134.161 162.235 134.002 162.306 133.868 162.395V162.395Z" fill="#D13600"/>
<path d="M136.783 162.386L121.302 172.707C121.167 172.797 121.061 172.903 120.988 173.02C120.915 173.137 120.877 173.262 120.877 173.389C120.877 173.516 120.914 173.642 120.987 173.759C121.059 173.876 121.165 173.983 121.299 174.073L135.807 183.816C136.078 183.998 136.446 184.101 136.83 184.101C137.214 184.102 137.583 184.001 137.855 183.82L153.328 173.504C153.6 173.323 153.752 173.077 153.753 172.82C153.753 172.563 153.601 172.316 153.331 172.134L138.823 162.39C138.69 162.3 138.531 162.228 138.356 162.179C138.181 162.131 137.993 162.105 137.804 162.105C137.614 162.105 137.426 162.129 137.251 162.178C137.076 162.226 136.917 162.297 136.783 162.386V162.386Z" fill="#E15815"/>
<path d="M126.946 170.945C126.43 171.289 126.14 171.756 126.139 172.244C126.138 172.731 126.427 173.2 126.941 173.546C127.456 173.891 128.155 174.086 128.884 174.087C129.613 174.089 130.313 173.896 130.829 173.552C131.344 173.208 131.634 172.741 131.635 172.253C131.636 171.765 131.347 171.297 130.833 170.951C130.318 170.606 129.619 170.411 128.89 170.41C128.162 170.408 127.462 170.601 126.946 170.945V170.945ZM130.144 173.092C129.978 173.203 129.781 173.291 129.565 173.35C129.348 173.41 129.116 173.441 128.882 173.44C128.647 173.44 128.415 173.408 128.199 173.348C127.982 173.288 127.786 173.199 127.62 173.088C127.454 172.977 127.323 172.845 127.233 172.7C127.144 172.555 127.098 172.4 127.098 172.243C127.098 172.086 127.145 171.931 127.235 171.786C127.325 171.641 127.457 171.51 127.623 171.399C128.321 170.934 129.45 170.936 130.147 171.403C130.843 171.871 130.842 172.627 130.144 173.092L130.144 173.092Z" fill="#FFB290"/>
<path d="M131.349 172.924L129.907 173.885L133.842 176.528L135.284 175.567L131.348 172.924L131.349 172.924Z" fill="#FFB290"/>
<path d="M138.155 166.106C137.64 165.76 136.942 165.566 136.213 165.564C135.484 165.563 134.785 165.755 134.268 166.099C133.752 166.443 133.462 166.911 133.461 167.398C133.461 167.886 133.749 168.354 134.264 168.7C134.656 168.964 135.159 169.142 135.705 169.21C136.251 169.279 136.815 169.236 137.323 169.086L138.657 169.981L133.758 176.47L133.746 176.478L136.215 178.136C136 178.473 135.94 178.846 136.044 179.206C136.147 179.567 136.409 179.898 136.796 180.158C137.311 180.504 138.01 180.699 138.739 180.7C139.468 180.701 140.167 180.509 140.684 180.165C141.199 179.821 141.49 179.354 141.49 178.866C141.491 178.378 141.203 177.91 140.688 177.564C140.305 177.307 139.819 177.131 139.288 177.058C138.758 176.985 138.207 177.019 137.705 177.154L136.174 176.126L141.044 169.672L141 169.664L141.016 169.653L138.736 168.122C138.95 167.786 139.01 167.414 138.906 167.055C138.802 166.696 138.541 166.365 138.155 166.106V166.106ZM140.006 178.024C140.703 178.492 140.701 179.248 140.003 179.713C139.837 179.824 139.641 179.912 139.424 179.971C139.207 180.031 138.975 180.062 138.741 180.061C138.506 180.061 138.274 180.03 138.058 179.969C137.841 179.909 137.645 179.82 137.479 179.709C137.313 179.598 137.182 179.466 137.092 179.321C137.003 179.176 136.957 179.021 136.957 178.864C136.957 178.707 137.004 178.552 137.094 178.407C137.184 178.262 137.316 178.131 137.482 178.02C138.18 177.554 139.309 177.557 140.005 178.024L140.006 178.024ZM137.466 168.247C137.3 168.358 137.103 168.445 136.887 168.505C136.67 168.565 136.438 168.595 136.204 168.595C135.969 168.594 135.737 168.563 135.521 168.503C135.304 168.442 135.108 168.354 134.942 168.243C134.245 167.774 134.247 167.019 134.945 166.554C135.643 166.088 136.772 166.09 137.469 166.558C138.166 167.026 138.16 167.784 137.466 168.247Z" fill="#FFDBCA"/>
</g>
<rect x="0.831095" y="0.00142801" width="39" height="39" rx="3.5" transform="matrix(0.83205 -0.5547 0.830139 0.557556 103.138 172.65)" stroke="#DDDDDD"/>
</g>
<g filter="url(#filter10_dd_2_3494)">
<rect width="40" height="40" rx="4" transform="matrix(0.83205 -0.5547 0.830139 0.557556 187 114.188)" fill="white"/>
<g clip-path="url(#clip5_2_3494)">
<path d="M227.438 122.403L220.892 126.767C220.664 126.917 220.356 127.001 220.036 127C219.716 126.999 219.409 126.913 219.183 126.761L211.132 121.354C210.66 121.036 210.665 120.526 211.134 120.213L217.68 115.849L227.438 122.403L227.438 122.403Z" fill="#B41055"/>
<path d="M238.764 114.852L235.99 116.701L226.232 110.147L229.005 108.298C229.466 107.991 230.218 107.992 230.677 108.301L238.765 113.733C238.986 113.882 239.11 114.083 239.11 114.293C239.11 114.503 238.985 114.704 238.764 114.852V114.852Z" fill="#E86299"/>
<path d="M227.498 122.363L236.369 116.448L226.611 109.894L216.834 116.412L225.688 122.359C226.184 122.692 226.996 122.696 227.498 122.362L227.498 122.363Z" fill="#F173A7"/>
<path d="M215.963 103.933L204.739 111.416C204.254 111.739 204.253 112.264 204.737 112.589L213.62 118.555L226.6 109.902L217.717 103.936C217.602 103.859 217.466 103.797 217.315 103.755C217.165 103.713 217.003 103.691 216.841 103.691C216.678 103.691 216.516 103.712 216.366 103.753C216.215 103.795 216.078 103.856 215.963 103.933V103.933Z" fill="#C12664"/>
<path d="M213.586 105.518L204.739 111.416C204.254 111.739 204.253 112.264 204.737 112.589L213.62 118.555L223.345 112.072L213.586 105.518V105.518Z" fill="#CF3071"/>
<path d="M212.803 110.36L211.105 111.492C210.89 111.635 210.599 111.714 210.296 111.714C209.994 111.713 209.703 111.632 209.489 111.489C209.276 111.345 209.156 111.151 209.156 110.948C209.156 110.745 209.276 110.551 209.49 110.408L211.188 109.276C211.403 109.133 211.694 109.053 211.997 109.053C212.3 109.054 212.59 109.135 212.804 109.278C213.018 109.422 213.138 109.617 213.138 109.82C213.138 110.022 213.017 110.217 212.802 110.36L212.803 110.36Z" fill="#B5205C"/>
<path d="M229.01 115.905L224.17 119.132L224.997 119.687L229.837 116.461L229.009 115.905L229.01 115.905ZM228.565 118.399L225.812 120.234L226.639 120.79L229.392 118.955L228.565 118.399Z" fill="#FE90BE"/>
<path d="M225.813 114.811L224.199 115.887C224.088 115.961 223.957 116.019 223.813 116.059C223.669 116.098 223.514 116.119 223.358 116.118C223.202 116.118 223.048 116.097 222.904 116.057C222.76 116.017 222.629 115.958 222.519 115.884C222.055 115.572 222.055 115.069 222.52 114.759L224.134 113.684C224.598 113.374 225.35 113.375 225.814 113.687C225.925 113.761 226.012 113.849 226.072 113.945C226.131 114.042 226.162 114.145 226.162 114.25C226.161 114.354 226.13 114.458 226.071 114.554C226.011 114.65 225.923 114.738 225.812 114.811L225.813 114.811Z" fill="#CB2E6F"/>
<path d="M219.249 119.187L217.636 120.263C217.525 120.336 217.394 120.395 217.25 120.434C217.106 120.474 216.951 120.494 216.795 120.494C216.639 120.494 216.485 120.473 216.341 120.433C216.197 120.393 216.066 120.334 215.956 120.26C215.491 119.948 215.492 119.445 215.957 119.135L217.571 118.06C218.035 117.75 218.787 117.751 219.251 118.063C219.361 118.137 219.449 118.225 219.508 118.321C219.568 118.418 219.598 118.521 219.598 118.626C219.598 118.73 219.567 118.833 219.507 118.93C219.447 119.026 219.36 119.114 219.249 119.187L219.249 119.187Z" fill="#900740"/>
</g>
<rect x="0.831095" y="0.00142801" width="39" height="39" rx="3.5" transform="matrix(0.83205 -0.5547 0.830139 0.557556 187.138 114.65)" stroke="#DDDDDD"/>
</g>
<g filter="url(#filter11_dd_2_3494)">
<rect width="40" height="40" rx="4" transform="matrix(0.83205 -0.5547 0.830139 0.557556 226 144.188)" fill="white"/>
<g clip-path="url(#clip6_2_3494)">
<path fill-rule="evenodd" clip-rule="evenodd" d="M262.354 143.35L268.323 142.292L269.145 142.844L262.668 143.995L262.354 143.35Z" fill="#4285F4"/>
<path fill-rule="evenodd" clip-rule="evenodd" d="M258.933 146.286L257.097 150.854L256.166 150.585L257.952 146.128L258.933 146.286Z" fill="#669DF6"/>
<path d="M252.354 139.161L251.639 139.638L256.437 142.861L257.153 142.384L252.354 139.161Z" fill="#AECBFA"/>
<path fill-rule="evenodd" clip-rule="evenodd" d="M247.813 146.311L256.114 151.887L267.545 149.821L270.667 142.185L262.365 136.609L250.942 138.67L247.813 146.311ZM268.198 142.598L265.702 148.583L256.749 150.23L250.29 145.893L252.785 139.907L261.731 138.265L268.189 142.603L268.198 142.598Z" fill="#AECBFA"/>
<path fill-rule="evenodd" clip-rule="evenodd" d="M258.812 143.977L260.223 140.493L255.002 141.418L253.608 144.903L258.812 143.977Z" fill="#AECBFA"/>
<path fill-rule="evenodd" clip-rule="evenodd" d="M259.093 144.679L253.981 145.543L257.791 148.102L262.904 147.238L259.093 144.679Z" fill="#669DF6"/>
<path fill-rule="evenodd" clip-rule="evenodd" d="M259.892 144.146L263.703 146.705L265.013 143.287L261.203 140.728L259.892 144.146Z" fill="#4285F4"/>
</g>
<rect x="0.831095" y="0.00142801" width="39" height="39" rx="3.5" transform="matrix(0.83205 -0.5547 0.830139 0.557556 226.138 144.65)" stroke="#DDDDDD"/>
</g>
<g filter="url(#filter12_dd_2_3494)">
<rect width="40" height="40" rx="4" transform="matrix(0.83205 -0.5547 0.830139 0.557556 145 142.188)" fill="white"/>
<g clip-path="url(#clip7_2_3494)">
<path d="M167.705 139.272L165.498 141.413L169.182 143.887L172.466 142.469L174.097 139.928L171.348 138.082L167.705 139.272Z" fill="url(#paint6_linear_2_3494)"/>
<path d="M165.498 141.413L169.182 143.887L172.494 142.45L167.771 139.278L165.498 141.413ZM170.054 142.927L169.136 143.337L166.302 141.434L166.946 140.84L170.054 142.927ZM171.464 142.278L170.442 142.77L167.202 140.594L167.931 139.905L171.464 142.278Z" fill="#341A6E"/>
<path d="M173.613 135.397L171.406 137.538L175.089 140.012L178.373 138.594L179.985 136.053L177.246 134.214L173.613 135.397Z" fill="url(#paint7_linear_2_3494)"/>
<path d="M171.406 137.538L175.089 140.012L178.383 138.588L173.66 135.416L171.406 137.538ZM175.951 139.058L175.034 139.468L172.2 137.565L172.844 136.971L175.951 139.058ZM177.362 138.409L176.339 138.901L173.1 136.725L173.82 136.03L177.362 138.409Z" fill="#341A6E"/>
<path d="M170.013 144.534L167.806 146.675L171.49 149.15L174.773 147.732L176.404 145.191L173.656 143.345L170.013 144.534Z" fill="url(#paint8_linear_2_3494)"/>
<path d="M167.797 146.682L171.452 149.137L174.764 147.7L170.041 144.528L167.797 146.682ZM172.352 148.208L171.424 148.612L168.591 146.708L169.225 146.108L172.352 148.208ZM173.8 147.572L172.778 148.063L169.5 145.862L170.229 145.174L173.8 147.572Z" fill="#341A6E"/>
<path d="M175.816 140.615L173.609 142.756L177.293 145.23L180.586 143.818L182.198 141.277L179.45 139.431L175.816 140.615Z" fill="url(#paint9_linear_2_3494)"/>
<path d="M173.609 142.756L177.303 145.236L180.605 143.806L175.883 140.634L173.609 142.756ZM178.165 144.282L177.237 144.686L174.404 142.783L175.038 142.183L178.165 144.282ZM179.565 143.627L178.543 144.119L175.304 141.943L176.033 141.254L179.565 143.627Z" fill="#341A6E"/>
<path d="M181.705 136.752L179.498 138.894L183.181 141.368L186.465 139.95L188.096 137.409L185.347 135.563L181.705 136.752Z" fill="url(#paint10_linear_2_3494)"/>
<path d="M179.498 138.894L183.144 141.342L186.456 139.905L181.733 136.733L179.498 138.894ZM184.063 140.414L183.135 140.817L180.302 138.914L180.936 138.314L184.063 140.414ZM185.463 139.758L184.441 140.25L181.201 138.074L181.931 137.385L185.463 139.758Z" fill="#341A6E"/>
<path d="M177.859 146.18L175.642 148.315L179.326 150.789L182.619 149.378L184.241 146.83L181.502 144.991L177.859 146.18Z" fill="url(#paint11_linear_2_3494)"/>
<path d="M175.642 148.315L179.326 150.789L182.648 149.359L177.849 146.136L175.642 148.315ZM180.207 149.835L179.28 150.239L176.446 148.336L177.081 147.736L180.207 149.835ZM181.617 149.186L180.595 149.678L177.346 147.496L178.075 146.807L181.617 149.186Z" fill="#341A6E"/>
<path d="M183.747 142.305L181.54 144.446L185.224 146.921L188.508 145.502L190.139 142.962L187.39 141.116L183.747 142.305Z" fill="url(#paint12_linear_2_3494)"/>
<path d="M181.54 144.446L185.224 146.921L188.536 145.484L183.813 142.312L181.54 144.446ZM186.105 145.967L185.178 146.37L182.344 144.467L182.979 143.867L186.105 145.967ZM187.506 145.311L186.484 145.803L183.244 143.627L183.973 142.938L187.506 145.311Z" fill="#341A6E"/>
</g>
<rect x="0.831095" y="0.00142801" width="39" height="39" rx="3.5" transform="matrix(0.83205 -0.5547 0.830139 0.557556 145.138 142.65)" stroke="#DDDDDD"/>
</g>
<g filter="url(#filter13_dd_2_3494)">
<rect width="40" height="40" rx="4" transform="matrix(0.83205 -0.5547 0.830139 0.557556 184 172.188)" fill="white"/>
<path d="M216.359 168.089L216.961 167.688L216.965 165.395L216.322 164.851C214.475 164.925 212.687 165.313 211.127 165.978C209.566 166.643 208.286 167.564 207.407 168.653C206.527 169.742 206.077 170.964 206.099 172.202C206.122 173.441 206.616 174.655 207.534 175.732C207.647 175.552 207.846 175.402 208.1 175.306L210.966 172.641C210.966 172.641 210.852 172.331 210.96 172.283C210.89 171.252 211.411 170.243 212.417 169.461C213.423 168.68 214.837 168.186 216.371 168.081L216.359 168.089Z" fill="#EA4335"/>
<path d="M222.434 165.799C220.591 165.089 218.48 164.754 216.359 164.835L216.353 168.053C217.264 167.993 218.183 168.072 219.041 168.285C219.9 168.498 220.676 168.838 221.31 169.28L221.736 169.566C222.017 169.378 222.351 169.23 222.718 169.128C223.086 169.027 223.479 168.975 223.877 168.976C224.274 168.977 224.668 169.03 225.035 169.132C225.402 169.234 225.736 169.384 226.016 169.573C226.297 169.761 226.52 169.985 226.671 170.231C226.823 170.477 226.901 170.741 226.9 171.007C226.9 171.273 226.821 171.536 226.668 171.781C226.515 172.027 226.292 172.25 226.01 172.437L221.726 175.293L221.731 175.869L224.295 177.59L225.148 177.592L229.432 174.736C230.638 173.944 231.431 172.914 231.693 171.797C231.955 170.68 231.672 169.536 230.887 168.533C230.102 167.531 228.857 166.724 227.334 166.231C225.812 165.739 224.093 165.587 222.434 165.799Z" fill="#4285F4"/>
<path d="M220.834 180.436L225.118 177.58L221.696 175.281L217.412 178.138C217.106 178.341 216.739 178.498 216.335 178.598L215.919 179.124L215.903 181.425L216.353 181.929C218.051 181.773 219.625 181.249 220.834 180.436V180.436Z" fill="#34A853"/>
<path d="M209.733 172.98C208.579 173.759 207.818 174.76 207.556 175.842C207.293 176.925 207.543 178.037 208.27 179.021C208.998 180.005 210.166 180.813 211.612 181.332C213.057 181.851 214.709 182.056 216.335 181.916L216.341 178.594C215.883 178.709 215.39 178.748 214.904 178.707C214.418 178.667 213.954 178.548 213.552 178.361C213.149 178.174 212.82 177.924 212.594 177.634C212.367 177.343 212.249 177.02 212.249 176.693C212.25 176.365 212.369 176.043 212.597 175.753C212.825 175.463 213.154 175.215 213.557 175.03C213.96 174.844 214.425 174.727 214.911 174.688C215.397 174.649 215.89 174.689 216.347 174.806L216.353 171.483C215.151 171.374 213.928 171.453 212.78 171.712C211.631 171.972 210.588 172.406 209.733 172.98V172.98Z" fill="#FBBC05"/>
<rect x="0.831095" y="0.00142801" width="39" height="39" rx="3.5" transform="matrix(0.83205 -0.5547 0.830139 0.557556 184.138 172.65)" stroke="#DDDDDD"/>
</g>
<g filter="url(#filter14_dd_2_3494)">
<rect width="40" height="40" rx="4" transform="matrix(0.83205 -0.5547 0.830139 0.557556 230 85.188)" fill="white"/>
<g clip-path="url(#clip8_2_3494)">
<path d="M276.462 86.3875C276.014 88.7329 274.192 90.8619 271.396 92.3061C268.601 93.7503 265.061 94.3914 261.555 94.0884C258.05 93.7854 254.866 92.5632 252.703 90.6905C250.541 88.8178 249.578 86.4481 250.026 84.1028L250.059 83.9916C250.567 81.6712 252.421 79.5795 255.22 78.1701C258.019 76.7606 261.537 76.147 265.011 76.4623C268.485 76.7775 271.636 77.9963 273.779 79.8542C275.923 81.7122 276.887 84.0596 276.462 86.3875" fill="url(#paint13_radial_2_3494)"/>
<path opacity="0.6" d="M258.722 85.6378C258.858 82.1597 260.977 78.8499 264.644 76.3866C263.564 76.3081 262.473 76.3187 261.397 76.4181C259.717 77.6859 258.369 79.1352 257.412 80.7045C256.439 82.3291 255.961 84.0678 256.007 85.8185C256.859 85.5638 257.811 85.5004 258.722 85.6378V85.6378Z" fill="white"/>
<path opacity="0.6" d="M257.837 91.294C258.397 92.1805 259.059 93.0369 259.816 93.8556C260.376 93.9576 260.946 94.0329 261.522 94.081C261.976 94.1188 262.397 94.1492 262.852 94.1574C261.802 93.0939 260.917 91.9619 260.209 90.779C259.511 91.1029 258.686 91.282 257.837 91.294V91.294Z" fill="white"/>
<path opacity="0.55" d="M253.899 87.1941C252.459 86.751 251.109 86.1881 249.879 85.5188C249.902 86.1568 250.031 86.7913 250.264 87.4103C251.285 87.9288 252.379 88.3802 253.531 88.758C253.428 88.2236 253.555 87.6809 253.899 87.1941V87.1941Z" fill="#F2F2F2"/>
<path d="M260.786 90.4537C262.459 89.3386 262.462 87.526 260.793 86.4051C259.124 85.2842 256.415 85.2796 254.742 86.3947C253.07 87.5098 253.067 89.3225 254.735 90.4433C256.404 91.5642 259.113 91.5688 260.786 90.4537Z" fill="url(#paint14_linear_2_3494)"/>
<path opacity="0.55" d="M267.703 89.1902C267.441 89.0137 267.234 88.8038 267.096 88.573C266.957 88.3423 266.889 88.0953 266.896 87.8467C265.314 88.1529 263.678 88.3172 262.031 88.3352C262.065 88.9461 261.808 89.5483 261.296 90.0542C262.308 90.0639 263.319 90.0235 264.322 89.9333C265.567 89.8192 266.792 89.6226 267.979 89.3464C267.882 89.2984 267.79 89.2462 267.703 89.1902Z" fill="#F2F2F2"/>
<path opacity="0.55" d="M274.924 84.6868C273.894 85.3745 272.748 85.9797 271.508 86.4902C271.554 86.5137 271.595 86.5412 271.63 86.572C271.885 86.7425 272.088 86.9451 272.227 87.168C272.365 87.3909 272.436 87.6298 272.437 87.871C273.932 87.2044 275.296 86.4146 276.497 85.52C276.545 84.8926 276.49 84.2634 276.334 83.6437C275.895 84.0095 275.424 84.3578 274.924 84.6868Z" fill="#F2F2F2"/>
<path d="M271.637 89.2044C272.727 88.4773 272.729 87.2954 271.641 86.5646C270.553 85.8338 268.787 85.8308 267.696 86.5578C266.606 87.2849 266.604 88.4668 267.692 89.1976C268.78 89.9284 270.546 89.9315 271.637 89.2044Z" fill="url(#paint15_linear_2_3494)"/>
<path opacity="0.7" d="M266.849 82.7376C266.514 82.3816 266.363 81.9619 266.419 81.5431C263.268 81.871 260.068 81.9452 256.889 81.764C255.041 81.6617 253.214 81.4299 251.438 81.0724C251.148 81.4319 250.899 81.8058 250.694 82.1908C252.616 82.5878 254.595 82.8472 256.599 82.9647C260.017 83.1734 263.46 83.0971 266.849 82.7376V82.7376Z" fill="#F2F2F2"/>
<path d="M271.381 83.0198C272.539 82.2478 272.541 80.9929 271.386 80.2169C270.231 79.4409 268.355 79.4377 267.197 80.2097C266.039 80.9817 266.037 82.2366 267.193 83.0126C268.348 83.7886 270.223 83.7918 271.381 83.0198Z" fill="url(#paint16_linear_2_3494)"/>
<path opacity="0.55" d="M274.212 80.2143L273.635 80.3468L273.125 80.4497L273.059 80.4941L272.538 80.5303L272.46 80.5821L271.895 80.6627C272.183 81.0158 272.292 81.4222 272.203 81.82C272.425 81.7907 272.647 81.7466 272.868 81.7025L273.013 81.6805L273.611 81.5628L275.063 81.2613C274.796 80.9017 274.493 80.5544 274.156 80.2217L274.212 80.2143Z" fill="#F2F2F2"/>
<path d="M260.786 90.4537C262.459 89.3386 262.462 87.526 260.793 86.4051C259.124 85.2842 256.415 85.2796 254.742 86.3947C253.07 87.5098 253.067 89.3225 254.735 90.4433C256.404 91.5642 259.113 91.5688 260.786 90.4537Z" fill="url(#paint17_linear_2_3494)"/>
<path d="M271.637 89.2044C272.727 88.4773 272.729 87.2954 271.641 86.5646C270.553 85.8338 268.787 85.8308 267.696 86.5578C266.606 87.2849 266.604 88.4668 267.692 89.1976C268.78 89.9284 270.546 89.9315 271.637 89.2044Z" fill="url(#paint18_linear_2_3494)"/>
</g>
<rect x="0.831095" y="0.00142801" width="39" height="39" rx="3.5" transform="matrix(0.83205 -0.5547 0.830139 0.557556 230.138 85.6497)" stroke="#DDDDDD"/>
</g>
<g filter="url(#filter15_dd_2_3494)">
<rect width="40" height="40" rx="4" transform="matrix(0.83205 -0.5547 0.830139 0.557556 269 115.188)" fill="white"/>
<rect x="0.831095" y="0.00142801" width="39" height="39" rx="3.5" transform="matrix(0.83205 -0.5547 0.830139 0.557556 269.138 115.65)" stroke="#DDDDDD"/>
</g>
<g filter="url(#filter16_dd_2_3494)">
<rect width="40" height="40" rx="4" transform="matrix(0.83205 -0.5547 0.830139 0.557556 187 2.18802)" fill="white"/>
<g clip-path="url(#clip9_2_3494)">
<path d="M226.234 -4.97657L221.678 -1.9398C221.58 -1.87423 221.525 -1.78512 221.525 -1.69208C221.525 -1.59903 221.58 -1.50967 221.678 -1.44366L226.374 1.71052C227.042 2.17539 227.926 2.47325 228.881 2.55422C229.835 2.6352 230.801 2.49437 231.617 2.15532C232.128 1.93335 232.558 1.63782 232.875 1.29025C233.193 0.942683 233.391 0.551821 233.454 0.146125C233.518 -0.259572 233.445 -0.669891 233.242 -1.05496C233.038 -1.44002 232.709 -1.79015 232.278 -2.07983L227.971 -4.97265C227.741 -5.12738 227.429 -5.21471 227.103 -5.21545C226.777 -5.21618 226.464 -5.13026 226.234 -4.97657Z" fill="#5059C9"/>
<path d="M217.639 -0.279945C219.132 -1.27566 219.133 -2.89549 217.641 -3.89795C216.148 -4.90041 213.727 -4.90587 212.234 -3.91016C210.74 -2.91445 210.739 -1.29462 212.232 -0.29216C213.724 0.710298 216.145 0.715767 217.639 -0.279945Z" fill="#7B83EB"/>
<path d="M223.915 -2.26851L229.416 1.42626C230.436 2.1106 231.091 3.00041 231.279 3.95762C231.468 4.91483 231.179 5.8859 230.457 6.72012C229.736 7.55435 228.623 8.20508 227.29 8.57132C225.957 8.93757 224.48 8.99886 223.087 8.74567C222.79 8.69562 222.5 8.63017 222.218 8.5499C221.953 8.47365 221.696 8.38633 221.448 8.28846C220.974 8.09782 220.536 7.86902 220.145 7.60719L214.644 3.91242C214.529 3.83589 214.439 3.74506 214.377 3.64515C214.315 3.54524 214.283 3.43821 214.283 3.33019C214.283 3.22217 214.315 3.11528 214.377 3.01565C214.439 2.91602 214.53 2.8256 214.644 2.74958L222.177 -2.27243C222.291 -2.34866 222.427 -2.40903 222.576 -2.4501C222.725 -2.49117 222.885 -2.51212 223.046 -2.51176C223.208 -2.51139 223.368 -2.48972 223.517 -2.44798C223.666 -2.40624 223.801 -2.34525 223.915 -2.26851V-2.26851Z" fill="#7B83EB"/>
<path opacity="0.2" d="M215.322 -0.802158L213.651 0.311951C214.332 0.476101 215.069 0.507629 215.775 0.402871C216.481 0.298112 217.127 0.0613684 217.639 -0.279851L216.866 -0.798673C216.661 -0.935636 216.384 -1.01288 216.094 -1.01353C215.805 -1.01419 215.527 -0.938195 215.322 -0.802158V-0.802158Z" fill="black"/>
<path opacity="0.1" d="M218.99 -0.147751L226.327 4.77992C226.501 4.89716 226.611 5.05073 226.637 5.21509C226.664 5.37946 226.605 5.54472 226.471 5.68339C226.433 5.73062 226.384 5.77364 226.326 5.81098L222.218 8.54989C221.953 8.47364 221.696 8.38632 221.448 8.28845C220.974 8.09781 220.536 7.86901 220.145 7.60718L214.644 3.9124C214.529 3.83586 214.439 3.74503 214.377 3.64512C214.315 3.54521 214.283 3.43818 214.283 3.33016C214.283 3.22214 214.315 3.11525 214.377 3.01562C214.439 2.91599 214.53 2.82557 214.644 2.74955L218.99 -0.147751Z" fill="black"/>
<path opacity="0.2" d="M218.411 0.238557L226.326 5.55513C226.384 5.59273 226.433 5.63597 226.471 5.68337C226.605 5.82264 226.663 5.98817 226.637 6.15241C226.61 6.31666 226.501 6.46973 226.326 6.58618L223.087 8.74564C222.79 8.69559 222.5 8.63013 222.218 8.54987C221.953 8.47361 221.696 8.38629 221.448 8.28843C220.974 8.09779 220.536 7.86899 220.145 7.60716L214.644 3.91239C214.529 3.83586 214.439 3.74503 214.377 3.64512C214.315 3.54521 214.283 3.43818 214.283 3.33016C214.283 3.22214 214.315 3.11525 214.377 3.01562C214.439 2.91599 214.53 2.82557 214.644 2.74955L218.411 0.238557Z" fill="black"/>
<path opacity="0.2" d="M218.411 0.238557L225.168 4.77731C225.371 4.91492 225.485 5.10046 225.485 5.29356C225.485 5.48666 225.371 5.67168 225.168 5.80837L221.448 8.28846C220.974 8.09782 220.536 7.86902 220.145 7.60719L214.644 3.9124C214.529 3.83586 214.439 3.74503 214.377 3.64512C214.315 3.54521 214.283 3.43818 214.283 3.33016C214.283 3.22214 214.315 3.11525 214.377 3.01562C214.439 2.91599 214.53 2.82557 214.644 2.74955L218.411 0.238557Z" fill="black"/>
<path opacity="0.2" d="M214.644 2.74955C214.53 2.82557 214.439 2.91599 214.377 3.01562C214.315 3.11525 214.283 3.22214 214.283 3.33016C214.283 3.43818 214.315 3.54521 214.377 3.64512C214.439 3.74503 214.529 3.83586 214.644 3.9124L220.145 7.60719C220.536 7.86902 220.974 8.09782 221.448 8.28846L224.588 6.19467C224.792 6.05798 224.906 5.87295 224.906 5.67986C224.906 5.48676 224.792 5.30122 224.589 5.16361L217.831 0.624852L214.644 2.74955Z" fill="black"/>
<path opacity="0.1" d="M215.322 -1.57748L212.873 0.0554504L212.939 0.0835077L212.945 0.0858465L213.007 0.110796C213.86 0.44513 214.871 0.54658 215.831 0.393962C216.79 0.241344 217.623 -0.153544 218.156 -0.708243L216.867 -1.57399C216.662 -1.71096 216.384 -1.7882 216.095 -1.78885C215.805 -1.78951 215.528 -1.71352 215.322 -1.57748V-1.57748Z" fill="black"/>
<path opacity="0.2" d="M215.322 -0.802158L213.651 0.311951C214.332 0.476101 215.069 0.507629 215.775 0.402871C216.481 0.298112 217.127 0.0613684 217.639 -0.279851L216.866 -0.798673C216.661 -0.935636 216.384 -1.01288 216.094 -1.01353C215.805 -1.01419 215.527 -0.938195 215.322 -0.802158V-0.802158Z" fill="black"/>
<path d="M207.016 4.73517L214.743 -0.415863C214.947 -0.552436 215.225 -0.628795 215.515 -0.628141C215.805 -0.627487 216.082 -0.549874 216.287 -0.412376L224.008 4.77354C224.213 4.91104 224.328 5.09716 224.328 5.29095C224.328 5.48475 224.213 5.67035 224.008 5.80692L216.281 10.958C216.076 11.0945 215.798 11.1709 215.509 11.1702C215.219 11.1696 214.942 11.092 214.737 10.9545L207.016 5.76856C206.811 5.63106 206.696 5.44494 206.696 5.25114C206.696 5.05735 206.811 4.87175 207.016 4.73517V4.73517Z" fill="#4B53BC"/>
<path d="M216.066 2.55701L214.334 3.71207L218.978 6.83127L217.841 7.58921L213.197 4.47001L211.454 5.63203L210.313 4.86584L214.926 1.79082L216.066 2.55701Z" fill="white"/>
</g>
<rect x="0.831095" y="0.00142801" width="39" height="39" rx="3.5" transform="matrix(0.83205 -0.5547 0.830139 0.557556 187.138 2.64966)" stroke="#DDDDDD"/>
</g>
<g filter="url(#filter17_dd_2_3494)">
<rect width="40" height="40" rx="4" transform="matrix(0.83205 -0.5547 0.830139 0.557556 229 28.188)" fill="white"/>
<path d="M262.152 14.9743L242.183 28.2871L262.306 41.8022L282.275 28.4894L262.152 14.9743Z" fill="url(#paint19_linear_2_3494)"/>
<path fill-rule="evenodd" clip-rule="evenodd" d="M262.491 19.3773L265.006 21.0667L264.382 21.4827L262.626 20.3031L262.641 22.9411L261.755 22.9366L261.74 20.2986L260.036 21.4346L259.407 21.0123L261.864 19.3742C262.037 19.2591 262.317 19.2607 262.491 19.3773ZM251.862 29.7768L251.238 30.1929L248.762 28.5299C248.588 28.4133 248.587 28.2257 248.76 28.1107L251.256 26.4466L251.885 26.8689L250.142 28.0309L254.084 28.0508L254.087 28.6435L250.145 28.6236L251.862 29.7768ZM262.703 33.8399L262.718 36.4779L264.422 35.3419L265.051 35.7643L262.594 37.4024C262.421 37.5174 262.141 37.5158 261.967 37.3992L259.452 35.7098L260.076 35.2938L261.832 36.4734L261.817 33.8355L262.703 33.8399ZM268.245 24.2858C267.481 23.7728 265.826 23.8579 263.817 24.5135L263.421 23.9802C265.821 23.1969 267.807 23.1566 268.869 23.8697C269.93 24.5829 269.863 25.9113 268.684 27.5146L267.888 27.2477C268.875 25.9061 269.008 24.7987 268.245 24.2858ZM256.089 32.3893C256.82 32.8801 258.397 32.8197 260.308 32.2278L260.687 32.7663C258.391 33.4776 256.488 33.4921 255.465 32.8053C254.443 32.1188 254.471 30.8451 255.543 29.3115L256.347 29.5673C255.455 30.8438 255.359 31.8988 256.089 32.3893ZM272.596 26.9997L273.22 26.5836L275.696 28.2466C275.87 28.3632 275.871 28.5508 275.699 28.6658L273.202 30.3299L272.574 29.9076L274.317 28.7456L270.374 28.7257L270.371 28.133L274.313 28.1529L272.596 26.9997ZM262.048 28.2574C260.481 29.3022 259.162 29.6163 258.942 29.5208L257.927 28.8396C258.918 28.6036 260.097 27.955 260.843 27.4576C261.589 26.9603 262.563 26.1736 262.92 25.5114L263.934 26.1926C264.081 26.3359 263.617 27.2113 262.048 28.2574ZM263.849 29.467C262.282 30.5119 260.963 30.8257 260.742 30.7302L259.719 30.0431C260.637 29.844 261.751 29.2969 262.677 28.6797C263.598 28.0659 264.413 27.3268 264.713 26.7157L265.734 27.402C265.882 27.5455 265.418 28.4207 263.849 29.467ZM265.457 30.5566C263.882 31.6071 262.569 31.9138 262.357 31.8148L261.52 31.2525C262.438 31.0536 263.552 30.5065 264.478 29.8894C265.398 29.2755 266.214 28.5364 266.513 27.9251L267.348 28.4858C267.496 28.6288 267.033 29.5061 265.457 30.5566ZM259.146 26.3173C260.697 25.2832 261.9 24.9762 262.171 25.0161C262.229 25.1973 261.766 26.0012 260.215 27.0353C258.626 28.0943 257.404 28.3907 257.202 28.3522L257.196 28.3482C257.11 28.1933 257.557 27.3763 259.146 26.3173ZM258.517 25.8949C257.358 26.6675 255.642 28.1398 256.56 28.7566L261.733 32.2308C262.58 32.8 264.584 31.9807 266.086 30.9789C267.589 29.9772 268.821 28.6397 267.973 28.0706L262.801 24.5964C261.882 23.9795 259.676 25.1224 258.517 25.8949Z" fill="white"/>
<rect x="0.831095" y="0.00142801" width="39" height="39" rx="3.5" transform="matrix(0.83205 -0.5547 0.830139 0.557556 229.138 28.6497)" stroke="#DDDDDD"/>
</g>
<g filter="url(#filter18_dd_2_3494)">
<rect width="40" height="40" rx="4" transform="matrix(0.83205 -0.5547 0.830139 0.557556 271 56.188)" fill="white"/>
<rect x="0.831095" y="0.00142801" width="39" height="39" rx="3.5" transform="matrix(0.83205 -0.5547 0.830139 0.557556 271.138 56.6497)" stroke="#DDDDDD"/>
</g>
</g>
<g style="mix-blend-mode:color">
<rect width="276" height="192" fill="white"/>
</g>
<defs>
<filter id="filter0_dd_2_3494" x="58" y="4" width="72.4876" height="50.4903" filterUnits="userSpaceOnUse" color-interpolation-filters="sRGB">
<feFlood flood-opacity="0" result="BackgroundImageFix"/>
<feColorMatrix in="SourceAlpha" type="matrix" values="0 0 0 0 0 0 0 0 0 0 0 0 0 0 0 0 0 0 127 0" result="hardAlpha"/>
<feOffset dy="1"/>
<feGaussianBlur stdDeviation="1"/>
<feColorMatrix type="matrix" values="0 0 0 0 0 0 0 0 0 0 0 0 0 0 0 0 0 0 0.06 0"/>
<feBlend mode="normal" in2="BackgroundImageFix" result="effect1_dropShadow_2_3494"/>
<feColorMatrix in="SourceAlpha" type="matrix" values="0 0 0 0 0 0 0 0 0 0 0 0 0 0 0 0 0 0 127 0" result="hardAlpha"/>
<feOffset dy="1"/>
<feGaussianBlur stdDeviation="1.5"/>
<feColorMatrix type="matrix" values="0 0 0 0 0 0 0 0 0 0 0 0 0 0 0 0 0 0 0.1 0"/>
<feBlend mode="normal" in2="effect1_dropShadow_2_3494" result="effect2_dropShadow_2_3494"/>
<feBlend mode="normal" in="SourceGraphic" in2="effect2_dropShadow_2_3494" result="shape"/>
</filter>
<filter id="filter1_dd_2_3494" x="100" y="32" width="72.4876" height="50.4903" filterUnits="userSpaceOnUse" color-interpolation-filters="sRGB">
<feFlood flood-opacity="0" result="BackgroundImageFix"/>
<feColorMatrix in="SourceAlpha" type="matrix" values="0 0 0 0 0 0 0 0 0 0 0 0 0 0 0 0 0 0 127 0" result="hardAlpha"/>
<feOffset dy="1"/>
<feGaussianBlur stdDeviation="1"/>
<feColorMatrix type="matrix" values="0 0 0 0 0 0 0 0 0 0 0 0 0 0 0 0 0 0 0.06 0"/>
<feBlend mode="normal" in2="BackgroundImageFix" result="effect1_dropShadow_2_3494"/>
<feColorMatrix in="SourceAlpha" type="matrix" values="0 0 0 0 0 0 0 0 0 0 0 0 0 0 0 0 0 0 127 0" result="hardAlpha"/>
<feOffset dy="1"/>
<feGaussianBlur stdDeviation="1.5"/>
<feColorMatrix type="matrix" values="0 0 0 0 0 0 0 0 0 0 0 0 0 0 0 0 0 0 0.1 0"/>
<feBlend mode="normal" in2="effect1_dropShadow_2_3494" result="effect2_dropShadow_2_3494"/>
<feBlend mode="normal" in="SourceGraphic" in2="effect2_dropShadow_2_3494" result="shape"/>
</filter>
<filter id="filter2_dd_2_3494" x="100" y="-22" width="72.4876" height="50.4903" filterUnits="userSpaceOnUse" color-interpolation-filters="sRGB">
<feFlood flood-opacity="0" result="BackgroundImageFix"/>
<feColorMatrix in="SourceAlpha" type="matrix" values="0 0 0 0 0 0 0 0 0 0 0 0 0 0 0 0 0 0 127 0" result="hardAlpha"/>
<feOffset dy="1"/>
<feGaussianBlur stdDeviation="1"/>
<feColorMatrix type="matrix" values="0 0 0 0 0 0 0 0 0 0 0 0 0 0 0 0 0 0 0.06 0"/>
<feBlend mode="normal" in2="BackgroundImageFix" result="effect1_dropShadow_2_3494"/>
<feColorMatrix in="SourceAlpha" type="matrix" values="0 0 0 0 0 0 0 0 0 0 0 0 0 0 0 0 0 0 127 0" result="hardAlpha"/>
<feOffset dy="1"/>
<feGaussianBlur stdDeviation="1.5"/>
<feColorMatrix type="matrix" values="0 0 0 0 0 0 0 0 0 0 0 0 0 0 0 0 0 0 0.1 0"/>
<feBlend mode="normal" in2="effect1_dropShadow_2_3494" result="effect2_dropShadow_2_3494"/>
<feBlend mode="normal" in="SourceGraphic" in2="effect2_dropShadow_2_3494" result="shape"/>
</filter>
<filter id="filter3_dd_2_3494" x="142" y="4" width="72.4876" height="50.4903" filterUnits="userSpaceOnUse" color-interpolation-filters="sRGB">
<feFlood flood-opacity="0" result="BackgroundImageFix"/>
<feColorMatrix in="SourceAlpha" type="matrix" values="0 0 0 0 0 0 0 0 0 0 0 0 0 0 0 0 0 0 127 0" result="hardAlpha"/>
<feOffset dy="1"/>
<feGaussianBlur stdDeviation="1"/>
<feColorMatrix type="matrix" values="0 0 0 0 0 0 0 0 0 0 0 0 0 0 0 0 0 0 0.06 0"/>
<feBlend mode="normal" in2="BackgroundImageFix" result="effect1_dropShadow_2_3494"/>
<feColorMatrix in="SourceAlpha" type="matrix" values="0 0 0 0 0 0 0 0 0 0 0 0 0 0 0 0 0 0 127 0" result="hardAlpha"/>
<feOffset dy="1"/>
<feGaussianBlur stdDeviation="1.5"/>
<feColorMatrix type="matrix" values="0 0 0 0 0 0 0 0 0 0 0 0 0 0 0 0 0 0 0.1 0"/>
<feBlend mode="normal" in2="effect1_dropShadow_2_3494" result="effect2_dropShadow_2_3494"/>
<feBlend mode="normal" in="SourceGraphic" in2="effect2_dropShadow_2_3494" result="shape"/>
</filter>
<filter id="filter4_dd_2_3494" x="57" y="61" width="72.4876" height="50.4903" filterUnits="userSpaceOnUse" color-interpolation-filters="sRGB">
<feFlood flood-opacity="0" result="BackgroundImageFix"/>
<feColorMatrix in="SourceAlpha" type="matrix" values="0 0 0 0 0 0 0 0 0 0 0 0 0 0 0 0 0 0 127 0" result="hardAlpha"/>
<feOffset dy="1"/>
<feGaussianBlur stdDeviation="1"/>
<feColorMatrix type="matrix" values="0 0 0 0 0 0 0 0 0 0 0 0 0 0 0 0 0 0 0.06 0"/>
<feBlend mode="normal" in2="BackgroundImageFix" result="effect1_dropShadow_2_3494"/>
<feColorMatrix in="SourceAlpha" type="matrix" values="0 0 0 0 0 0 0 0 0 0 0 0 0 0 0 0 0 0 127 0" result="hardAlpha"/>
<feOffset dy="1"/>
<feGaussianBlur stdDeviation="1.5"/>
<feColorMatrix type="matrix" values="0 0 0 0 0 0 0 0 0 0 0 0 0 0 0 0 0 0 0.1 0"/>
<feBlend mode="normal" in2="effect1_dropShadow_2_3494" result="effect2_dropShadow_2_3494"/>
<feBlend mode="normal" in="SourceGraphic" in2="effect2_dropShadow_2_3494" result="shape"/>
</filter>
<filter id="filter5_dd_2_3494" x="142" y="61" width="72.4876" height="50.4903" filterUnits="userSpaceOnUse" color-interpolation-filters="sRGB">
<feFlood flood-opacity="0" result="BackgroundImageFix"/>
<feColorMatrix in="SourceAlpha" type="matrix" values="0 0 0 0 0 0 0 0 0 0 0 0 0 0 0 0 0 0 127 0" result="hardAlpha"/>
<feOffset dy="1"/>
<feGaussianBlur stdDeviation="1"/>
<feColorMatrix type="matrix" values="0 0 0 0 0 0 0 0 0 0 0 0 0 0 0 0 0 0 0.06 0"/>
<feBlend mode="normal" in2="BackgroundImageFix" result="effect1_dropShadow_2_3494"/>
<feColorMatrix in="SourceAlpha" type="matrix" values="0 0 0 0 0 0 0 0 0 0 0 0 0 0 0 0 0 0 127 0" result="hardAlpha"/>
<feOffset dy="1"/>
<feGaussianBlur stdDeviation="1.5"/>
<feColorMatrix type="matrix" values="0 0 0 0 0 0 0 0 0 0 0 0 0 0 0 0 0 0 0.1 0"/>
<feBlend mode="normal" in2="effect1_dropShadow_2_3494" result="effect2_dropShadow_2_3494"/>
<feBlend mode="normal" in="SourceGraphic" in2="effect2_dropShadow_2_3494" result="shape"/>
</filter>
<filter id="filter6_dd_2_3494" x="100" y="90" width="72.4876" height="50.4903" filterUnits="userSpaceOnUse" color-interpolation-filters="sRGB">
<feFlood flood-opacity="0" result="BackgroundImageFix"/>
<feColorMatrix in="SourceAlpha" type="matrix" values="0 0 0 0 0 0 0 0 0 0 0 0 0 0 0 0 0 0 127 0" result="hardAlpha"/>
<feOffset dy="1"/>
<feGaussianBlur stdDeviation="1"/>
<feColorMatrix type="matrix" values="0 0 0 0 0 0 0 0 0 0 0 0 0 0 0 0 0 0 0.06 0"/>
<feBlend mode="normal" in2="BackgroundImageFix" result="effect1_dropShadow_2_3494"/>
<feColorMatrix in="SourceAlpha" type="matrix" values="0 0 0 0 0 0 0 0 0 0 0 0 0 0 0 0 0 0 127 0" result="hardAlpha"/>
<feOffset dy="1"/>
<feGaussianBlur stdDeviation="1.5"/>
<feColorMatrix type="matrix" values="0 0 0 0 0 0 0 0 0 0 0 0 0 0 0 0 0 0 0.1 0"/>
<feBlend mode="normal" in2="effect1_dropShadow_2_3494" result="effect2_dropShadow_2_3494"/>
<feBlend mode="normal" in="SourceGraphic" in2="effect2_dropShadow_2_3494" result="shape"/>
</filter>
<filter id="filter7_dd_2_3494" x="184" y="32" width="72.4875" height="50.4903" filterUnits="userSpaceOnUse" color-interpolation-filters="sRGB">
<feFlood flood-opacity="0" result="BackgroundImageFix"/>
<feColorMatrix in="SourceAlpha" type="matrix" values="0 0 0 0 0 0 0 0 0 0 0 0 0 0 0 0 0 0 127 0" result="hardAlpha"/>
<feOffset dy="1"/>
<feGaussianBlur stdDeviation="1"/>
<feColorMatrix type="matrix" values="0 0 0 0 0 0 0 0 0 0 0 0 0 0 0 0 0 0 0.06 0"/>
<feBlend mode="normal" in2="BackgroundImageFix" result="effect1_dropShadow_2_3494"/>
<feColorMatrix in="SourceAlpha" type="matrix" values="0 0 0 0 0 0 0 0 0 0 0 0 0 0 0 0 0 0 127 0" result="hardAlpha"/>
<feOffset dy="1"/>
<feGaussianBlur stdDeviation="1.5"/>
<feColorMatrix type="matrix" values="0 0 0 0 0 0 0 0 0 0 0 0 0 0 0 0 0 0 0.1 0"/>
<feBlend mode="normal" in2="effect1_dropShadow_2_3494" result="effect2_dropShadow_2_3494"/>
<feBlend mode="normal" in="SourceGraphic" in2="effect2_dropShadow_2_3494" result="shape"/>
</filter>
<filter id="filter8_dd_2_3494" x="57" y="118" width="72.4876" height="50.4903" filterUnits="userSpaceOnUse" color-interpolation-filters="sRGB">
<feFlood flood-opacity="0" result="BackgroundImageFix"/>
<feColorMatrix in="SourceAlpha" type="matrix" values="0 0 0 0 0 0 0 0 0 0 0 0 0 0 0 0 0 0 127 0" result="hardAlpha"/>
<feOffset dy="1"/>
<feGaussianBlur stdDeviation="1"/>
<feColorMatrix type="matrix" values="0 0 0 0 0 0 0 0 0 0 0 0 0 0 0 0 0 0 0.06 0"/>
<feBlend mode="normal" in2="BackgroundImageFix" result="effect1_dropShadow_2_3494"/>
<feColorMatrix in="SourceAlpha" type="matrix" values="0 0 0 0 0 0 0 0 0 0 0 0 0 0 0 0 0 0 127 0" result="hardAlpha"/>
<feOffset dy="1"/>
<feGaussianBlur stdDeviation="1.5"/>
<feColorMatrix type="matrix" values="0 0 0 0 0 0 0 0 0 0 0 0 0 0 0 0 0 0 0.1 0"/>
<feBlend mode="normal" in2="effect1_dropShadow_2_3494" result="effect2_dropShadow_2_3494"/>
<feBlend mode="normal" in="SourceGraphic" in2="effect2_dropShadow_2_3494" result="shape"/>
</filter>
<filter id="filter9_dd_2_3494" x="100" y="148" width="72.4876" height="50.4903" filterUnits="userSpaceOnUse" color-interpolation-filters="sRGB">
<feFlood flood-opacity="0" result="BackgroundImageFix"/>
<feColorMatrix in="SourceAlpha" type="matrix" values="0 0 0 0 0 0 0 0 0 0 0 0 0 0 0 0 0 0 127 0" result="hardAlpha"/>
<feOffset dy="1"/>
<feGaussianBlur stdDeviation="1"/>
<feColorMatrix type="matrix" values="0 0 0 0 0 0 0 0 0 0 0 0 0 0 0 0 0 0 0.06 0"/>
<feBlend mode="normal" in2="BackgroundImageFix" result="effect1_dropShadow_2_3494"/>
<feColorMatrix in="SourceAlpha" type="matrix" values="0 0 0 0 0 0 0 0 0 0 0 0 0 0 0 0 0 0 127 0" result="hardAlpha"/>
<feOffset dy="1"/>
<feGaussianBlur stdDeviation="1.5"/>
<feColorMatrix type="matrix" values="0 0 0 0 0 0 0 0 0 0 0 0 0 0 0 0 0 0 0.1 0"/>
<feBlend mode="normal" in2="effect1_dropShadow_2_3494" result="effect2_dropShadow_2_3494"/>
<feBlend mode="normal" in="SourceGraphic" in2="effect2_dropShadow_2_3494" result="shape"/>
</filter>
<filter id="filter10_dd_2_3494" x="184" y="90" width="72.4875" height="50.4903" filterUnits="userSpaceOnUse" color-interpolation-filters="sRGB">
<feFlood flood-opacity="0" result="BackgroundImageFix"/>
<feColorMatrix in="SourceAlpha" type="matrix" values="0 0 0 0 0 0 0 0 0 0 0 0 0 0 0 0 0 0 127 0" result="hardAlpha"/>
<feOffset dy="1"/>
<feGaussianBlur stdDeviation="1"/>
<feColorMatrix type="matrix" values="0 0 0 0 0 0 0 0 0 0 0 0 0 0 0 0 0 0 0.06 0"/>
<feBlend mode="normal" in2="BackgroundImageFix" result="effect1_dropShadow_2_3494"/>
<feColorMatrix in="SourceAlpha" type="matrix" values="0 0 0 0 0 0 0 0 0 0 0 0 0 0 0 0 0 0 127 0" result="hardAlpha"/>
<feOffset dy="1"/>
<feGaussianBlur stdDeviation="1.5"/>
<feColorMatrix type="matrix" values="0 0 0 0 0 0 0 0 0 0 0 0 0 0 0 0 0 0 0.1 0"/>
<feBlend mode="normal" in2="effect1_dropShadow_2_3494" result="effect2_dropShadow_2_3494"/>
<feBlend mode="normal" in="SourceGraphic" in2="effect2_dropShadow_2_3494" result="shape"/>
</filter>
<filter id="filter11_dd_2_3494" x="223" y="120" width="72.4875" height="50.4903" filterUnits="userSpaceOnUse" color-interpolation-filters="sRGB">
<feFlood flood-opacity="0" result="BackgroundImageFix"/>
<feColorMatrix in="SourceAlpha" type="matrix" values="0 0 0 0 0 0 0 0 0 0 0 0 0 0 0 0 0 0 127 0" result="hardAlpha"/>
<feOffset dy="1"/>
<feGaussianBlur stdDeviation="1"/>
<feColorMatrix type="matrix" values="0 0 0 0 0 0 0 0 0 0 0 0 0 0 0 0 0 0 0.06 0"/>
<feBlend mode="normal" in2="BackgroundImageFix" result="effect1_dropShadow_2_3494"/>
<feColorMatrix in="SourceAlpha" type="matrix" values="0 0 0 0 0 0 0 0 0 0 0 0 0 0 0 0 0 0 127 0" result="hardAlpha"/>
<feOffset dy="1"/>
<feGaussianBlur stdDeviation="1.5"/>
<feColorMatrix type="matrix" values="0 0 0 0 0 0 0 0 0 0 0 0 0 0 0 0 0 0 0.1 0"/>
<feBlend mode="normal" in2="effect1_dropShadow_2_3494" result="effect2_dropShadow_2_3494"/>
<feBlend mode="normal" in="SourceGraphic" in2="effect2_dropShadow_2_3494" result="shape"/>
</filter>
<filter id="filter12_dd_2_3494" x="142" y="118" width="72.4876" height="50.4903" filterUnits="userSpaceOnUse" color-interpolation-filters="sRGB">
<feFlood flood-opacity="0" result="BackgroundImageFix"/>
<feColorMatrix in="SourceAlpha" type="matrix" values="0 0 0 0 0 0 0 0 0 0 0 0 0 0 0 0 0 0 127 0" result="hardAlpha"/>
<feOffset dy="1"/>
<feGaussianBlur stdDeviation="1"/>
<feColorMatrix type="matrix" values="0 0 0 0 0 0 0 0 0 0 0 0 0 0 0 0 0 0 0.06 0"/>
<feBlend mode="normal" in2="BackgroundImageFix" result="effect1_dropShadow_2_3494"/>
<feColorMatrix in="SourceAlpha" type="matrix" values="0 0 0 0 0 0 0 0 0 0 0 0 0 0 0 0 0 0 127 0" result="hardAlpha"/>
<feOffset dy="1"/>
<feGaussianBlur stdDeviation="1.5"/>
<feColorMatrix type="matrix" values="0 0 0 0 0 0 0 0 0 0 0 0 0 0 0 0 0 0 0.1 0"/>
<feBlend mode="normal" in2="effect1_dropShadow_2_3494" result="effect2_dropShadow_2_3494"/>
<feBlend mode="normal" in="SourceGraphic" in2="effect2_dropShadow_2_3494" result="shape"/>
</filter>
<filter id="filter13_dd_2_3494" x="181" y="148" width="72.4875" height="50.4903" filterUnits="userSpaceOnUse" color-interpolation-filters="sRGB">
<feFlood flood-opacity="0" result="BackgroundImageFix"/>
<feColorMatrix in="SourceAlpha" type="matrix" values="0 0 0 0 0 0 0 0 0 0 0 0 0 0 0 0 0 0 127 0" result="hardAlpha"/>
<feOffset dy="1"/>
<feGaussianBlur stdDeviation="1"/>
<feColorMatrix type="matrix" values="0 0 0 0 0 0 0 0 0 0 0 0 0 0 0 0 0 0 0.06 0"/>
<feBlend mode="normal" in2="BackgroundImageFix" result="effect1_dropShadow_2_3494"/>
<feColorMatrix in="SourceAlpha" type="matrix" values="0 0 0 0 0 0 0 0 0 0 0 0 0 0 0 0 0 0 127 0" result="hardAlpha"/>
<feOffset dy="1"/>
<feGaussianBlur stdDeviation="1.5"/>
<feColorMatrix type="matrix" values="0 0 0 0 0 0 0 0 0 0 0 0 0 0 0 0 0 0 0.1 0"/>
<feBlend mode="normal" in2="effect1_dropShadow_2_3494" result="effect2_dropShadow_2_3494"/>
<feBlend mode="normal" in="SourceGraphic" in2="effect2_dropShadow_2_3494" result="shape"/>
</filter>
<filter id="filter14_dd_2_3494" x="227" y="61" width="72.4875" height="50.4903" filterUnits="userSpaceOnUse" color-interpolation-filters="sRGB">
<feFlood flood-opacity="0" result="BackgroundImageFix"/>
<feColorMatrix in="SourceAlpha" type="matrix" values="0 0 0 0 0 0 0 0 0 0 0 0 0 0 0 0 0 0 127 0" result="hardAlpha"/>
<feOffset dy="1"/>
<feGaussianBlur stdDeviation="1"/>
<feColorMatrix type="matrix" values="0 0 0 0 0 0 0 0 0 0 0 0 0 0 0 0 0 0 0.06 0"/>
<feBlend mode="normal" in2="BackgroundImageFix" result="effect1_dropShadow_2_3494"/>
<feColorMatrix in="SourceAlpha" type="matrix" values="0 0 0 0 0 0 0 0 0 0 0 0 0 0 0 0 0 0 127 0" result="hardAlpha"/>
<feOffset dy="1"/>
<feGaussianBlur stdDeviation="1.5"/>
<feColorMatrix type="matrix" values="0 0 0 0 0 0 0 0 0 0 0 0 0 0 0 0 0 0 0.1 0"/>
<feBlend mode="normal" in2="effect1_dropShadow_2_3494" result="effect2_dropShadow_2_3494"/>
<feBlend mode="normal" in="SourceGraphic" in2="effect2_dropShadow_2_3494" result="shape"/>
</filter>
<filter id="filter15_dd_2_3494" x="266" y="91" width="72.4875" height="50.4903" filterUnits="userSpaceOnUse" color-interpolation-filters="sRGB">
<feFlood flood-opacity="0" result="BackgroundImageFix"/>
<feColorMatrix in="SourceAlpha" type="matrix" values="0 0 0 0 0 0 0 0 0 0 0 0 0 0 0 0 0 0 127 0" result="hardAlpha"/>
<feOffset dy="1"/>
<feGaussianBlur stdDeviation="1"/>
<feColorMatrix type="matrix" values="0 0 0 0 0 0 0 0 0 0 0 0 0 0 0 0 0 0 0.06 0"/>
<feBlend mode="normal" in2="BackgroundImageFix" result="effect1_dropShadow_2_3494"/>
<feColorMatrix in="SourceAlpha" type="matrix" values="0 0 0 0 0 0 0 0 0 0 0 0 0 0 0 0 0 0 127 0" result="hardAlpha"/>
<feOffset dy="1"/>
<feGaussianBlur stdDeviation="1.5"/>
<feColorMatrix type="matrix" values="0 0 0 0 0 0 0 0 0 0 0 0 0 0 0 0 0 0 0.1 0"/>
<feBlend mode="normal" in2="effect1_dropShadow_2_3494" result="effect2_dropShadow_2_3494"/>
<feBlend mode="normal" in="SourceGraphic" in2="effect2_dropShadow_2_3494" result="shape"/>
</filter>
<filter id="filter16_dd_2_3494" x="184" y="-22" width="72.4875" height="50.4903" filterUnits="userSpaceOnUse" color-interpolation-filters="sRGB">
<feFlood flood-opacity="0" result="BackgroundImageFix"/>
<feColorMatrix in="SourceAlpha" type="matrix" values="0 0 0 0 0 0 0 0 0 0 0 0 0 0 0 0 0 0 127 0" result="hardAlpha"/>
<feOffset dy="1"/>
<feGaussianBlur stdDeviation="1"/>
<feColorMatrix type="matrix" values="0 0 0 0 0 0 0 0 0 0 0 0 0 0 0 0 0 0 0.06 0"/>
<feBlend mode="normal" in2="BackgroundImageFix" result="effect1_dropShadow_2_3494"/>
<feColorMatrix in="SourceAlpha" type="matrix" values="0 0 0 0 0 0 0 0 0 0 0 0 0 0 0 0 0 0 127 0" result="hardAlpha"/>
<feOffset dy="1"/>
<feGaussianBlur stdDeviation="1.5"/>
<feColorMatrix type="matrix" values="0 0 0 0 0 0 0 0 0 0 0 0 0 0 0 0 0 0 0.1 0"/>
<feBlend mode="normal" in2="effect1_dropShadow_2_3494" result="effect2_dropShadow_2_3494"/>
<feBlend mode="normal" in="SourceGraphic" in2="effect2_dropShadow_2_3494" result="shape"/>
</filter>
<filter id="filter17_dd_2_3494" x="226" y="4" width="72.4875" height="50.4903" filterUnits="userSpaceOnUse" color-interpolation-filters="sRGB">
<feFlood flood-opacity="0" result="BackgroundImageFix"/>
<feColorMatrix in="SourceAlpha" type="matrix" values="0 0 0 0 0 0 0 0 0 0 0 0 0 0 0 0 0 0 127 0" result="hardAlpha"/>
<feOffset dy="1"/>
<feGaussianBlur stdDeviation="1"/>
<feColorMatrix type="matrix" values="0 0 0 0 0 0 0 0 0 0 0 0 0 0 0 0 0 0 0.06 0"/>
<feBlend mode="normal" in2="BackgroundImageFix" result="effect1_dropShadow_2_3494"/>
<feColorMatrix in="SourceAlpha" type="matrix" values="0 0 0 0 0 0 0 0 0 0 0 0 0 0 0 0 0 0 127 0" result="hardAlpha"/>
<feOffset dy="1"/>
<feGaussianBlur stdDeviation="1.5"/>
<feColorMatrix type="matrix" values="0 0 0 0 0 0 0 0 0 0 0 0 0 0 0 0 0 0 0.1 0"/>
<feBlend mode="normal" in2="effect1_dropShadow_2_3494" result="effect2_dropShadow_2_3494"/>
<feBlend mode="normal" in="SourceGraphic" in2="effect2_dropShadow_2_3494" result="shape"/>
</filter>
<filter id="filter18_dd_2_3494" x="268" y="32" width="72.4875" height="50.4903" filterUnits="userSpaceOnUse" color-interpolation-filters="sRGB">
<feFlood flood-opacity="0" result="BackgroundImageFix"/>
<feColorMatrix in="SourceAlpha" type="matrix" values="0 0 0 0 0 0 0 0 0 0 0 0 0 0 0 0 0 0 127 0" result="hardAlpha"/>
<feOffset dy="1"/>
<feGaussianBlur stdDeviation="1"/>
<feColorMatrix type="matrix" values="0 0 0 0 0 0 0 0 0 0 0 0 0 0 0 0 0 0 0.06 0"/>
<feBlend mode="normal" in2="BackgroundImageFix" result="effect1_dropShadow_2_3494"/>
<feColorMatrix in="SourceAlpha" type="matrix" values="0 0 0 0 0 0 0 0 0 0 0 0 0 0 0 0 0 0 127 0" result="hardAlpha"/>
<feOffset dy="1"/>
<feGaussianBlur stdDeviation="1.5"/>
<feColorMatrix type="matrix" values="0 0 0 0 0 0 0 0 0 0 0 0 0 0 0 0 0 0 0.1 0"/>
<feBlend mode="normal" in2="effect1_dropShadow_2_3494" result="effect2_dropShadow_2_3494"/>
<feBlend mode="normal" in="SourceGraphic" in2="effect2_dropShadow_2_3494" result="shape"/>
</filter>
<linearGradient id="paint0_linear_2_3494" x1="86.7469" y1="82.6377" x2="86.7899" y2="87.2311" gradientUnits="userSpaceOnUse">
<stop stop-color="#0052CC"/>
<stop offset="1" stop-color="#2684FF"/>
</linearGradient>
<linearGradient id="paint1_linear_2_3494" x1="99.7449" y1="87.8059" x2="99.7016" y2="83.2212" gradientUnits="userSpaceOnUse">
<stop stop-color="#0052CC"/>
<stop offset="1" stop-color="#2684FF"/>
</linearGradient>
<linearGradient id="paint2_linear_2_3494" x1="178.107" y1="98.6684" x2="178.152" y2="71.9743" gradientUnits="userSpaceOnUse">
<stop stop-color="#C8511B"/>
<stop offset="1" stop-color="#FF9900"/>
</linearGradient>
<linearGradient id="paint3_linear_2_3494" x1="136.306" y1="127.802" x2="136.441" y2="100.976" gradientUnits="userSpaceOnUse">
<stop stop-color="#1B660F"/>
<stop offset="1" stop-color="#6CAE3E"/>
</linearGradient>
<linearGradient id="paint4_linear_2_3494" x1="220.306" y1="69.8022" x2="220.441" y2="42.9757" gradientUnits="userSpaceOnUse">
<stop stop-color="#4D27A8"/>
<stop offset="1" stop-color="#A166FF"/>
</linearGradient>
<linearGradient id="paint5_linear_2_3494" x1="93.1066" y1="155.668" x2="93.1524" y2="128.974" gradientUnits="userSpaceOnUse">
<stop stop-color="#C8511B"/>
<stop offset="1" stop-color="#FF9900"/>
</linearGradient>
<linearGradient id="paint6_linear_2_3494" x1="167.378" y1="142.676" x2="170.738" y2="137.673" gradientUnits="userSpaceOnUse">
<stop stop-color="#B77AF4"/>
<stop offset="1" stop-color="#773ADC"/>
</linearGradient>
<linearGradient id="paint7_linear_2_3494" x1="173.285" y1="138.801" x2="176.64" y2="133.806" gradientUnits="userSpaceOnUse">
<stop stop-color="#B77AF4"/>
<stop offset="1" stop-color="#773ADC"/>
</linearGradient>
<linearGradient id="paint8_linear_2_3494" x1="169.686" y1="147.938" x2="173.04" y2="142.944" gradientUnits="userSpaceOnUse">
<stop stop-color="#B77AF4"/>
<stop offset="1" stop-color="#773ADC"/>
</linearGradient>
<linearGradient id="paint9_linear_2_3494" x1="175.489" y1="144.018" x2="178.843" y2="139.024" gradientUnits="userSpaceOnUse">
<stop stop-color="#B77AF4"/>
<stop offset="1" stop-color="#773ADC"/>
</linearGradient>
<linearGradient id="paint10_linear_2_3494" x1="181.377" y1="140.156" x2="184.738" y2="135.153" gradientUnits="userSpaceOnUse">
<stop stop-color="#B77AF4"/>
<stop offset="1" stop-color="#773ADC"/>
</linearGradient>
<linearGradient id="paint11_linear_2_3494" x1="177.531" y1="149.584" x2="180.892" y2="144.581" gradientUnits="userSpaceOnUse">
<stop stop-color="#B77AF4"/>
<stop offset="1" stop-color="#773ADC"/>
</linearGradient>
<linearGradient id="paint12_linear_2_3494" x1="183.42" y1="145.709" x2="186.78" y2="140.706" gradientUnits="userSpaceOnUse">
<stop stop-color="#B77AF4"/>
<stop offset="1" stop-color="#773ADC"/>
</linearGradient>
<radialGradient id="paint13_radial_2_3494" cx="0" cy="0" r="1" gradientUnits="userSpaceOnUse" gradientTransform="translate(263.233 85.2507) rotate(-33.6901) scale(11.334 10.4771)">
<stop offset="0.18" stop-color="#5EA0EF"/>
<stop offset="1" stop-color="#0078D4"/>
</radialGradient>
<linearGradient id="paint14_linear_2_3494" x1="260.885" y1="90.491" x2="258.148" y2="86.4474" gradientUnits="userSpaceOnUse">
<stop stop-color="#CCCCCC"/>
<stop offset="1" stop-color="#FCFCFC"/>
</linearGradient>
<linearGradient id="paint15_linear_2_3494" x1="271.637" y1="89.2044" x2="269.209" y2="85.5638" gradientUnits="userSpaceOnUse">
<stop stop-color="#CCCCCC"/>
<stop offset="1" stop-color="#FCFCFC"/>
</linearGradient>
<linearGradient id="paint16_linear_2_3494" x1="271.37" y1="83.0123" x2="268.793" y2="79.1461" gradientUnits="userSpaceOnUse">
<stop stop-color="#CCCCCC"/>
<stop offset="1" stop-color="#FCFCFC"/>
</linearGradient>
<linearGradient id="paint17_linear_2_3494" x1="260.885" y1="90.491" x2="258.148" y2="86.4474" gradientUnits="userSpaceOnUse">
<stop stop-color="#CCCCCC"/>
<stop offset="1" stop-color="#FCFCFC"/>
</linearGradient>
<linearGradient id="paint18_linear_2_3494" x1="271.637" y1="89.2044" x2="269.209" y2="85.5638" gradientUnits="userSpaceOnUse">
<stop stop-color="#CCCCCC"/>
<stop offset="1" stop-color="#FCFCFC"/>
</linearGradient>
<linearGradient id="paint19_linear_2_3494" x1="262.306" y1="41.8022" x2="262.441" y2="14.9757" gradientUnits="userSpaceOnUse">
<stop stop-color="#2E27AD"/>
<stop offset="1" stop-color="#527FFF"/>
</linearGradient>
<clipPath id="clip0_2_3494">
<rect width="276" height="191" fill="white" transform="translate(0 1)"/>
</clipPath>
<clipPath id="clip1_2_3494">
<rect width="24" height="24" fill="white" transform="matrix(0.83205 -0.5547 0.830139 0.557556 116.298 56.2109)"/>
</clipPath>
<clipPath id="clip2_2_3494">
<rect width="24" height="24" fill="white" transform="matrix(0.83205 -0.5547 0.830139 0.557556 116.298 2.21088)"/>
</clipPath>
<clipPath id="clip3_2_3494">
<rect width="24" height="24" fill="white" transform="matrix(0.83205 -0.5547 0.830139 0.557556 158.298 28.2109)"/>
</clipPath>
<clipPath id="clip4_2_3494">
<rect width="24" height="24" fill="white" transform="matrix(0.83205 -0.5547 0.830139 0.557556 116.298 172.211)"/>
</clipPath>
<clipPath id="clip5_2_3494">
<rect width="24" height="24" fill="white" transform="matrix(0.83205 -0.5547 0.830139 0.557556 200.298 114.211)"/>
</clipPath>
<clipPath id="clip6_2_3494">
<rect width="24" height="24" fill="white" transform="matrix(0.83205 -0.5547 0.830139 0.557556 239.297 144.211)"/>
</clipPath>
<clipPath id="clip7_2_3494">
<rect width="24" height="24" fill="white" transform="matrix(0.83205 -0.5547 0.830139 0.557556 158.298 142.211)"/>
</clipPath>
<clipPath id="clip8_2_3494">
<rect width="24" height="24" fill="white" transform="matrix(0.83205 -0.5547 0.830139 0.557556 243.297 85.2109)"/>
</clipPath>
<clipPath id="clip9_2_3494">
<rect width="24" height="24" fill="white" transform="matrix(0.83205 -0.5547 0.830139 0.557556 200.298 2.21088)"/>
</clipPath>
</defs>
</svg>
