<svg width="890" height="58" viewBox="0 0 890 58" fill="none" xmlns="http://www.w3.org/2000/svg">
<rect width="890" height="58" fill="#F8F8F8"/>
<path fill-rule="evenodd" clip-rule="evenodd" d="M44 15.2755C43.1045 17.8469 40.6614 19.5 38.0896 19.5C35.5177 19.5 33.0746 17.8469 32 15.2755C32.8955 12.5204 35.5177 10.5 38.0896 10.5C40.6614 10.5 43.1045 12.7041 44 15.2755ZM40.4178 14.9082C40.4178 16.3284 39.2952 17.4796 37.9104 17.4796C36.5255 17.4796 35.4029 16.3284 35.4029 14.9082C35.4029 13.488 36.5255 12.3368 37.9104 12.3368C39.2952 12.3368 40.4178 13.488 40.4178 14.9082ZM39.3997 15.9285C39.5965 15.6265 39.7015 15.2714 39.7015 14.9081H37.9105V13.0714C37.5563 13.0714 37.21 13.1791 36.9154 13.3809C36.6209 13.5827 36.3913 13.8696 36.2558 14.2052C36.1202 14.5408 36.0848 14.9101 36.1539 15.2664C36.223 15.6227 36.3935 15.95 36.644 16.2069C36.8945 16.4637 37.2136 16.6387 37.5611 16.7095C37.9085 16.7804 38.2686 16.744 38.5959 16.605C38.9232 16.466 39.2029 16.2306 39.3997 15.9285Z" fill="#616061"/>
<path d="M61.906 15.32C61.906 16.0133 61.7933 16.6525 61.568 17.2375C61.3427 17.8225 61.0242 18.3273 60.6125 18.752C60.2052 19.1723 59.7133 19.5017 59.137 19.74C58.565 19.9783 57.928 20.0975 57.226 20.0975C56.5283 20.0975 55.8913 19.9783 55.315 19.74C54.743 19.5017 54.2512 19.1723 53.8395 18.752C53.4278 18.3273 53.1093 17.8225 52.884 17.2375C52.6587 16.6525 52.546 16.0133 52.546 15.32C52.546 14.6267 52.6587 13.9875 52.884 13.4025C53.1093 12.8175 53.4278 12.3127 53.8395 11.888C54.2512 11.4633 54.743 11.1318 55.315 10.8935C55.8913 10.6552 56.5283 10.536 57.226 10.536C57.928 10.536 58.565 10.6552 59.137 10.8935C59.7133 11.1318 60.2052 11.4633 60.6125 11.888C61.0242 12.3127 61.3427 12.8175 61.568 13.4025C61.7933 13.9875 61.906 14.6267 61.906 15.32ZM60.3525 15.32C60.3525 14.7827 60.2788 14.2995 60.1315 13.8705C59.9885 13.4415 59.7805 13.0775 59.5075 12.7785C59.2388 12.4795 58.9117 12.2498 58.526 12.0895C58.1403 11.9292 57.707 11.849 57.226 11.849C56.7493 11.849 56.3182 11.9292 55.9325 12.0895C55.5468 12.2498 55.2175 12.4795 54.9445 12.7785C54.6715 13.0775 54.4613 13.4415 54.314 13.8705C54.1667 14.2995 54.093 14.7827 54.093 15.32C54.093 15.8617 54.1667 16.347 54.314 16.776C54.4613 17.205 54.6715 17.569 54.9445 17.868C55.2175 18.1627 55.5468 18.3902 55.9325 18.5505C56.3182 18.7065 56.7493 18.7845 57.226 18.7845C57.707 18.7845 58.1403 18.7065 58.526 18.5505C58.9117 18.3902 59.2388 18.1627 59.5075 17.868C59.7805 17.569 59.9885 17.205 60.1315 16.776C60.2788 16.347 60.3525 15.8617 60.3525 15.32ZM64.5047 14.2475C64.6477 14.1002 64.795 13.968 64.9467 13.851C65.1027 13.7297 65.2673 13.6257 65.4407 13.539C65.614 13.4523 65.7982 13.3852 65.9932 13.3375C66.1882 13.2898 66.4005 13.266 66.6302 13.266C66.9942 13.266 67.3127 13.3267 67.5857 13.448C67.863 13.5693 68.0948 13.7405 68.2812 13.9615C68.4718 14.1825 68.6148 14.449 68.7102 14.761C68.8055 15.0687 68.8532 15.4088 68.8532 15.7815V20H67.4622V15.7815C67.4622 15.3352 67.3582 14.9885 67.1502 14.7415C66.9465 14.4945 66.6345 14.371 66.2142 14.371C65.9022 14.371 65.6118 14.4425 65.3432 14.5855C65.0788 14.7285 64.8297 14.9235 64.5957 15.1705V20H63.1982V13.37H64.0432C64.2338 13.37 64.3552 13.4588 64.4072 13.6365L64.5047 14.2475ZM71.9088 10.38V20H70.5113V10.38H71.9088ZM79.5162 13.37L75.8632 21.885C75.8156 21.9847 75.7571 22.0627 75.6877 22.119C75.6227 22.1753 75.5209 22.2035 75.3822 22.2035H74.3487L75.5707 19.5515L72.8667 13.37H74.0822C74.1992 13.37 74.2881 13.3982 74.3487 13.4545C74.4137 13.5065 74.4614 13.5693 74.4917 13.643L76.0712 17.4065C76.1102 17.5148 76.1449 17.6232 76.1752 17.7315C76.2099 17.8355 76.2424 17.9438 76.2727 18.0565C76.3074 17.9438 76.3421 17.8333 76.3767 17.725C76.4114 17.6167 76.4504 17.5083 76.4937 17.4L78.0082 13.643C78.0386 13.565 78.0884 13.5 78.1577 13.448C78.2314 13.396 78.3116 13.37 78.3982 13.37H79.5162ZM88.8653 13.37L86.2003 20H84.9393L82.2743 13.37H83.4248C83.5331 13.37 83.6219 13.3982 83.6913 13.4545C83.7649 13.5065 83.8126 13.5693 83.8343 13.643L85.3033 17.504C85.3639 17.686 85.4181 17.8658 85.4658 18.0435C85.5134 18.2212 85.5546 18.401 85.5893 18.583C85.6239 18.401 85.6651 18.2233 85.7128 18.05C85.7648 17.8723 85.8211 17.6903 85.8818 17.504L87.3768 13.643C87.4028 13.565 87.4504 13.5 87.5198 13.448C87.5891 13.396 87.6736 13.37 87.7733 13.37H88.8653ZM91.2763 13.37V20H89.8788V13.37H91.2763ZM91.5103 11.368C91.5103 11.4937 91.4843 11.6128 91.4323 11.7255C91.3846 11.8382 91.3174 11.9378 91.2308 12.0245C91.1441 12.1068 91.0423 12.174 90.9253 12.226C90.8126 12.2737 90.6913 12.2975 90.5613 12.2975C90.4356 12.2975 90.3164 12.2737 90.2038 12.226C90.0954 12.174 90.0001 12.1068 89.9178 12.0245C89.8354 11.9378 89.7683 11.8382 89.7163 11.7255C89.6686 11.6128 89.6448 11.4937 89.6448 11.368C89.6448 11.238 89.6686 11.1167 89.7163 11.004C89.7683 10.8913 89.8354 10.7938 89.9178 10.7115C90.0001 10.6248 90.0954 10.5577 90.2038 10.51C90.3164 10.458 90.4356 10.432 90.5613 10.432C90.6913 10.432 90.8126 10.458 90.9253 10.51C91.0423 10.5577 91.1441 10.6248 91.2308 10.7115C91.3174 10.7938 91.3846 10.8913 91.4323 11.004C91.4843 11.1167 91.5103 11.238 91.5103 11.368ZM96.9907 14.5725C96.956 14.6332 96.917 14.6765 96.8737 14.7025C96.8303 14.7285 96.7762 14.7415 96.7112 14.7415C96.6375 14.7415 96.5573 14.7198 96.4707 14.6765C96.384 14.6288 96.2822 14.5768 96.1652 14.5205C96.0482 14.4642 95.9095 14.4143 95.7492 14.371C95.5932 14.3233 95.409 14.2995 95.1967 14.2995C95.0233 14.2995 94.8652 14.3212 94.7222 14.3645C94.5835 14.4035 94.4643 14.462 94.3647 14.54C94.2693 14.6137 94.1957 14.7025 94.1437 14.8065C94.0917 14.9062 94.0657 15.0145 94.0657 15.1315C94.0657 15.2875 94.1133 15.4175 94.2087 15.5215C94.304 15.6255 94.4297 15.7165 94.5857 15.7945C94.7417 15.8682 94.9193 15.9353 95.1187 15.996C95.318 16.0567 95.5217 16.1217 95.7297 16.191C95.9377 16.2603 96.1413 16.3405 96.3407 16.4315C96.54 16.5225 96.7177 16.6352 96.8737 16.7695C97.0297 16.8995 97.1553 17.0598 97.2507 17.2505C97.346 17.4368 97.3937 17.6643 97.3937 17.933C97.3937 18.245 97.3373 18.5332 97.2247 18.7975C97.112 19.0618 96.9473 19.2915 96.7307 19.4865C96.514 19.6815 96.2432 19.8332 95.9182 19.9415C95.5975 20.0498 95.2292 20.104 94.8132 20.104C94.5835 20.104 94.3603 20.0823 94.1437 20.039C93.9313 20 93.7277 19.9458 93.5327 19.8765C93.342 19.8028 93.1622 19.7162 92.9932 19.6165C92.8285 19.5168 92.6812 19.4085 92.5512 19.2915L92.8762 18.7585C92.9152 18.6935 92.9628 18.6437 93.0192 18.609C93.0798 18.57 93.1535 18.5505 93.2402 18.5505C93.3312 18.5505 93.42 18.5808 93.5067 18.6415C93.5977 18.6978 93.7017 18.7607 93.8187 18.83C93.94 18.8993 94.0852 18.9643 94.2542 19.025C94.4232 19.0813 94.6333 19.1095 94.8847 19.1095C95.0927 19.1095 95.2725 19.0857 95.4242 19.038C95.5758 18.986 95.7015 18.9167 95.8012 18.83C95.9008 18.7433 95.9745 18.6458 96.0222 18.5375C96.0698 18.4248 96.0937 18.3057 96.0937 18.18C96.0937 18.011 96.046 17.8723 95.9507 17.764C95.8553 17.6557 95.7275 17.5625 95.5672 17.4845C95.4112 17.4065 95.2313 17.3372 95.0277 17.2765C94.8283 17.2158 94.6247 17.1508 94.4167 17.0815C94.2087 17.0122 94.0028 16.932 93.7992 16.841C93.5998 16.75 93.42 16.6352 93.2597 16.4965C93.1037 16.3535 92.978 16.1823 92.8827 15.983C92.7873 15.7793 92.7397 15.5323 92.7397 15.242C92.7397 14.9777 92.7917 14.7263 92.8957 14.488C93.004 14.2497 93.16 14.0395 93.3637 13.8575C93.5717 13.6755 93.8252 13.5325 94.1242 13.4285C94.4275 13.3202 94.7763 13.266 95.1707 13.266C95.617 13.266 96.0222 13.3375 96.3862 13.4805C96.7502 13.6235 97.0557 13.8185 97.3027 14.0655L96.9907 14.5725ZM100.163 13.37V20H98.7655V13.37H100.163ZM100.397 11.368C100.397 11.4937 100.371 11.6128 100.319 11.7255C100.271 11.8382 100.204 11.9378 100.117 12.0245C100.031 12.1068 99.929 12.174 99.812 12.226C99.6993 12.2737 99.578 12.2975 99.448 12.2975C99.3223 12.2975 99.2031 12.2737 99.0905 12.226C98.9821 12.174 98.8868 12.1068 98.8045 12.0245C98.7221 11.9378 98.655 11.8382 98.603 11.7255C98.5553 11.6128 98.5315 11.4937 98.5315 11.368C98.5315 11.238 98.5553 11.1167 98.603 11.004C98.655 10.8913 98.7221 10.7938 98.8045 10.7115C98.8868 10.6248 98.9821 10.5577 99.0905 10.51C99.2031 10.458 99.3223 10.432 99.448 10.432C99.578 10.432 99.6993 10.458 99.812 10.51C99.929 10.5577 100.031 10.6248 100.117 10.7115C100.204 10.7938 100.271 10.8913 100.319 11.004C100.371 11.1167 100.397 11.238 100.397 11.368ZM103.316 18.336C103.511 18.5873 103.724 18.765 103.953 18.869C104.187 18.9687 104.441 19.0185 104.714 19.0185C105.264 19.0185 105.693 18.8192 106.001 18.4205C106.309 18.0218 106.462 17.4043 106.462 16.568C106.462 15.8053 106.328 15.2485 106.059 14.8975C105.795 14.5465 105.416 14.371 104.922 14.371C104.58 14.371 104.281 14.449 104.025 14.605C103.774 14.7567 103.537 14.9755 103.316 15.2615V18.336ZM103.316 14.2475C103.589 13.9485 103.895 13.7102 104.233 13.5325C104.571 13.3548 104.957 13.266 105.39 13.266C105.776 13.266 106.122 13.3418 106.43 13.4935C106.742 13.6408 107.006 13.8553 107.223 14.137C107.44 14.4187 107.606 14.761 107.723 15.164C107.84 15.5627 107.899 16.0133 107.899 16.516C107.899 17.0533 107.832 17.543 107.697 17.985C107.567 18.4227 107.379 18.7997 107.132 19.116C106.885 19.428 106.586 19.6707 106.235 19.844C105.884 20.013 105.492 20.0975 105.058 20.0975C104.846 20.0975 104.653 20.0758 104.48 20.0325C104.307 19.9935 104.146 19.935 103.999 19.857C103.852 19.779 103.715 19.6858 103.589 19.5775C103.468 19.4692 103.351 19.3457 103.238 19.207L103.18 19.7205C103.158 19.8202 103.119 19.8917 103.063 19.935C103.007 19.9783 102.929 20 102.829 20H101.919V10.38H103.316V14.2475ZM110.68 10.38V20H109.283V10.38H110.68ZM116.754 15.9375C116.754 15.7035 116.719 15.4868 116.65 15.2875C116.585 15.0838 116.487 14.9083 116.357 14.761C116.227 14.6093 116.065 14.4923 115.87 14.41C115.679 14.3233 115.458 14.28 115.207 14.28C114.7 14.28 114.301 14.4252 114.011 14.7155C113.72 15.0058 113.536 15.4132 113.458 15.9375H116.754ZM113.419 16.7955C113.437 17.1725 113.495 17.4997 113.595 17.777C113.694 18.05 113.827 18.2775 113.991 18.4595C114.16 18.6415 114.36 18.778 114.589 18.869C114.823 18.9557 115.083 18.999 115.369 18.999C115.642 18.999 115.878 18.9687 116.078 18.908C116.277 18.843 116.45 18.7737 116.598 18.7C116.745 18.622 116.871 18.5527 116.975 18.492C117.079 18.427 117.174 18.3945 117.261 18.3945C117.373 18.3945 117.46 18.4378 117.521 18.5245L117.917 19.038C117.753 19.233 117.566 19.3977 117.358 19.532C117.15 19.6663 116.929 19.7768 116.695 19.8635C116.461 19.9458 116.221 20.0043 115.974 20.039C115.727 20.078 115.486 20.0975 115.252 20.0975C114.793 20.0975 114.366 20.0217 113.972 19.87C113.582 19.714 113.242 19.4865 112.951 19.1875C112.665 18.8885 112.44 18.518 112.275 18.076C112.115 17.634 112.035 17.1248 112.035 16.5485C112.035 16.0892 112.106 15.6602 112.249 15.2615C112.397 14.8628 112.605 14.5162 112.873 14.2215C113.146 13.9268 113.476 13.695 113.861 13.526C114.251 13.3527 114.691 13.266 115.181 13.266C115.588 13.266 115.965 13.3332 116.312 13.4675C116.658 13.5975 116.957 13.7903 117.209 14.046C117.46 14.3017 117.655 14.6158 117.794 14.9885C117.937 15.3568 118.008 15.7772 118.008 16.2495C118.008 16.4662 117.984 16.6113 117.937 16.685C117.889 16.7587 117.802 16.7955 117.677 16.7955H113.419ZM124.674 20.104C124.124 20.104 123.699 19.9502 123.4 19.6425C123.106 19.3305 122.958 18.8928 122.958 18.3295V14.4685H122.23C122.152 14.4685 122.085 14.4447 122.029 14.397C121.972 14.345 121.944 14.2692 121.944 14.1695V13.604L123.017 13.448L123.322 11.5305C123.344 11.4568 123.381 11.3983 123.433 11.355C123.485 11.3073 123.554 11.2835 123.641 11.2835H124.356V13.461H126.195V14.4685H124.356V18.232C124.356 18.4703 124.414 18.6523 124.531 18.778C124.648 18.9037 124.804 18.9665 124.999 18.9665C125.108 18.9665 125.201 18.9535 125.279 18.9275C125.357 18.8972 125.424 18.8668 125.48 18.8365C125.537 18.8018 125.584 18.7715 125.623 18.7455C125.667 18.7152 125.708 18.7 125.747 18.7C125.825 18.7 125.888 18.7433 125.935 18.83L126.351 19.5125C126.135 19.7032 125.879 19.8505 125.584 19.9545C125.29 20.0542 124.986 20.104 124.674 20.104ZM130.113 13.266C130.602 13.266 131.044 13.3462 131.439 13.5065C131.837 13.6668 132.175 13.8943 132.453 14.189C132.734 14.4837 132.951 14.8412 133.103 15.2615C133.254 15.6818 133.33 16.1542 133.33 16.6785C133.33 17.2028 133.254 17.6752 133.103 18.0955C132.951 18.5158 132.734 18.8755 132.453 19.1745C132.175 19.4692 131.837 19.6967 131.439 19.857C131.044 20.0173 130.602 20.0975 130.113 20.0975C129.619 20.0975 129.172 20.0173 128.774 19.857C128.379 19.6967 128.041 19.4692 127.76 19.1745C127.478 18.8755 127.261 18.5158 127.11 18.0955C126.958 17.6752 126.882 17.2028 126.882 16.6785C126.882 16.1542 126.958 15.6818 127.11 15.2615C127.261 14.8412 127.478 14.4837 127.76 14.189C128.041 13.8943 128.379 13.6668 128.774 13.5065C129.172 13.3462 129.619 13.266 130.113 13.266ZM130.113 19.0055C130.711 19.0055 131.155 18.8062 131.445 18.4075C131.74 18.0045 131.887 17.4303 131.887 16.685C131.887 15.9397 131.74 15.3655 131.445 14.9625C131.155 14.5552 130.711 14.3515 130.113 14.3515C129.506 14.3515 129.055 14.5552 128.761 14.9625C128.466 15.3655 128.319 15.9397 128.319 16.685C128.319 17.4303 128.466 18.0045 128.761 18.4075C129.055 18.8062 129.506 19.0055 130.113 19.0055ZM143.463 13.37L139.81 21.885C139.762 21.9847 139.703 22.0627 139.634 22.119C139.569 22.1753 139.467 22.2035 139.329 22.2035H138.295L139.517 19.5515L136.813 13.37H138.029C138.146 13.37 138.234 13.3982 138.295 13.4545C138.36 13.5065 138.408 13.5693 138.438 13.643L140.018 17.4065C140.057 17.5148 140.091 17.6232 140.122 17.7315C140.156 17.8355 140.189 17.9438 140.219 18.0565C140.254 17.9438 140.288 17.8333 140.323 17.725C140.358 17.6167 140.397 17.5083 140.44 17.4L141.955 13.643C141.985 13.565 142.035 13.5 142.104 13.448C142.178 13.396 142.258 13.37 142.345 13.37H143.463ZM147.048 13.266C147.538 13.266 147.98 13.3462 148.374 13.5065C148.773 13.6668 149.111 13.8943 149.388 14.189C149.67 14.4837 149.886 14.8412 150.038 15.2615C150.19 15.6818 150.266 16.1542 150.266 16.6785C150.266 17.2028 150.19 17.6752 150.038 18.0955C149.886 18.5158 149.67 18.8755 149.388 19.1745C149.111 19.4692 148.773 19.6967 148.374 19.857C147.98 20.0173 147.538 20.0975 147.048 20.0975C146.554 20.0975 146.108 20.0173 145.709 19.857C145.315 19.6967 144.977 19.4692 144.695 19.1745C144.413 18.8755 144.197 18.5158 144.045 18.0955C143.893 17.6752 143.818 17.2028 143.818 16.6785C143.818 16.1542 143.893 15.6818 144.045 15.2615C144.197 14.8412 144.413 14.4837 144.695 14.189C144.977 13.8943 145.315 13.6668 145.709 13.5065C146.108 13.3462 146.554 13.266 147.048 13.266ZM147.048 19.0055C147.646 19.0055 148.09 18.8062 148.381 18.4075C148.675 18.0045 148.823 17.4303 148.823 16.685C148.823 15.9397 148.675 15.3655 148.381 14.9625C148.09 14.5552 147.646 14.3515 147.048 14.3515C146.441 14.3515 145.991 14.5552 145.696 14.9625C145.401 15.3655 145.254 15.9397 145.254 16.685C145.254 17.4303 145.401 18.0045 145.696 18.4075C145.991 18.8062 146.441 19.0055 147.048 19.0055ZM157.198 13.37V20H156.353C156.167 20 156.048 19.9112 155.996 19.7335L155.892 19.116C155.753 19.2633 155.606 19.3977 155.45 19.519C155.298 19.6403 155.136 19.7443 154.962 19.831C154.789 19.9177 154.603 19.9848 154.403 20.0325C154.208 20.0802 153.998 20.104 153.773 20.104C153.409 20.104 153.088 20.0433 152.811 19.922C152.534 19.8007 152.3 19.6295 152.109 19.4085C151.923 19.1875 151.782 18.9232 151.686 18.6155C151.591 18.3035 151.543 17.9612 151.543 17.5885V13.37H152.941V17.5885C152.941 18.0348 153.043 18.3815 153.246 18.6285C153.454 18.8755 153.769 18.999 154.189 18.999C154.497 18.999 154.783 18.9297 155.047 18.791C155.316 18.648 155.567 18.453 155.801 18.206V13.37H157.198Z" fill="#BBBBBB"/>
<path d="M60.7825 40.5925C60.8775 40.5925 60.96 40.63 61.03 40.705L61.7275 41.4625C61.2875 41.9925 60.7475 42.4025 60.1075 42.6925C59.4675 42.9775 58.7025 43.12 57.8125 43.12C57.0225 43.12 56.3075 42.985 55.6675 42.715C55.0325 42.44 54.49 42.06 54.04 41.575C53.59 41.085 53.2425 40.5025 52.9975 39.8275C52.7575 39.1525 52.6375 38.41 52.6375 37.6C52.6375 36.79 52.765 36.0475 53.02 35.3725C53.28 34.6925 53.6425 34.11 54.1075 33.625C54.5775 33.135 55.1375 32.755 55.7875 32.485C56.4425 32.215 57.1625 32.08 57.9475 32.08C58.7275 32.08 59.415 32.2075 60.01 32.4625C60.61 32.7125 61.13 33.0475 61.57 33.4675L60.9925 34.285C60.9525 34.34 60.905 34.3875 60.85 34.4275C60.795 34.4675 60.72 34.4875 60.625 34.4875C60.525 34.4875 60.41 34.4425 60.28 34.3525C60.155 34.2575 59.9925 34.155 59.7925 34.045C59.5975 33.93 59.35 33.8275 59.05 33.7375C58.755 33.6425 58.385 33.595 57.94 33.595C57.425 33.595 56.9525 33.685 56.5225 33.865C56.0925 34.045 55.7225 34.3075 55.4125 34.6525C55.1025 34.9975 54.86 35.4175 54.685 35.9125C54.515 36.4075 54.43 36.97 54.43 37.6C54.43 38.235 54.52 38.8025 54.7 39.3025C54.88 39.7975 55.1275 40.2175 55.4425 40.5625C55.7575 40.9025 56.1275 41.1625 56.5525 41.3425C56.9775 41.5225 57.435 41.6125 57.925 41.6125C58.225 41.6125 58.4925 41.5975 58.7275 41.5675C58.9675 41.5325 59.1875 41.48 59.3875 41.41C59.5875 41.335 59.775 41.2425 59.95 41.1325C60.13 41.0225 60.3075 40.8875 60.4825 40.7275C60.5825 40.6375 60.6825 40.5925 60.7825 40.5925ZM64.5859 31.9V43H62.9734V31.9H64.5859ZM68.2563 35.35V43H66.6438V35.35H68.2563ZM68.5263 33.04C68.5263 33.185 68.4963 33.3225 68.4363 33.4525C68.3813 33.5825 68.3038 33.6975 68.2038 33.7975C68.1038 33.8925 67.9863 33.97 67.8513 34.03C67.7213 34.085 67.5813 34.1125 67.4313 34.1125C67.2863 34.1125 67.1488 34.085 67.0188 34.03C66.8938 33.97 66.7838 33.8925 66.6888 33.7975C66.5938 33.6975 66.5163 33.5825 66.4563 33.4525C66.4013 33.3225 66.3738 33.185 66.3738 33.04C66.3738 32.89 66.4013 32.75 66.4563 32.62C66.5163 32.49 66.5938 32.3775 66.6888 32.2825C66.7838 32.1825 66.8938 32.105 67.0188 32.05C67.1488 31.99 67.2863 31.96 67.4313 31.96C67.5813 31.96 67.7213 31.99 67.8513 32.05C67.9863 32.105 68.1038 32.1825 68.2038 32.2825C68.3038 32.3775 68.3813 32.49 68.4363 32.62C68.4963 32.75 68.5263 32.89 68.5263 33.04ZM75.6898 36.85C75.6398 36.915 75.5923 36.965 75.5473 37C75.5023 37.035 75.4373 37.0525 75.3523 37.0525C75.2673 37.0525 75.1773 37.0225 75.0823 36.9625C74.9923 36.9025 74.8823 36.8375 74.7523 36.7675C74.6273 36.6925 74.4748 36.625 74.2948 36.565C74.1148 36.505 73.8898 36.475 73.6198 36.475C73.2698 36.475 72.9623 36.5375 72.6973 36.6625C72.4373 36.7875 72.2173 36.9675 72.0373 37.2025C71.8623 37.4325 71.7298 37.715 71.6398 38.05C71.5548 38.38 71.5123 38.7525 71.5123 39.1675C71.5123 39.5975 71.5598 39.98 71.6548 40.315C71.7498 40.65 71.8848 40.9325 72.0598 41.1625C72.2398 41.3925 72.4548 41.5675 72.7048 41.6875C72.9598 41.8075 73.2448 41.8675 73.5598 41.8675C73.8698 41.8675 74.1223 41.83 74.3173 41.755C74.5123 41.68 74.6748 41.5975 74.8048 41.5075C74.9348 41.4175 75.0448 41.335 75.1348 41.26C75.2298 41.185 75.3298 41.1475 75.4348 41.1475C75.5648 41.1475 75.6648 41.1975 75.7348 41.2975L76.1923 41.89C76.0073 42.115 75.8023 42.305 75.5773 42.46C75.3523 42.615 75.1148 42.7425 74.8648 42.8425C74.6148 42.9375 74.3548 43.005 74.0848 43.045C73.8148 43.09 73.5423 43.1125 73.2673 43.1125C72.7923 43.1125 72.3473 43.025 71.9323 42.85C71.5223 42.67 71.1623 42.4125 70.8523 42.0775C70.5473 41.7375 70.3048 41.325 70.1248 40.84C69.9498 40.35 69.8623 39.7925 69.8623 39.1675C69.8623 38.6025 69.9423 38.08 70.1023 37.6C70.2623 37.115 70.4948 36.6975 70.7998 36.3475C71.1098 35.9975 71.4923 35.725 71.9473 35.53C72.4023 35.33 72.9273 35.23 73.5223 35.23C74.0773 35.23 74.5648 35.32 74.9848 35.5C75.4098 35.68 75.7873 35.935 76.1173 36.265L75.6898 36.85ZM79.1018 31.9V38.335H79.4468C79.5568 38.335 79.6468 38.32 79.7168 38.29C79.7868 38.26 79.8593 38.1975 79.9343 38.1025L82.0793 35.65C82.1543 35.55 82.2368 35.475 82.3268 35.425C82.4168 35.375 82.5318 35.35 82.6718 35.35H84.1343L81.5543 38.26C81.4043 38.455 81.2393 38.61 81.0593 38.725C81.1593 38.795 81.2468 38.875 81.3218 38.965C81.3968 39.05 81.4693 39.1475 81.5393 39.2575L84.2918 43H82.8518C82.7218 43 82.6093 42.98 82.5143 42.94C82.4243 42.895 82.3443 42.815 82.2743 42.7L80.0618 39.7C79.9868 39.585 79.9118 39.5125 79.8368 39.4825C79.7618 39.4475 79.6493 39.43 79.4993 39.43H79.1018V43H77.4893V31.9H79.1018ZM91.5141 43.12C90.8791 43.12 90.3891 42.9425 90.0441 42.5875C89.7041 42.2275 89.5341 41.7225 89.5341 41.0725V36.6175H88.6941C88.6041 36.6175 88.5266 36.59 88.4616 36.535C88.3966 36.475 88.3641 36.3875 88.3641 36.2725V35.62L89.6016 35.44L89.9541 33.2275C89.9791 33.1425 90.0216 33.075 90.0816 33.025C90.1416 32.97 90.2216 32.9425 90.3216 32.9425H91.1466V35.455H93.2691V36.6175H91.1466V40.96C91.1466 41.235 91.2141 41.445 91.3491 41.59C91.4841 41.735 91.6641 41.8075 91.8891 41.8075C92.0141 41.8075 92.1216 41.7925 92.2116 41.7625C92.3016 41.7275 92.3791 41.6925 92.4441 41.6575C92.5091 41.6175 92.5641 41.5825 92.6091 41.5525C92.6591 41.5175 92.7066 41.5 92.7516 41.5C92.8416 41.5 92.9141 41.55 92.9691 41.65L93.4491 42.4375C93.1991 42.6575 92.9041 42.8275 92.5641 42.9475C92.2241 43.0625 91.8741 43.12 91.5141 43.12ZM97.789 35.23C98.354 35.23 98.864 35.3225 99.319 35.5075C99.779 35.6925 100.169 35.955 100.489 36.295C100.814 36.635 101.064 37.0475 101.239 37.5325C101.414 38.0175 101.502 38.5625 101.502 39.1675C101.502 39.7725 101.414 40.3175 101.239 40.8025C101.064 41.2875 100.814 41.7025 100.489 42.0475C100.169 42.3875 99.779 42.65 99.319 42.835C98.864 43.02 98.354 43.1125 97.789 43.1125C97.219 43.1125 96.704 43.02 96.244 42.835C95.789 42.65 95.399 42.3875 95.074 42.0475C94.749 41.7025 94.499 41.2875 94.324 40.8025C94.149 40.3175 94.0615 39.7725 94.0615 39.1675C94.0615 38.5625 94.149 38.0175 94.324 37.5325C94.499 37.0475 94.749 36.635 95.074 36.295C95.399 35.955 95.789 35.6925 96.244 35.5075C96.704 35.3225 97.219 35.23 97.789 35.23ZM97.789 41.8525C98.479 41.8525 98.9915 41.6225 99.3265 41.1625C99.6665 40.6975 99.8365 40.035 99.8365 39.175C99.8365 38.315 99.6665 37.6525 99.3265 37.1875C98.9915 36.7175 98.479 36.4825 97.789 36.4825C97.089 36.4825 96.569 36.7175 96.229 37.1875C95.889 37.6525 95.719 38.315 95.719 39.175C95.719 40.035 95.889 40.6975 96.229 41.1625C96.569 41.6225 97.089 41.8525 97.789 41.8525ZM111.354 36.7375C111.314 36.8075 111.269 36.8575 111.219 36.8875C111.169 36.9175 111.106 36.9325 111.031 36.9325C110.946 36.9325 110.854 36.9075 110.754 36.8575C110.654 36.8025 110.536 36.7425 110.401 36.6775C110.266 36.6125 110.106 36.555 109.921 36.505C109.741 36.45 109.529 36.4225 109.284 36.4225C109.084 36.4225 108.901 36.4475 108.736 36.4975C108.576 36.5425 108.439 36.61 108.324 36.7C108.214 36.785 108.129 36.8875 108.069 37.0075C108.009 37.1225 107.979 37.2475 107.979 37.3825C107.979 37.5625 108.034 37.7125 108.144 37.8325C108.254 37.9525 108.399 38.0575 108.579 38.1475C108.759 38.2325 108.964 38.31 109.194 38.38C109.424 38.45 109.659 38.525 109.899 38.605C110.139 38.685 110.374 38.7775 110.604 38.8825C110.834 38.9875 111.039 39.1175 111.219 39.2725C111.399 39.4225 111.544 39.6075 111.654 39.8275C111.764 40.0425 111.819 40.305 111.819 40.615C111.819 40.975 111.754 41.3075 111.624 41.6125C111.494 41.9175 111.304 42.1825 111.054 42.4075C110.804 42.6325 110.491 42.8075 110.116 42.9325C109.746 43.0575 109.321 43.12 108.841 43.12C108.576 43.12 108.319 43.095 108.069 43.045C107.824 43 107.589 42.9375 107.364 42.8575C107.144 42.7725 106.936 42.6725 106.741 42.5575C106.551 42.4425 106.381 42.3175 106.231 42.1825L106.606 41.5675C106.651 41.4925 106.706 41.435 106.771 41.395C106.841 41.35 106.926 41.3275 107.026 41.3275C107.131 41.3275 107.234 41.3625 107.334 41.4325C107.439 41.4975 107.559 41.57 107.694 41.65C107.834 41.73 108.001 41.805 108.196 41.875C108.391 41.94 108.634 41.9725 108.924 41.9725C109.164 41.9725 109.371 41.945 109.546 41.89C109.721 41.83 109.866 41.75 109.981 41.65C110.096 41.55 110.181 41.4375 110.236 41.3125C110.291 41.1825 110.319 41.045 110.319 40.9C110.319 40.705 110.264 40.545 110.154 40.42C110.044 40.295 109.896 40.1875 109.711 40.0975C109.531 40.0075 109.324 39.9275 109.089 39.8575C108.859 39.7875 108.624 39.7125 108.384 39.6325C108.144 39.5525 107.906 39.46 107.671 39.355C107.441 39.25 107.234 39.1175 107.049 38.9575C106.869 38.7925 106.724 38.595 106.614 38.365C106.504 38.13 106.449 37.845 106.449 37.51C106.449 37.205 106.509 36.915 106.629 36.64C106.754 36.365 106.934 36.1225 107.169 35.9125C107.409 35.7025 107.701 35.5375 108.046 35.4175C108.396 35.2925 108.799 35.23 109.254 35.23C109.769 35.23 110.236 35.3125 110.656 35.4775C111.076 35.6425 111.429 35.8675 111.714 36.1525L111.354 36.7375ZM118.352 38.3125C118.352 38.0425 118.312 37.7925 118.232 37.5625C118.157 37.3275 118.044 37.125 117.894 36.955C117.744 36.78 117.557 36.645 117.332 36.55C117.112 36.45 116.857 36.4 116.567 36.4C115.982 36.4 115.522 36.5675 115.187 36.9025C114.852 37.2375 114.639 37.7075 114.549 38.3125H118.352ZM114.504 39.3025C114.524 39.7375 114.592 40.115 114.707 40.435C114.822 40.75 114.974 41.0125 115.164 41.2225C115.359 41.4325 115.589 41.59 115.854 41.695C116.124 41.795 116.424 41.845 116.754 41.845C117.069 41.845 117.342 41.81 117.572 41.74C117.802 41.665 118.002 41.585 118.172 41.5C118.342 41.41 118.487 41.33 118.607 41.26C118.727 41.185 118.837 41.1475 118.937 41.1475C119.067 41.1475 119.167 41.1975 119.237 41.2975L119.694 41.89C119.504 42.115 119.289 42.305 119.049 42.46C118.809 42.615 118.554 42.7425 118.284 42.8425C118.014 42.9375 117.737 43.005 117.452 43.045C117.167 43.09 116.889 43.1125 116.619 43.1125C116.089 43.1125 115.597 43.025 115.142 42.85C114.692 42.67 114.299 42.4075 113.964 42.0625C113.634 41.7175 113.374 41.29 113.184 40.78C112.999 40.27 112.907 39.6825 112.907 39.0175C112.907 38.4875 112.989 37.9925 113.154 37.5325C113.324 37.0725 113.564 36.6725 113.874 36.3325C114.189 35.9925 114.569 35.725 115.014 35.53C115.464 35.33 115.972 35.23 116.537 35.23C117.007 35.23 117.442 35.3075 117.842 35.4625C118.242 35.6125 118.587 35.835 118.877 36.13C119.167 36.425 119.392 36.7875 119.552 37.2175C119.717 37.6425 119.799 38.1275 119.799 38.6725C119.799 38.9225 119.772 39.09 119.717 39.175C119.662 39.26 119.562 39.3025 119.417 39.3025H114.504ZM122.945 31.9V43H121.333V31.9H122.945ZM129.953 38.3125C129.953 38.0425 129.913 37.7925 129.833 37.5625C129.758 37.3275 129.646 37.125 129.496 36.955C129.346 36.78 129.158 36.645 128.933 36.55C128.713 36.45 128.458 36.4 128.168 36.4C127.583 36.4 127.123 36.5675 126.788 36.9025C126.453 37.2375 126.241 37.7075 126.151 38.3125H129.953ZM126.106 39.3025C126.126 39.7375 126.193 40.115 126.308 40.435C126.423 40.75 126.576 41.0125 126.766 41.2225C126.961 41.4325 127.191 41.59 127.456 41.695C127.726 41.795 128.026 41.845 128.356 41.845C128.671 41.845 128.943 41.81 129.173 41.74C129.403 41.665 129.603 41.585 129.773 41.5C129.943 41.41 130.088 41.33 130.208 41.26C130.328 41.185 130.438 41.1475 130.538 41.1475C130.668 41.1475 130.768 41.1975 130.838 41.2975L131.296 41.89C131.106 42.115 130.891 42.305 130.651 42.46C130.411 42.615 130.156 42.7425 129.886 42.8425C129.616 42.9375 129.338 43.005 129.053 43.045C128.768 43.09 128.491 43.1125 128.221 43.1125C127.691 43.1125 127.198 43.025 126.743 42.85C126.293 42.67 125.901 42.4075 125.566 42.0625C125.236 41.7175 124.976 41.29 124.786 40.78C124.601 40.27 124.508 39.6825 124.508 39.0175C124.508 38.4875 124.591 37.9925 124.756 37.5325C124.926 37.0725 125.166 36.6725 125.476 36.3325C125.791 35.9925 126.171 35.725 126.616 35.53C127.066 35.33 127.573 35.23 128.138 35.23C128.608 35.23 129.043 35.3075 129.443 35.4625C129.843 35.6125 130.188 35.835 130.478 36.13C130.768 36.425 130.993 36.7875 131.153 37.2175C131.318 37.6425 131.401 38.1275 131.401 38.6725C131.401 38.9225 131.373 39.09 131.318 39.175C131.263 39.26 131.163 39.3025 131.018 39.3025H126.106ZM138.312 36.85C138.262 36.915 138.214 36.965 138.169 37C138.124 37.035 138.059 37.0525 137.974 37.0525C137.889 37.0525 137.799 37.0225 137.704 36.9625C137.614 36.9025 137.504 36.8375 137.374 36.7675C137.249 36.6925 137.097 36.625 136.917 36.565C136.737 36.505 136.512 36.475 136.242 36.475C135.892 36.475 135.584 36.5375 135.319 36.6625C135.059 36.7875 134.839 36.9675 134.659 37.2025C134.484 37.4325 134.352 37.715 134.262 38.05C134.177 38.38 134.134 38.7525 134.134 39.1675C134.134 39.5975 134.182 39.98 134.277 40.315C134.372 40.65 134.507 40.9325 134.682 41.1625C134.862 41.3925 135.077 41.5675 135.327 41.6875C135.582 41.8075 135.867 41.8675 136.182 41.8675C136.492 41.8675 136.744 41.83 136.939 41.755C137.134 41.68 137.297 41.5975 137.427 41.5075C137.557 41.4175 137.667 41.335 137.757 41.26C137.852 41.185 137.952 41.1475 138.057 41.1475C138.187 41.1475 138.287 41.1975 138.357 41.2975L138.814 41.89C138.629 42.115 138.424 42.305 138.199 42.46C137.974 42.615 137.737 42.7425 137.487 42.8425C137.237 42.9375 136.977 43.005 136.707 43.045C136.437 43.09 136.164 43.1125 135.889 43.1125C135.414 43.1125 134.969 43.025 134.554 42.85C134.144 42.67 133.784 42.4125 133.474 42.0775C133.169 41.7375 132.927 41.325 132.747 40.84C132.572 40.35 132.484 39.7925 132.484 39.1675C132.484 38.6025 132.564 38.08 132.724 37.6C132.884 37.115 133.117 36.6975 133.422 36.3475C133.732 35.9975 134.114 35.725 134.569 35.53C135.024 35.33 135.549 35.23 136.144 35.23C136.699 35.23 137.187 35.32 137.607 35.5C138.032 35.68 138.409 35.935 138.739 36.265L138.312 36.85ZM142.564 43.12C141.929 43.12 141.439 42.9425 141.094 42.5875C140.754 42.2275 140.584 41.7225 140.584 41.0725V36.6175H139.744C139.654 36.6175 139.576 36.59 139.511 36.535C139.446 36.475 139.414 36.3875 139.414 36.2725V35.62L140.651 35.44L141.004 33.2275C141.029 33.1425 141.071 33.075 141.131 33.025C141.191 32.97 141.271 32.9425 141.371 32.9425H142.196V35.455H144.319V36.6175H142.196V40.96C142.196 41.235 142.264 41.445 142.399 41.59C142.534 41.735 142.714 41.8075 142.939 41.8075C143.064 41.8075 143.171 41.7925 143.261 41.7625C143.351 41.7275 143.429 41.6925 143.494 41.6575C143.559 41.6175 143.614 41.5825 143.659 41.5525C143.709 41.5175 143.756 41.5 143.801 41.5C143.891 41.5 143.964 41.55 144.019 41.65L144.499 42.4375C144.249 42.6575 143.954 42.8275 143.614 42.9475C143.274 43.0625 142.924 43.12 142.564 43.12ZM159.765 35.35L157.313 43H156.03C155.88 43 155.775 42.9025 155.715 42.7075L154.193 37.945C154.153 37.81 154.115 37.675 154.08 37.54C154.05 37.405 154.023 37.2725 153.998 37.1425C153.943 37.4125 153.875 37.6825 153.795 37.9525L152.25 42.7075C152.195 42.9025 152.078 43 151.898 43H150.675L148.223 35.35H149.498C149.623 35.35 149.725 35.3825 149.805 35.4475C149.89 35.5075 149.945 35.58 149.97 35.665L151.245 40.12C151.295 40.325 151.338 40.525 151.373 40.72C151.413 40.91 151.448 41.1 151.478 41.29C151.528 41.1 151.58 40.91 151.635 40.72C151.69 40.525 151.748 40.325 151.808 40.12L153.24 35.6425C153.265 35.5525 153.315 35.48 153.39 35.425C153.47 35.365 153.565 35.335 153.675 35.335H154.38C154.495 35.335 154.593 35.365 154.673 35.425C154.753 35.48 154.805 35.5525 154.83 35.6425L156.225 40.12C156.285 40.325 156.34 40.525 156.39 40.72C156.445 40.915 156.495 41.11 156.54 41.305C156.575 41.115 156.613 40.9225 156.653 40.7275C156.693 40.5325 156.74 40.33 156.795 40.12L158.093 35.665C158.123 35.575 158.178 35.5 158.258 35.44C158.338 35.38 158.435 35.35 158.55 35.35H159.765ZM162.554 36.2575C162.869 35.9475 163.214 35.7 163.589 35.515C163.964 35.325 164.401 35.23 164.901 35.23C165.321 35.23 165.689 35.3 166.004 35.44C166.324 35.58 166.591 35.7775 166.806 36.0325C167.026 36.2875 167.191 36.595 167.301 36.955C167.411 37.31 167.466 37.7025 167.466 38.1325V43H165.861V38.1325C165.861 37.6175 165.741 37.2175 165.501 36.9325C165.266 36.6475 164.906 36.505 164.421 36.505C164.061 36.505 163.726 36.5875 163.416 36.7525C163.111 36.9175 162.824 37.1425 162.554 37.4275V43H160.941V31.9H162.554V36.2575ZM171.03 35.35V43H169.417V35.35H171.03ZM171.3 33.04C171.3 33.185 171.27 33.3225 171.21 33.4525C171.155 33.5825 171.077 33.6975 170.977 33.7975C170.877 33.8925 170.76 33.97 170.625 34.03C170.495 34.085 170.355 34.1125 170.205 34.1125C170.06 34.1125 169.922 34.085 169.792 34.03C169.667 33.97 169.557 33.8925 169.462 33.7975C169.367 33.6975 169.29 33.5825 169.23 33.4525C169.175 33.3225 169.147 33.185 169.147 33.04C169.147 32.89 169.175 32.75 169.23 32.62C169.29 32.49 169.367 32.3775 169.462 32.2825C169.557 32.1825 169.667 32.105 169.792 32.05C169.922 31.99 170.06 31.96 170.205 31.96C170.355 31.96 170.495 31.99 170.625 32.05C170.76 32.105 170.877 32.1825 170.977 32.2825C171.077 32.3775 171.155 32.49 171.21 32.62C171.27 32.75 171.3 32.89 171.3 33.04ZM178.463 36.85C178.413 36.915 178.366 36.965 178.321 37C178.276 37.035 178.211 37.0525 178.126 37.0525C178.041 37.0525 177.951 37.0225 177.856 36.9625C177.766 36.9025 177.656 36.8375 177.526 36.7675C177.401 36.6925 177.248 36.625 177.068 36.565C176.888 36.505 176.663 36.475 176.393 36.475C176.043 36.475 175.736 36.5375 175.471 36.6625C175.211 36.7875 174.991 36.9675 174.811 37.2025C174.636 37.4325 174.503 37.715 174.413 38.05C174.328 38.38 174.286 38.7525 174.286 39.1675C174.286 39.5975 174.333 39.98 174.428 40.315C174.523 40.65 174.658 40.9325 174.833 41.1625C175.013 41.3925 175.228 41.5675 175.478 41.6875C175.733 41.8075 176.018 41.8675 176.333 41.8675C176.643 41.8675 176.896 41.83 177.091 41.755C177.286 41.68 177.448 41.5975 177.578 41.5075C177.708 41.4175 177.818 41.335 177.908 41.26C178.003 41.185 178.103 41.1475 178.208 41.1475C178.338 41.1475 178.438 41.1975 178.508 41.2975L178.966 41.89C178.781 42.115 178.576 42.305 178.351 42.46C178.126 42.615 177.888 42.7425 177.638 42.8425C177.388 42.9375 177.128 43.005 176.858 43.045C176.588 43.09 176.316 43.1125 176.041 43.1125C175.566 43.1125 175.121 43.025 174.706 42.85C174.296 42.67 173.936 42.4125 173.626 42.0775C173.321 41.7375 173.078 41.325 172.898 40.84C172.723 40.35 172.636 39.7925 172.636 39.1675C172.636 38.6025 172.716 38.08 172.876 37.6C173.036 37.115 173.268 36.6975 173.573 36.3475C173.883 35.9975 174.266 35.725 174.721 35.53C175.176 35.33 175.701 35.23 176.296 35.23C176.851 35.23 177.338 35.32 177.758 35.5C178.183 35.68 178.561 35.935 178.891 36.265L178.463 36.85ZM181.875 36.2575C182.19 35.9475 182.535 35.7 182.91 35.515C183.285 35.325 183.723 35.23 184.223 35.23C184.643 35.23 185.01 35.3 185.325 35.44C185.645 35.58 185.913 35.7775 186.128 36.0325C186.348 36.2875 186.513 36.595 186.623 36.955C186.733 37.31 186.788 37.7025 186.788 38.1325V43H185.183V38.1325C185.183 37.6175 185.063 37.2175 184.823 36.9325C184.588 36.6475 184.228 36.505 183.743 36.505C183.383 36.505 183.048 36.5875 182.738 36.7525C182.433 36.9175 182.145 37.1425 181.875 37.4275V43H180.263V31.9H181.875V36.2575ZM192.406 43V35.35H193.381C193.601 35.35 193.741 35.4525 193.801 35.6575L193.906 36.325C194.046 36.165 194.191 36.02 194.341 35.89C194.491 35.755 194.651 35.64 194.821 35.545C194.996 35.445 195.181 35.3675 195.376 35.3125C195.576 35.2575 195.791 35.23 196.021 35.23C196.266 35.23 196.491 35.265 196.696 35.335C196.901 35.405 197.081 35.505 197.236 35.635C197.396 35.765 197.534 35.9225 197.649 36.1075C197.764 36.2925 197.859 36.5 197.934 36.73C198.049 36.465 198.194 36.2375 198.369 36.0475C198.544 35.8575 198.739 35.7025 198.954 35.5825C199.169 35.4625 199.396 35.375 199.636 35.32C199.881 35.26 200.129 35.23 200.379 35.23C200.789 35.23 201.154 35.295 201.474 35.425C201.799 35.555 202.071 35.745 202.291 35.995C202.516 36.24 202.686 36.5425 202.801 36.9025C202.916 37.2625 202.974 37.6725 202.974 38.1325V43H201.361V38.1325C201.361 37.5925 201.244 37.1875 201.009 36.9175C200.779 36.6425 200.436 36.505 199.981 36.505C199.776 36.505 199.584 36.54 199.404 36.61C199.224 36.68 199.066 36.7825 198.931 36.9175C198.796 37.0525 198.689 37.2225 198.609 37.4275C198.534 37.6275 198.496 37.8625 198.496 38.1325V43H196.884V38.1325C196.884 37.5725 196.771 37.1625 196.546 36.9025C196.321 36.6375 195.991 36.505 195.556 36.505C195.256 36.505 194.979 36.5825 194.724 36.7375C194.469 36.8875 194.234 37.095 194.019 37.36V43H192.406ZM208.165 35.23C208.73 35.23 209.24 35.3225 209.695 35.5075C210.155 35.6925 210.545 35.955 210.865 36.295C211.19 36.635 211.44 37.0475 211.615 37.5325C211.79 38.0175 211.878 38.5625 211.878 39.1675C211.878 39.7725 211.79 40.3175 211.615 40.8025C211.44 41.2875 211.19 41.7025 210.865 42.0475C210.545 42.3875 210.155 42.65 209.695 42.835C209.24 43.02 208.73 43.1125 208.165 43.1125C207.595 43.1125 207.08 43.02 206.62 42.835C206.165 42.65 205.775 42.3875 205.45 42.0475C205.125 41.7025 204.875 41.2875 204.7 40.8025C204.525 40.3175 204.438 39.7725 204.438 39.1675C204.438 38.5625 204.525 38.0175 204.7 37.5325C204.875 37.0475 205.125 36.635 205.45 36.295C205.775 35.955 206.165 35.6925 206.62 35.5075C207.08 35.3225 207.595 35.23 208.165 35.23ZM208.165 41.8525C208.855 41.8525 209.368 41.6225 209.703 41.1625C210.043 40.6975 210.213 40.035 210.213 39.175C210.213 38.315 210.043 37.6525 209.703 37.1875C209.368 36.7175 208.855 36.4825 208.165 36.4825C207.465 36.4825 206.945 36.7175 206.605 37.1875C206.265 37.6525 206.095 38.315 206.095 39.175C206.095 40.035 206.265 40.6975 206.605 41.1625C206.945 41.6225 207.465 41.8525 208.165 41.8525ZM214.934 36.3625C215.099 36.1925 215.269 36.04 215.444 35.905C215.624 35.765 215.814 35.645 216.014 35.545C216.214 35.445 216.427 35.3675 216.652 35.3125C216.877 35.2575 217.122 35.23 217.387 35.23C217.807 35.23 218.174 35.3 218.489 35.44C218.809 35.58 219.077 35.7775 219.292 36.0325C219.512 36.2875 219.677 36.595 219.787 36.955C219.897 37.31 219.952 37.7025 219.952 38.1325V43H218.347V38.1325C218.347 37.6175 218.227 37.2175 217.987 36.9325C217.752 36.6475 217.392 36.505 216.907 36.505C216.547 36.505 216.212 36.5875 215.902 36.7525C215.597 36.9175 215.309 37.1425 215.039 37.4275V43H213.427V35.35H214.402C214.622 35.35 214.762 35.4525 214.822 35.6575L214.934 36.3625ZM223.515 35.35V43H221.903V35.35H223.515ZM223.785 33.04C223.785 33.185 223.755 33.3225 223.695 33.4525C223.64 33.5825 223.563 33.6975 223.463 33.7975C223.363 33.8925 223.245 33.97 223.11 34.03C222.98 34.085 222.84 34.1125 222.69 34.1125C222.545 34.1125 222.408 34.085 222.278 34.03C222.153 33.97 222.043 33.8925 221.948 33.7975C221.853 33.6975 221.775 33.5825 221.715 33.4525C221.66 33.3225 221.633 33.185 221.633 33.04C221.633 32.89 221.66 32.75 221.715 32.62C221.775 32.49 221.853 32.3775 221.948 32.2825C222.043 32.1825 222.153 32.105 222.278 32.05C222.408 31.99 222.545 31.96 222.69 31.96C222.84 31.96 222.98 31.99 223.11 32.05C223.245 32.105 223.363 32.1825 223.463 32.2825C223.563 32.3775 223.64 32.49 223.695 32.62C223.755 32.75 223.785 32.89 223.785 33.04ZM227.994 43.12C227.359 43.12 226.869 42.9425 226.524 42.5875C226.184 42.2275 226.014 41.7225 226.014 41.0725V36.6175H225.174C225.084 36.6175 225.006 36.59 224.941 36.535C224.876 36.475 224.844 36.3875 224.844 36.2725V35.62L226.081 35.44L226.434 33.2275C226.459 33.1425 226.501 33.075 226.561 33.025C226.621 32.97 226.701 32.9425 226.801 32.9425H227.626V35.455H229.749V36.6175H227.626V40.96C227.626 41.235 227.694 41.445 227.829 41.59C227.964 41.735 228.144 41.8075 228.369 41.8075C228.494 41.8075 228.601 41.7925 228.691 41.7625C228.781 41.7275 228.859 41.6925 228.924 41.6575C228.989 41.6175 229.044 41.5825 229.089 41.5525C229.139 41.5175 229.186 41.5 229.231 41.5C229.321 41.5 229.394 41.55 229.449 41.65L229.929 42.4375C229.679 42.6575 229.384 42.8275 229.044 42.9475C228.704 43.0625 228.354 43.12 227.994 43.12ZM234.269 35.23C234.834 35.23 235.344 35.3225 235.799 35.5075C236.259 35.6925 236.649 35.955 236.969 36.295C237.294 36.635 237.544 37.0475 237.719 37.5325C237.894 38.0175 237.981 38.5625 237.981 39.1675C237.981 39.7725 237.894 40.3175 237.719 40.8025C237.544 41.2875 237.294 41.7025 236.969 42.0475C236.649 42.3875 236.259 42.65 235.799 42.835C235.344 43.02 234.834 43.1125 234.269 43.1125C233.699 43.1125 233.184 43.02 232.724 42.835C232.269 42.65 231.879 42.3875 231.554 42.0475C231.229 41.7025 230.979 41.2875 230.804 40.8025C230.629 40.3175 230.541 39.7725 230.541 39.1675C230.541 38.5625 230.629 38.0175 230.804 37.5325C230.979 37.0475 231.229 36.635 231.554 36.295C231.879 35.955 232.269 35.6925 232.724 35.5075C233.184 35.3225 233.699 35.23 234.269 35.23ZM234.269 41.8525C234.959 41.8525 235.471 41.6225 235.806 41.1625C236.146 40.6975 236.316 40.035 236.316 39.175C236.316 38.315 236.146 37.6525 235.806 37.1875C235.471 36.7175 234.959 36.4825 234.269 36.4825C233.569 36.4825 233.049 36.7175 232.709 37.1875C232.369 37.6525 232.199 38.315 232.199 39.175C232.199 40.035 232.369 40.6975 232.709 41.1625C233.049 41.6225 233.569 41.8525 234.269 41.8525ZM241.053 36.7675C241.293 36.2825 241.583 35.9025 241.923 35.6275C242.263 35.3475 242.67 35.2075 243.145 35.2075C243.31 35.2075 243.465 35.2275 243.61 35.2675C243.755 35.3025 243.885 35.3575 244 35.4325L243.888 36.6475C243.868 36.7325 243.835 36.7925 243.79 36.8275C243.75 36.8575 243.695 36.8725 243.625 36.8725C243.55 36.8725 243.443 36.86 243.303 36.835C243.163 36.805 243.015 36.79 242.86 36.79C242.635 36.79 242.435 36.8225 242.26 36.8875C242.09 36.9525 241.935 37.0475 241.795 37.1725C241.66 37.2975 241.54 37.45 241.435 37.63C241.33 37.81 241.233 38.015 241.143 38.245V43H239.53V35.35H240.468C240.638 35.35 240.755 35.3825 240.82 35.4475C240.885 35.5075 240.93 35.615 240.955 35.77L241.053 36.7675ZM249.591 36.7375C249.551 36.8075 249.506 36.8575 249.456 36.8875C249.406 36.9175 249.344 36.9325 249.269 36.9325C249.184 36.9325 249.091 36.9075 248.991 36.8575C248.891 36.8025 248.774 36.7425 248.639 36.6775C248.504 36.6125 248.344 36.555 248.159 36.505C247.979 36.45 247.766 36.4225 247.521 36.4225C247.321 36.4225 247.139 36.4475 246.974 36.4975C246.814 36.5425 246.676 36.61 246.561 36.7C246.451 36.785 246.366 36.8875 246.306 37.0075C246.246 37.1225 246.216 37.2475 246.216 37.3825C246.216 37.5625 246.271 37.7125 246.381 37.8325C246.491 37.9525 246.636 38.0575 246.816 38.1475C246.996 38.2325 247.201 38.31 247.431 38.38C247.661 38.45 247.896 38.525 248.136 38.605C248.376 38.685 248.611 38.7775 248.841 38.8825C249.071 38.9875 249.276 39.1175 249.456 39.2725C249.636 39.4225 249.781 39.6075 249.891 39.8275C250.001 40.0425 250.056 40.305 250.056 40.615C250.056 40.975 249.991 41.3075 249.861 41.6125C249.731 41.9175 249.541 42.1825 249.291 42.4075C249.041 42.6325 248.729 42.8075 248.354 42.9325C247.984 43.0575 247.559 43.12 247.079 43.12C246.814 43.12 246.556 43.095 246.306 43.045C246.061 43 245.826 42.9375 245.601 42.8575C245.381 42.7725 245.174 42.6725 244.979 42.5575C244.789 42.4425 244.619 42.3175 244.469 42.1825L244.844 41.5675C244.889 41.4925 244.944 41.435 245.009 41.395C245.079 41.35 245.164 41.3275 245.264 41.3275C245.369 41.3275 245.471 41.3625 245.571 41.4325C245.676 41.4975 245.796 41.57 245.931 41.65C246.071 41.73 246.239 41.805 246.434 41.875C246.629 41.94 246.871 41.9725 247.161 41.9725C247.401 41.9725 247.609 41.945 247.784 41.89C247.959 41.83 248.104 41.75 248.219 41.65C248.334 41.55 248.419 41.4375 248.474 41.3125C248.529 41.1825 248.556 41.045 248.556 40.9C248.556 40.705 248.501 40.545 248.391 40.42C248.281 40.295 248.134 40.1875 247.949 40.0975C247.769 40.0075 247.561 39.9275 247.326 39.8575C247.096 39.7875 246.861 39.7125 246.621 39.6325C246.381 39.5525 246.144 39.46 245.909 39.355C245.679 39.25 245.471 39.1175 245.286 38.9575C245.106 38.7925 244.961 38.595 244.851 38.365C244.741 38.13 244.686 37.845 244.686 37.51C244.686 37.205 244.746 36.915 244.866 36.64C244.991 36.365 245.171 36.1225 245.406 35.9125C245.646 35.7025 245.939 35.5375 246.284 35.4175C246.634 35.2925 247.036 35.23 247.491 35.23C248.006 35.23 248.474 35.3125 248.894 35.4775C249.314 35.6425 249.666 35.8675 249.951 36.1525L249.591 36.7375ZM265.747 35.35L263.294 43H262.012C261.862 43 261.757 42.9025 261.697 42.7075L260.174 37.945C260.134 37.81 260.097 37.675 260.062 37.54C260.032 37.405 260.004 37.2725 259.979 37.1425C259.924 37.4125 259.857 37.6825 259.777 37.9525L258.232 42.7075C258.177 42.9025 258.059 43 257.879 43H256.657L254.204 35.35H255.479C255.604 35.35 255.707 35.3825 255.787 35.4475C255.872 35.5075 255.927 35.58 255.952 35.665L257.227 40.12C257.277 40.325 257.319 40.525 257.354 40.72C257.394 40.91 257.429 41.1 257.459 41.29C257.509 41.1 257.562 40.91 257.617 40.72C257.672 40.525 257.729 40.325 257.789 40.12L259.222 35.6425C259.247 35.5525 259.297 35.48 259.372 35.425C259.452 35.365 259.547 35.335 259.657 35.335H260.362C260.477 35.335 260.574 35.365 260.654 35.425C260.734 35.48 260.787 35.5525 260.812 35.6425L262.207 40.12C262.267 40.325 262.322 40.525 262.372 40.72C262.427 40.915 262.477 41.11 262.522 41.305C262.557 41.115 262.594 40.9225 262.634 40.7275C262.674 40.5325 262.722 40.33 262.777 40.12L264.074 35.665C264.104 35.575 264.159 35.5 264.239 35.44C264.319 35.38 264.417 35.35 264.532 35.35H265.747ZM268.603 35.35V43H266.99V35.35H268.603ZM268.873 33.04C268.873 33.185 268.843 33.3225 268.783 33.4525C268.728 33.5825 268.65 33.6975 268.55 33.7975C268.45 33.8925 268.333 33.97 268.198 34.03C268.068 34.085 267.928 34.1125 267.778 34.1125C267.633 34.1125 267.495 34.085 267.365 34.03C267.24 33.97 267.13 33.8925 267.035 33.7975C266.94 33.6975 266.863 33.5825 266.803 33.4525C266.748 33.3225 266.72 33.185 266.72 33.04C266.72 32.89 266.748 32.75 266.803 32.62C266.863 32.49 266.94 32.3775 267.035 32.2825C267.13 32.1825 267.24 32.105 267.365 32.05C267.495 31.99 267.633 31.96 267.778 31.96C267.928 31.96 268.068 31.99 268.198 32.05C268.333 32.105 268.45 32.1825 268.55 32.2825C268.65 32.3775 268.728 32.49 268.783 32.62C268.843 32.75 268.873 32.89 268.873 33.04ZM272.271 31.9V43H270.659V31.9H272.271ZM275.904 31.9V43H274.292V31.9H275.904ZM286.197 36.7375C286.157 36.8075 286.112 36.8575 286.062 36.8875C286.012 36.9175 285.95 36.9325 285.875 36.9325C285.79 36.9325 285.697 36.9075 285.597 36.8575C285.497 36.8025 285.38 36.7425 285.245 36.6775C285.11 36.6125 284.95 36.555 284.765 36.505C284.585 36.45 284.372 36.4225 284.127 36.4225C283.927 36.4225 283.745 36.4475 283.58 36.4975C283.42 36.5425 283.282 36.61 283.167 36.7C283.057 36.785 282.972 36.8875 282.912 37.0075C282.852 37.1225 282.822 37.2475 282.822 37.3825C282.822 37.5625 282.877 37.7125 282.987 37.8325C283.097 37.9525 283.242 38.0575 283.422 38.1475C283.602 38.2325 283.807 38.31 284.037 38.38C284.267 38.45 284.502 38.525 284.742 38.605C284.982 38.685 285.217 38.7775 285.447 38.8825C285.677 38.9875 285.882 39.1175 286.062 39.2725C286.242 39.4225 286.387 39.6075 286.497 39.8275C286.607 40.0425 286.662 40.305 286.662 40.615C286.662 40.975 286.597 41.3075 286.467 41.6125C286.337 41.9175 286.147 42.1825 285.897 42.4075C285.647 42.6325 285.335 42.8075 284.96 42.9325C284.59 43.0575 284.165 43.12 283.685 43.12C283.42 43.12 283.162 43.095 282.912 43.045C282.667 43 282.432 42.9375 282.207 42.8575C281.987 42.7725 281.78 42.6725 281.585 42.5575C281.395 42.4425 281.225 42.3175 281.075 42.1825L281.45 41.5675C281.495 41.4925 281.55 41.435 281.615 41.395C281.685 41.35 281.77 41.3275 281.87 41.3275C281.975 41.3275 282.077 41.3625 282.177 41.4325C282.282 41.4975 282.402 41.57 282.537 41.65C282.677 41.73 282.845 41.805 283.04 41.875C283.235 41.94 283.477 41.9725 283.767 41.9725C284.007 41.9725 284.215 41.945 284.39 41.89C284.565 41.83 284.71 41.75 284.825 41.65C284.94 41.55 285.025 41.4375 285.08 41.3125C285.135 41.1825 285.162 41.045 285.162 40.9C285.162 40.705 285.107 40.545 284.997 40.42C284.887 40.295 284.74 40.1875 284.555 40.0975C284.375 40.0075 284.167 39.9275 283.932 39.8575C283.702 39.7875 283.467 39.7125 283.227 39.6325C282.987 39.5525 282.75 39.46 282.515 39.355C282.285 39.25 282.077 39.1175 281.892 38.9575C281.712 38.7925 281.567 38.595 281.457 38.365C281.347 38.13 281.292 37.845 281.292 37.51C281.292 37.205 281.352 36.915 281.472 36.64C281.597 36.365 281.777 36.1225 282.012 35.9125C282.252 35.7025 282.545 35.5375 282.89 35.4175C283.24 35.2925 283.642 35.23 284.097 35.23C284.612 35.23 285.08 35.3125 285.5 35.4775C285.92 35.6425 286.272 35.8675 286.557 36.1525L286.197 36.7375ZM293.195 38.3125C293.195 38.0425 293.155 37.7925 293.075 37.5625C293 37.3275 292.888 37.125 292.738 36.955C292.588 36.78 292.4 36.645 292.175 36.55C291.955 36.45 291.7 36.4 291.41 36.4C290.825 36.4 290.365 36.5675 290.03 36.9025C289.695 37.2375 289.483 37.7075 289.393 38.3125H293.195ZM289.348 39.3025C289.368 39.7375 289.435 40.115 289.55 40.435C289.665 40.75 289.818 41.0125 290.008 41.2225C290.203 41.4325 290.433 41.59 290.698 41.695C290.968 41.795 291.268 41.845 291.598 41.845C291.913 41.845 292.185 41.81 292.415 41.74C292.645 41.665 292.845 41.585 293.015 41.5C293.185 41.41 293.33 41.33 293.45 41.26C293.57 41.185 293.68 41.1475 293.78 41.1475C293.91 41.1475 294.01 41.1975 294.08 41.2975L294.538 41.89C294.348 42.115 294.133 42.305 293.893 42.46C293.653 42.615 293.398 42.7425 293.128 42.8425C292.858 42.9375 292.58 43.005 292.295 43.045C292.01 43.09 291.733 43.1125 291.463 43.1125C290.933 43.1125 290.44 43.025 289.985 42.85C289.535 42.67 289.143 42.4075 288.808 42.0625C288.478 41.7175 288.218 41.29 288.028 40.78C287.843 40.27 287.75 39.6825 287.75 39.0175C287.75 38.4875 287.833 37.9925 287.998 37.5325C288.168 37.0725 288.408 36.6725 288.718 36.3325C289.033 35.9925 289.413 35.725 289.858 35.53C290.308 35.33 290.815 35.23 291.38 35.23C291.85 35.23 292.285 35.3075 292.685 35.4625C293.085 35.6125 293.43 35.835 293.72 36.13C294.01 36.425 294.235 36.7875 294.395 37.2175C294.56 37.6425 294.643 38.1275 294.643 38.6725C294.643 38.9225 294.615 39.09 294.56 39.175C294.505 39.26 294.405 39.3025 294.26 39.3025H289.348ZM297.654 36.3625C297.819 36.1925 297.989 36.04 298.164 35.905C298.344 35.765 298.534 35.645 298.734 35.545C298.934 35.445 299.147 35.3675 299.372 35.3125C299.597 35.2575 299.842 35.23 300.107 35.23C300.527 35.23 300.894 35.3 301.209 35.44C301.529 35.58 301.797 35.7775 302.012 36.0325C302.232 36.2875 302.397 36.595 302.507 36.955C302.617 37.31 302.672 37.7025 302.672 38.1325V43H301.067V38.1325C301.067 37.6175 300.947 37.2175 300.707 36.9325C300.472 36.6475 300.112 36.505 299.627 36.505C299.267 36.505 298.932 36.5875 298.622 36.7525C298.317 36.9175 298.029 37.1425 297.759 37.4275V43H296.147V35.35H297.122C297.342 35.35 297.482 35.4525 297.542 35.6575L297.654 36.3625ZM309.437 37.2325C309.212 36.9425 308.965 36.74 308.695 36.625C308.425 36.51 308.132 36.4525 307.817 36.4525C307.187 36.4525 306.695 36.685 306.34 37.15C305.985 37.61 305.807 38.2925 305.807 39.1975C305.807 39.6675 305.847 40.07 305.927 40.405C306.007 40.735 306.122 41.005 306.272 41.215C306.422 41.425 306.605 41.5775 306.82 41.6725C307.035 41.7675 307.277 41.815 307.547 41.815C307.957 41.815 308.31 41.7275 308.605 41.5525C308.905 41.3725 309.182 41.12 309.437 40.795V37.2325ZM311.05 31.9V43H310.075C309.86 43 309.722 42.8975 309.662 42.6925L309.52 41.86C309.2 42.235 308.835 42.5375 308.425 42.7675C308.02 42.9975 307.547 43.1125 307.007 43.1125C306.577 43.1125 306.187 43.0275 305.837 42.8575C305.487 42.6825 305.187 42.43 304.937 42.1C304.687 41.77 304.492 41.3625 304.352 40.8775C304.217 40.3875 304.15 39.8275 304.15 39.1975C304.15 38.6275 304.225 38.1 304.375 37.615C304.53 37.13 304.75 36.71 305.035 36.355C305.32 35.995 305.665 35.715 306.07 35.515C306.48 35.31 306.937 35.2075 307.442 35.2075C307.892 35.2075 308.275 35.28 308.59 35.425C308.905 35.565 309.187 35.7625 309.437 36.0175V31.9H311.05ZM323.164 35.35L318.949 45.175C318.894 45.29 318.826 45.38 318.746 45.445C318.671 45.51 318.554 45.5425 318.394 45.5425H317.201L318.611 42.4825L315.491 35.35H316.894C317.029 35.35 317.131 35.3825 317.201 35.4475C317.276 35.5075 317.331 35.58 317.366 35.665L319.189 40.0075C319.234 40.1325 319.274 40.2575 319.309 40.3825C319.349 40.5025 319.386 40.6275 319.421 40.7575C319.461 40.6275 319.501 40.5 319.541 40.375C319.581 40.25 319.626 40.125 319.676 40L321.424 35.665C321.459 35.575 321.516 35.5 321.596 35.44C321.681 35.38 321.774 35.35 321.874 35.35H323.164ZM327.301 35.23C327.866 35.23 328.376 35.3225 328.831 35.5075C329.291 35.6925 329.681 35.955 330.001 36.295C330.326 36.635 330.576 37.0475 330.751 37.5325C330.926 38.0175 331.013 38.5625 331.013 39.1675C331.013 39.7725 330.926 40.3175 330.751 40.8025C330.576 41.2875 330.326 41.7025 330.001 42.0475C329.681 42.3875 329.291 42.65 328.831 42.835C328.376 43.02 327.866 43.1125 327.301 43.1125C326.731 43.1125 326.216 43.02 325.756 42.835C325.301 42.65 324.911 42.3875 324.586 42.0475C324.261 41.7025 324.011 41.2875 323.836 40.8025C323.661 40.3175 323.573 39.7725 323.573 39.1675C323.573 38.5625 323.661 38.0175 323.836 37.5325C324.011 37.0475 324.261 36.635 324.586 36.295C324.911 35.955 325.301 35.6925 325.756 35.5075C326.216 35.3225 326.731 35.23 327.301 35.23ZM327.301 41.8525C327.991 41.8525 328.503 41.6225 328.838 41.1625C329.178 40.6975 329.348 40.035 329.348 39.175C329.348 38.315 329.178 37.6525 328.838 37.1875C328.503 36.7175 327.991 36.4825 327.301 36.4825C326.601 36.4825 326.081 36.7175 325.741 37.1875C325.401 37.6525 325.231 38.315 325.231 39.175C325.231 40.035 325.401 40.6975 325.741 41.1625C326.081 41.6225 326.601 41.8525 327.301 41.8525ZM339.013 35.35V43H338.038C337.823 43 337.685 42.8975 337.625 42.6925L337.505 41.98C337.345 42.15 337.175 42.305 336.995 42.445C336.82 42.585 336.633 42.705 336.433 42.805C336.233 42.905 336.018 42.9825 335.788 43.0375C335.563 43.0925 335.32 43.12 335.06 43.12C334.64 43.12 334.27 43.05 333.95 42.91C333.63 42.77 333.36 42.5725 333.14 42.3175C332.925 42.0625 332.763 41.7575 332.653 41.4025C332.543 41.0425 332.488 40.6475 332.488 40.2175V35.35H334.1V40.2175C334.1 40.7325 334.218 41.1325 334.453 41.4175C334.693 41.7025 335.055 41.845 335.54 41.845C335.895 41.845 336.225 41.765 336.53 41.605C336.84 41.44 337.13 41.215 337.4 40.93V35.35H339.013ZM342.493 36.7675C342.733 36.2825 343.023 35.9025 343.363 35.6275C343.703 35.3475 344.111 35.2075 344.586 35.2075C344.751 35.2075 344.906 35.2275 345.051 35.2675C345.196 35.3025 345.326 35.3575 345.441 35.4325L345.328 36.6475C345.308 36.7325 345.276 36.7925 345.231 36.8275C345.191 36.8575 345.136 36.8725 345.066 36.8725C344.991 36.8725 344.883 36.86 344.743 36.835C344.603 36.805 344.456 36.79 344.301 36.79C344.076 36.79 343.876 36.8225 343.701 36.8875C343.531 36.9525 343.376 37.0475 343.236 37.1725C343.101 37.2975 342.981 37.45 342.876 37.63C342.771 37.81 342.673 38.015 342.583 38.245V43H340.971V35.35H341.908C342.078 35.35 342.196 35.3825 342.261 35.4475C342.326 35.5075 342.371 35.615 342.396 35.77L342.493 36.7675ZM351.428 36.3625C351.593 36.1925 351.763 36.04 351.938 35.905C352.118 35.765 352.308 35.645 352.508 35.545C352.708 35.445 352.921 35.3675 353.146 35.3125C353.371 35.2575 353.616 35.23 353.881 35.23C354.301 35.23 354.668 35.3 354.983 35.44C355.303 35.58 355.571 35.7775 355.786 36.0325C356.006 36.2875 356.171 36.595 356.281 36.955C356.391 37.31 356.446 37.7025 356.446 38.1325V43H354.841V38.1325C354.841 37.6175 354.721 37.2175 354.481 36.9325C354.246 36.6475 353.886 36.505 353.401 36.505C353.041 36.505 352.706 36.5875 352.396 36.7525C352.091 36.9175 351.803 37.1425 351.533 37.4275V43H349.921V35.35H350.896C351.116 35.35 351.256 35.4525 351.316 35.6575L351.428 36.3625ZM361.637 35.23C362.202 35.23 362.712 35.3225 363.167 35.5075C363.627 35.6925 364.017 35.955 364.337 36.295C364.662 36.635 364.912 37.0475 365.087 37.5325C365.262 38.0175 365.349 38.5625 365.349 39.1675C365.349 39.7725 365.262 40.3175 365.087 40.8025C364.912 41.2875 364.662 41.7025 364.337 42.0475C364.017 42.3875 363.627 42.65 363.167 42.835C362.712 43.02 362.202 43.1125 361.637 43.1125C361.067 43.1125 360.552 43.02 360.092 42.835C359.637 42.65 359.247 42.3875 358.922 42.0475C358.597 41.7025 358.347 41.2875 358.172 40.8025C357.997 40.3175 357.909 39.7725 357.909 39.1675C357.909 38.5625 357.997 38.0175 358.172 37.5325C358.347 37.0475 358.597 36.635 358.922 36.295C359.247 35.955 359.637 35.6925 360.092 35.5075C360.552 35.3225 361.067 35.23 361.637 35.23ZM361.637 41.8525C362.327 41.8525 362.839 41.6225 363.174 41.1625C363.514 40.6975 363.684 40.035 363.684 39.175C363.684 38.315 363.514 37.6525 363.174 37.1875C362.839 36.7175 362.327 36.4825 361.637 36.4825C360.937 36.4825 360.417 36.7175 360.077 37.1875C359.737 37.6525 359.567 38.315 359.567 39.175C359.567 40.035 359.737 40.6975 360.077 41.1625C360.417 41.6225 360.937 41.8525 361.637 41.8525ZM374.177 43H372.565V36.6175H368.837V40.96C368.837 41.235 368.905 41.445 369.04 41.59C369.175 41.735 369.355 41.8075 369.58 41.8075C369.705 41.8075 369.812 41.7925 369.902 41.7625C369.992 41.7275 370.07 41.6925 370.135 41.6575C370.2 41.6175 370.255 41.5825 370.3 41.5525C370.35 41.5175 370.397 41.5 370.442 41.5C370.532 41.5 370.605 41.55 370.66 41.65L371.14 42.4375C370.89 42.6575 370.595 42.8275 370.255 42.9475C369.915 43.0625 369.565 43.12 369.205 43.12C368.57 43.12 368.08 42.9425 367.735 42.5875C367.395 42.2275 367.225 41.7225 367.225 41.0725V36.6175H366.385C366.295 36.6175 366.217 36.59 366.152 36.535C366.087 36.475 366.055 36.3875 366.055 36.2725V35.62L367.292 35.44L367.645 33.2275C367.67 33.1425 367.712 33.075 367.772 33.025C367.832 32.97 367.912 32.9425 368.012 32.9425H368.837V35.455H374.177V43ZM374.507 33.0025C374.507 33.1475 374.477 33.285 374.417 33.415C374.362 33.54 374.285 33.6525 374.185 33.7525C374.085 33.8475 373.967 33.925 373.832 33.985C373.702 34.04 373.565 34.0675 373.42 34.0675C373.275 34.0675 373.137 34.04 373.007 33.985C372.882 33.925 372.77 33.8475 372.67 33.7525C372.575 33.6525 372.497 33.54 372.437 33.415C372.382 33.285 372.355 33.1475 372.355 33.0025C372.355 32.8525 372.382 32.7125 372.437 32.5825C372.497 32.4475 372.575 32.3325 372.67 32.2375C372.77 32.1375 372.882 32.06 373.007 32.005C373.137 31.945 373.275 31.915 373.42 31.915C373.565 31.915 373.702 31.945 373.832 32.005C373.967 32.06 374.085 32.1375 374.185 32.2375C374.285 32.3325 374.362 32.4475 374.417 32.5825C374.477 32.7125 374.507 32.8525 374.507 33.0025ZM376.74 43V36.6325L375.99 36.5275C375.865 36.5025 375.762 36.4575 375.682 36.3925C375.607 36.3275 375.57 36.235 375.57 36.115V35.455H376.74V35.1325C376.74 34.6625 376.815 34.23 376.965 33.835C377.115 33.44 377.342 33.0975 377.647 32.8075C377.952 32.5175 378.332 32.2925 378.787 32.1325C379.247 31.9675 379.785 31.885 380.4 31.885C380.6 31.885 380.805 31.8975 381.015 31.9225C381.23 31.9475 381.412 31.985 381.562 32.035L381.51 32.875C381.5 32.98 381.437 33.04 381.322 33.055C381.207 33.065 381.055 33.07 380.865 33.07C380.4 33.07 380.005 33.115 379.68 33.205C379.355 33.29 379.09 33.4225 378.885 33.6025C378.68 33.7775 378.53 33.9975 378.435 34.2625C378.345 34.5225 378.3 34.8275 378.3 35.1775V35.455H382.987V43H381.375V36.6175H378.352V43H376.74ZM390.441 36.85C390.391 36.915 390.343 36.965 390.298 37C390.253 37.035 390.188 37.0525 390.103 37.0525C390.018 37.0525 389.928 37.0225 389.833 36.9625C389.743 36.9025 389.633 36.8375 389.503 36.7675C389.378 36.6925 389.226 36.625 389.046 36.565C388.866 36.505 388.641 36.475 388.371 36.475C388.021 36.475 387.713 36.5375 387.448 36.6625C387.188 36.7875 386.968 36.9675 386.788 37.2025C386.613 37.4325 386.481 37.715 386.391 38.05C386.306 38.38 386.263 38.7525 386.263 39.1675C386.263 39.5975 386.311 39.98 386.406 40.315C386.501 40.65 386.636 40.9325 386.811 41.1625C386.991 41.3925 387.206 41.5675 387.456 41.6875C387.711 41.8075 387.996 41.8675 388.311 41.8675C388.621 41.8675 388.873 41.83 389.068 41.755C389.263 41.68 389.426 41.5975 389.556 41.5075C389.686 41.4175 389.796 41.335 389.886 41.26C389.981 41.185 390.081 41.1475 390.186 41.1475C390.316 41.1475 390.416 41.1975 390.486 41.2975L390.943 41.89C390.758 42.115 390.553 42.305 390.328 42.46C390.103 42.615 389.866 42.7425 389.616 42.8425C389.366 42.9375 389.106 43.005 388.836 43.045C388.566 43.09 388.293 43.1125 388.018 43.1125C387.543 43.1125 387.098 43.025 386.683 42.85C386.273 42.67 385.913 42.4125 385.603 42.0775C385.298 41.7375 385.056 41.325 384.876 40.84C384.701 40.35 384.613 39.7925 384.613 39.1675C384.613 38.6025 384.693 38.08 384.853 37.6C385.013 37.115 385.246 36.6975 385.551 36.3475C385.861 35.9975 386.243 35.725 386.698 35.53C387.153 35.33 387.678 35.23 388.273 35.23C388.828 35.23 389.316 35.32 389.736 35.5C390.161 35.68 390.538 35.935 390.868 36.265L390.441 36.85ZM396.328 39.655C395.753 39.675 395.268 39.7225 394.873 39.7975C394.478 39.8675 394.158 39.96 393.913 40.075C393.668 40.185 393.49 40.3175 393.38 40.4725C393.275 40.6275 393.223 40.7975 393.223 40.9825C393.223 41.1625 393.25 41.3175 393.305 41.4475C393.365 41.5725 393.445 41.6775 393.545 41.7625C393.65 41.8425 393.77 41.9025 393.905 41.9425C394.045 41.9775 394.198 41.995 394.363 41.995C394.783 41.995 395.143 41.9175 395.443 41.7625C395.748 41.6025 396.043 41.3725 396.328 41.0725V39.655ZM392.053 36.415C392.918 35.61 393.948 35.2075 395.143 35.2075C395.583 35.2075 395.973 35.28 396.313 35.425C396.658 35.565 396.945 35.765 397.175 36.025C397.41 36.285 397.588 36.595 397.708 36.955C397.833 37.31 397.895 37.705 397.895 38.14V43H397.175C397.02 43 396.903 42.9775 396.823 42.9325C396.743 42.8825 396.675 42.785 396.62 42.64L396.463 42.0175C396.268 42.1925 396.075 42.35 395.885 42.49C395.695 42.625 395.498 42.74 395.293 42.835C395.093 42.93 394.875 43 394.64 43.045C394.41 43.095 394.155 43.12 393.875 43.12C393.565 43.12 393.275 43.0775 393.005 42.9925C392.74 42.9075 392.51 42.78 392.315 42.61C392.12 42.435 391.965 42.22 391.85 41.965C391.74 41.71 391.685 41.41 391.685 41.065C391.685 40.77 391.763 40.4825 391.918 40.2025C392.078 39.9225 392.338 39.6725 392.698 39.4525C393.063 39.2275 393.54 39.0425 394.13 38.8975C394.725 38.7525 395.458 38.67 396.328 38.65V38.14C396.328 37.59 396.21 37.18 395.975 36.91C395.74 36.64 395.395 36.505 394.94 36.505C394.63 36.505 394.37 36.545 394.16 36.625C393.95 36.7 393.768 36.7825 393.613 36.8725C393.458 36.9625 393.32 37.0475 393.2 37.1275C393.08 37.2025 392.953 37.24 392.818 37.24C392.708 37.24 392.613 37.2125 392.533 37.1575C392.458 37.0975 392.395 37.025 392.345 36.94L392.053 36.415ZM407.107 43H405.494V36.6175H401.767V40.96C401.767 41.235 401.834 41.445 401.969 41.59C402.104 41.735 402.284 41.8075 402.509 41.8075C402.634 41.8075 402.742 41.7925 402.832 41.7625C402.922 41.7275 402.999 41.6925 403.064 41.6575C403.129 41.6175 403.184 41.5825 403.229 41.5525C403.279 41.5175 403.327 41.5 403.372 41.5C403.462 41.5 403.534 41.55 403.589 41.65L404.069 42.4375C403.819 42.6575 403.524 42.8275 403.184 42.9475C402.844 43.0625 402.494 43.12 402.134 43.12C401.499 43.12 401.009 42.9425 400.664 42.5875C400.324 42.2275 400.154 41.7225 400.154 41.0725V36.6175H399.314C399.224 36.6175 399.147 36.59 399.082 36.535C399.017 36.475 398.984 36.3875 398.984 36.2725V35.62L400.222 35.44L400.574 33.2275C400.599 33.1425 400.642 33.075 400.702 33.025C400.762 32.97 400.842 32.9425 400.942 32.9425H401.767V35.455H407.107V43ZM407.437 33.0025C407.437 33.1475 407.407 33.285 407.347 33.415C407.292 33.54 407.214 33.6525 407.114 33.7525C407.014 33.8475 406.897 33.925 406.762 33.985C406.632 34.04 406.494 34.0675 406.349 34.0675C406.204 34.0675 406.067 34.04 405.937 33.985C405.812 33.925 405.699 33.8475 405.599 33.7525C405.504 33.6525 405.427 33.54 405.367 33.415C405.312 33.285 405.284 33.1475 405.284 33.0025C405.284 32.8525 405.312 32.7125 405.367 32.5825C405.427 32.4475 405.504 32.3325 405.599 32.2375C405.699 32.1375 405.812 32.06 405.937 32.005C406.067 31.945 406.204 31.915 406.349 31.915C406.494 31.915 406.632 31.945 406.762 32.005C406.897 32.06 407.014 32.1375 407.114 32.2375C407.214 32.3325 407.292 32.4475 407.347 32.5825C407.407 32.7125 407.437 32.8525 407.437 33.0025ZM412.452 35.23C413.017 35.23 413.527 35.3225 413.982 35.5075C414.442 35.6925 414.832 35.955 415.152 36.295C415.477 36.635 415.727 37.0475 415.902 37.5325C416.077 38.0175 416.165 38.5625 416.165 39.1675C416.165 39.7725 416.077 40.3175 415.902 40.8025C415.727 41.2875 415.477 41.7025 415.152 42.0475C414.832 42.3875 414.442 42.65 413.982 42.835C413.527 43.02 413.017 43.1125 412.452 43.1125C411.882 43.1125 411.367 43.02 410.907 42.835C410.452 42.65 410.062 42.3875 409.737 42.0475C409.412 41.7025 409.162 41.2875 408.987 40.8025C408.812 40.3175 408.725 39.7725 408.725 39.1675C408.725 38.5625 408.812 38.0175 408.987 37.5325C409.162 37.0475 409.412 36.635 409.737 36.295C410.062 35.955 410.452 35.6925 410.907 35.5075C411.367 35.3225 411.882 35.23 412.452 35.23ZM412.452 41.8525C413.142 41.8525 413.655 41.6225 413.99 41.1625C414.33 40.6975 414.5 40.035 414.5 39.175C414.5 38.315 414.33 37.6525 413.99 37.1875C413.655 36.7175 413.142 36.4825 412.452 36.4825C411.752 36.4825 411.232 36.7175 410.892 37.1875C410.552 37.6525 410.382 38.315 410.382 39.175C410.382 40.035 410.552 40.6975 410.892 41.1625C411.232 41.6225 411.752 41.8525 412.452 41.8525ZM419.221 36.3625C419.386 36.1925 419.556 36.04 419.731 35.905C419.911 35.765 420.101 35.645 420.301 35.545C420.501 35.445 420.714 35.3675 420.939 35.3125C421.164 35.2575 421.409 35.23 421.674 35.23C422.094 35.23 422.461 35.3 422.776 35.44C423.096 35.58 423.364 35.7775 423.579 36.0325C423.799 36.2875 423.964 36.595 424.074 36.955C424.184 37.31 424.239 37.7025 424.239 38.1325V43H422.634V38.1325C422.634 37.6175 422.514 37.2175 422.274 36.9325C422.039 36.6475 421.679 36.505 421.194 36.505C420.834 36.505 420.499 36.5875 420.189 36.7525C419.884 36.9175 419.596 37.1425 419.326 37.4275V43H417.714V35.35H418.689C418.909 35.35 419.049 35.4525 419.109 35.6575L419.221 36.3625ZM430.69 36.7375C430.65 36.8075 430.605 36.8575 430.555 36.8875C430.505 36.9175 430.442 36.9325 430.367 36.9325C430.282 36.9325 430.19 36.9075 430.09 36.8575C429.99 36.8025 429.872 36.7425 429.737 36.6775C429.602 36.6125 429.442 36.555 429.257 36.505C429.077 36.45 428.865 36.4225 428.62 36.4225C428.42 36.4225 428.237 36.4475 428.072 36.4975C427.912 36.5425 427.775 36.61 427.66 36.7C427.55 36.785 427.465 36.8875 427.405 37.0075C427.345 37.1225 427.315 37.2475 427.315 37.3825C427.315 37.5625 427.37 37.7125 427.48 37.8325C427.59 37.9525 427.735 38.0575 427.915 38.1475C428.095 38.2325 428.3 38.31 428.53 38.38C428.76 38.45 428.995 38.525 429.235 38.605C429.475 38.685 429.71 38.7775 429.94 38.8825C430.17 38.9875 430.375 39.1175 430.555 39.2725C430.735 39.4225 430.88 39.6075 430.99 39.8275C431.1 40.0425 431.155 40.305 431.155 40.615C431.155 40.975 431.09 41.3075 430.96 41.6125C430.83 41.9175 430.64 42.1825 430.39 42.4075C430.14 42.6325 429.827 42.8075 429.452 42.9325C429.082 43.0575 428.657 43.12 428.177 43.12C427.912 43.12 427.655 43.095 427.405 43.045C427.16 43 426.925 42.9375 426.7 42.8575C426.48 42.7725 426.272 42.6725 426.077 42.5575C425.887 42.4425 425.717 42.3175 425.567 42.1825L425.942 41.5675C425.987 41.4925 426.042 41.435 426.107 41.395C426.177 41.35 426.262 41.3275 426.362 41.3275C426.467 41.3275 426.57 41.3625 426.67 41.4325C426.775 41.4975 426.895 41.57 427.03 41.65C427.17 41.73 427.337 41.805 427.532 41.875C427.727 41.94 427.97 41.9725 428.26 41.9725C428.5 41.9725 428.707 41.945 428.882 41.89C429.057 41.83 429.202 41.75 429.317 41.65C429.432 41.55 429.517 41.4375 429.572 41.3125C429.627 41.1825 429.655 41.045 429.655 40.9C429.655 40.705 429.6 40.545 429.49 40.42C429.38 40.295 429.232 40.1875 429.047 40.0975C428.867 40.0075 428.66 39.9275 428.425 39.8575C428.195 39.7875 427.96 39.7125 427.72 39.6325C427.48 39.5525 427.242 39.46 427.007 39.355C426.777 39.25 426.57 39.1175 426.385 38.9575C426.205 38.7925 426.06 38.595 425.95 38.365C425.84 38.13 425.785 37.845 425.785 37.51C425.785 37.205 425.845 36.915 425.965 36.64C426.09 36.365 426.27 36.1225 426.505 35.9125C426.745 35.7025 427.037 35.5375 427.382 35.4175C427.732 35.2925 428.135 35.23 428.59 35.23C429.105 35.23 429.572 35.3125 429.992 35.4775C430.412 35.6425 430.765 35.8675 431.05 36.1525L430.69 36.7375Z" fill="#292829"/>
<path d="M442 30C442 27.7909 443.791 26 446 26H576C578.209 26 580 27.7909 580 30V50C580 52.2091 578.209 54 576 54H446C443.791 54 442 52.2091 442 50V30Z" fill="white"/>
<path d="M455.493 37.7827C455.459 37.4389 455.313 37.1719 455.054 36.9815C454.795 36.7912 454.445 36.696 454.001 36.696C453.7 36.696 453.446 36.7386 453.239 36.8239C453.031 36.9062 452.872 37.0213 452.761 37.169C452.653 37.3168 452.599 37.4844 452.599 37.6719C452.594 37.8281 452.626 37.9645 452.697 38.081C452.771 38.1974 452.872 38.2983 453 38.3835C453.128 38.4659 453.276 38.5384 453.443 38.6009C453.611 38.6605 453.79 38.7116 453.98 38.7543L454.764 38.9418C455.145 39.027 455.494 39.1406 455.812 39.2827C456.131 39.4247 456.406 39.5994 456.639 39.8068C456.872 40.0142 457.053 40.2585 457.18 40.5398C457.311 40.821 457.378 41.1435 457.381 41.5071C457.378 42.0412 457.241 42.5043 456.972 42.8963C456.705 43.2855 456.318 43.5881 455.812 43.804C455.31 44.017 454.703 44.1236 453.993 44.1236C453.288 44.1236 452.675 44.0156 452.152 43.7997C451.632 43.5838 451.226 43.2642 450.933 42.8409C450.643 42.4148 450.491 41.8878 450.477 41.2599H452.263C452.283 41.5526 452.366 41.7969 452.514 41.9929C452.665 42.1861 452.865 42.3324 453.115 42.4318C453.368 42.5284 453.653 42.5767 453.972 42.5767C454.284 42.5767 454.555 42.5312 454.786 42.4403C455.018 42.3494 455.199 42.223 455.327 42.0611C455.455 41.8991 455.518 41.7131 455.518 41.5028C455.518 41.3068 455.46 41.142 455.344 41.0085C455.23 40.875 455.063 40.7614 454.841 40.6676C454.622 40.5739 454.354 40.4886 454.036 40.4119L453.085 40.1733C452.349 39.9943 451.768 39.7145 451.342 39.3338C450.916 38.9531 450.705 38.4403 450.707 37.7955C450.705 37.267 450.845 36.8054 451.129 36.4105C451.416 36.0156 451.81 35.7074 452.31 35.4858C452.81 35.2642 453.378 35.1534 454.014 35.1534C454.662 35.1534 455.227 35.2642 455.71 35.4858C456.196 35.7074 456.574 36.0156 456.844 36.4105C457.114 36.8054 457.253 37.2628 457.261 37.7827H455.493ZM461.571 44.1278C460.897 44.1278 460.318 43.9915 459.832 43.7188C459.349 43.4432 458.977 43.054 458.716 42.5511C458.454 42.0455 458.324 41.4474 458.324 40.7571C458.324 40.0838 458.454 39.4929 458.716 38.9844C458.977 38.4759 459.345 38.0795 459.819 37.7955C460.297 37.5114 460.856 37.3693 461.498 37.3693C461.93 37.3693 462.332 37.4389 462.704 37.5781C463.079 37.7145 463.406 37.9205 463.684 38.196C463.966 38.4716 464.184 38.8182 464.341 39.2358C464.497 39.6506 464.575 40.1364 464.575 40.6932V41.1918H459.048V40.0668H462.866C462.866 39.8054 462.809 39.5739 462.696 39.3722C462.582 39.1705 462.424 39.0128 462.223 38.8991C462.024 38.7827 461.792 38.7244 461.528 38.7244C461.252 38.7244 461.008 38.7884 460.795 38.9162C460.585 39.0412 460.42 39.2102 460.301 39.4233C460.181 39.6335 460.12 39.8679 460.118 40.1264V41.196C460.118 41.5199 460.177 41.7997 460.297 42.0355C460.419 42.2713 460.591 42.4531 460.812 42.581C461.034 42.7088 461.297 42.7727 461.6 42.7727C461.802 42.7727 461.987 42.7443 462.154 42.6875C462.322 42.6307 462.466 42.5455 462.585 42.4318C462.704 42.3182 462.795 42.179 462.858 42.0142L464.537 42.125C464.451 42.5284 464.277 42.8807 464.012 43.1818C463.751 43.4801 463.413 43.7131 462.998 43.8807C462.586 44.0455 462.11 44.1278 461.571 44.1278ZM467.575 35.2727V44H465.76V35.2727H467.575ZM472.012 44.1278C471.339 44.1278 470.759 43.9915 470.273 43.7188C469.79 43.4432 469.418 43.054 469.157 42.5511C468.896 42.0455 468.765 41.4474 468.765 40.7571C468.765 40.0838 468.896 39.4929 469.157 38.9844C469.418 38.4759 469.786 38.0795 470.261 37.7955C470.738 37.5114 471.298 37.3693 471.94 37.3693C472.371 37.3693 472.773 37.4389 473.146 37.5781C473.521 37.7145 473.847 37.9205 474.126 38.196C474.407 38.4716 474.626 38.8182 474.782 39.2358C474.938 39.6506 475.016 40.1364 475.016 40.6932V41.1918H469.489V40.0668H473.308C473.308 39.8054 473.251 39.5739 473.137 39.3722C473.023 39.1705 472.866 39.0128 472.664 38.8991C472.465 38.7827 472.234 38.7244 471.969 38.7244C471.694 38.7244 471.45 38.7884 471.237 38.9162C471.026 39.0412 470.862 39.2102 470.742 39.4233C470.623 39.6335 470.562 39.8679 470.559 40.1264V41.196C470.559 41.5199 470.619 41.7997 470.738 42.0355C470.86 42.2713 471.032 42.4531 471.254 42.581C471.475 42.7088 471.738 42.7727 472.042 42.7727C472.244 42.7727 472.428 42.7443 472.596 42.6875C472.763 42.6307 472.907 42.5455 473.026 42.4318C473.146 42.3182 473.237 42.179 473.299 42.0142L474.978 42.125C474.893 42.5284 474.718 42.8807 474.454 43.1818C474.192 43.4801 473.854 43.7131 473.44 43.8807C473.028 44.0455 472.552 44.1278 472.012 44.1278ZM479.158 44.1278C478.488 44.1278 477.911 43.9858 477.428 43.7017C476.948 43.4148 476.579 43.017 476.32 42.5085C476.065 42 475.937 41.4148 475.937 40.7528C475.937 40.0824 476.066 39.4943 476.325 38.9886C476.586 38.4801 476.957 38.0838 477.437 37.7997C477.917 37.5128 478.488 37.3693 479.15 37.3693C479.721 37.3693 480.221 37.473 480.65 37.6804C481.079 37.8878 481.418 38.179 481.668 38.554C481.918 38.929 482.056 39.3693 482.082 39.875H480.369C480.32 39.5483 480.192 39.2855 479.985 39.0866C479.781 38.8849 479.512 38.7841 479.18 38.7841C478.898 38.7841 478.653 38.8608 478.442 39.0142C478.235 39.1648 478.073 39.3849 477.957 39.6747C477.84 39.9645 477.782 40.3153 477.782 40.7273C477.782 41.1449 477.839 41.5 477.952 41.7926C478.069 42.0852 478.232 42.3082 478.442 42.4616C478.653 42.6151 478.898 42.6918 479.18 42.6918C479.387 42.6918 479.573 42.6491 479.738 42.5639C479.906 42.4787 480.043 42.3551 480.151 42.1932C480.262 42.0284 480.335 41.831 480.369 41.6009H482.082C482.053 42.1009 481.917 42.5412 481.673 42.9219C481.431 43.2997 481.097 43.5952 480.671 43.8082C480.245 44.0213 479.741 44.1278 479.158 44.1278ZM486.725 37.4545V38.8182H482.784V37.4545H486.725ZM483.679 35.8864H485.494V41.9886C485.494 42.1562 485.52 42.2869 485.571 42.3807C485.622 42.4716 485.693 42.5355 485.784 42.5724C485.877 42.6094 485.985 42.6278 486.108 42.6278C486.193 42.6278 486.278 42.6207 486.363 42.6065C486.449 42.5895 486.514 42.5767 486.559 42.5682L486.845 43.919C486.754 43.9474 486.626 43.9801 486.461 44.017C486.297 44.0568 486.096 44.081 485.86 44.0895C485.423 44.1065 485.039 44.0483 484.71 43.9148C484.383 43.7812 484.129 43.5739 483.947 43.2926C483.765 43.0114 483.676 42.6562 483.679 42.2273V35.8864ZM491.806 46.4545C491.576 46.4545 491.36 46.4361 491.158 46.3991C490.96 46.3651 490.795 46.321 490.664 46.267L491.073 44.9119C491.286 44.9773 491.478 45.0128 491.648 45.0185C491.822 45.0241 491.971 44.9844 492.096 44.8991C492.224 44.8139 492.327 44.669 492.407 44.4645L492.513 44.1875L490.165 37.4545H492.075L493.43 42.2614H493.498L494.866 37.4545H496.788L494.244 44.7074C494.121 45.0597 493.955 45.3665 493.745 45.6278C493.538 45.892 493.275 46.0952 492.957 46.2372C492.638 46.3821 492.255 46.4545 491.806 46.4545ZM500.463 44.1278C499.801 44.1278 499.229 43.9872 498.746 43.706C498.266 43.4219 497.895 43.027 497.634 42.5213C497.372 42.0128 497.241 41.4233 497.241 40.7528C497.241 40.0767 497.372 39.4858 497.634 38.9801C497.895 38.4716 498.266 38.0767 498.746 37.7955C499.229 37.5114 499.801 37.3693 500.463 37.3693C501.125 37.3693 501.696 37.5114 502.176 37.7955C502.659 38.0767 503.031 38.4716 503.293 38.9801C503.554 39.4858 503.685 40.0767 503.685 40.7528C503.685 41.4233 503.554 42.0128 503.293 42.5213C503.031 43.027 502.659 43.4219 502.176 43.706C501.696 43.9872 501.125 44.1278 500.463 44.1278ZM500.472 42.7216C500.773 42.7216 501.024 42.6364 501.226 42.4659C501.428 42.2926 501.58 42.0568 501.682 41.7585C501.787 41.4602 501.839 41.1207 501.839 40.7401C501.839 40.3594 501.787 40.0199 501.682 39.7216C501.58 39.4233 501.428 39.1875 501.226 39.0142C501.024 38.8409 500.773 38.7543 500.472 38.7543C500.168 38.7543 499.912 38.8409 499.705 39.0142C499.5 39.1875 499.345 39.4233 499.24 39.7216C499.138 40.0199 499.087 40.3594 499.087 40.7401C499.087 41.1207 499.138 41.4602 499.24 41.7585C499.345 42.0568 499.5 42.2926 499.705 42.4659C499.912 42.6364 500.168 42.7216 500.472 42.7216ZM509.062 41.2131V37.4545H510.878V44H509.135V42.8111H509.067C508.919 43.1946 508.673 43.5028 508.33 43.7358C507.989 43.9687 507.572 44.0852 507.081 44.0852C506.643 44.0852 506.259 43.9858 505.926 43.7869C505.594 43.5881 505.334 43.3054 505.146 42.9389C504.962 42.5724 504.868 42.1335 504.865 41.6222V37.4545H506.68V41.2983C506.683 41.6847 506.787 41.9901 506.991 42.2145C507.196 42.4389 507.47 42.5511 507.814 42.5511C508.033 42.5511 508.237 42.5014 508.428 42.402C508.618 42.2997 508.771 42.1491 508.888 41.9503C509.007 41.7514 509.065 41.5057 509.062 41.2131ZM512.33 44V37.4545H514.09V38.5966H514.158C514.277 38.1903 514.478 37.8835 514.759 37.6761C515.04 37.4659 515.364 37.3608 515.73 37.3608C515.821 37.3608 515.919 37.3665 516.025 37.3778C516.13 37.3892 516.222 37.4048 516.301 37.4247V39.0355C516.216 39.0099 516.098 38.9872 515.948 38.9673C515.797 38.9474 515.659 38.9375 515.534 38.9375C515.267 38.9375 515.029 38.9957 514.819 39.1122C514.611 39.2259 514.446 39.3849 514.324 39.5895C514.205 39.794 514.145 40.0298 514.145 40.2969V44H512.33ZM520.017 44V37.4545H521.748V38.6094H521.824C521.961 38.2259 522.188 37.9233 522.506 37.7017C522.824 37.4801 523.205 37.3693 523.648 37.3693C524.097 37.3693 524.479 37.4815 524.794 37.706C525.11 37.9276 525.32 38.2287 525.425 38.6094H525.493C525.627 38.2344 525.868 37.9347 526.218 37.7102C526.57 37.483 526.986 37.3693 527.466 37.3693C528.077 37.3693 528.573 37.5639 528.953 37.9531C529.337 38.3395 529.529 38.8878 529.529 39.598V44H527.718V39.956C527.718 39.5923 527.621 39.3196 527.428 39.1378C527.235 38.956 526.993 38.8651 526.703 38.8651C526.374 38.8651 526.117 38.9702 525.932 39.1804C525.748 39.3878 525.655 39.6619 525.655 40.0028V44H523.895V39.9176C523.895 39.5966 523.803 39.3409 523.618 39.1506C523.436 38.9602 523.196 38.8651 522.898 38.8651C522.696 38.8651 522.515 38.9162 522.353 39.0185C522.194 39.1179 522.067 39.2585 521.973 39.4403C521.88 39.6193 521.833 39.8295 521.833 40.071V44H520.017ZM533.92 44.1278C533.258 44.1278 532.686 43.9872 532.203 43.706C531.723 43.4219 531.352 43.027 531.091 42.5213C530.829 42.0128 530.699 41.4233 530.699 40.7528C530.699 40.0767 530.829 39.4858 531.091 38.9801C531.352 38.4716 531.723 38.0767 532.203 37.7955C532.686 37.5114 533.258 37.3693 533.92 37.3693C534.582 37.3693 535.153 37.5114 535.633 37.7955C536.116 38.0767 536.488 38.4716 536.75 38.9801C537.011 39.4858 537.142 40.0767 537.142 40.7528C537.142 41.4233 537.011 42.0128 536.75 42.5213C536.488 43.027 536.116 43.4219 535.633 43.706C535.153 43.9872 534.582 44.1278 533.92 44.1278ZM533.929 42.7216C534.23 42.7216 534.481 42.6364 534.683 42.4659C534.885 42.2926 535.037 42.0568 535.139 41.7585C535.244 41.4602 535.297 41.1207 535.297 40.7401C535.297 40.3594 535.244 40.0199 535.139 39.7216C535.037 39.4233 534.885 39.1875 534.683 39.0142C534.481 38.8409 534.23 38.7543 533.929 38.7543C533.625 38.7543 533.369 38.8409 533.162 39.0142C532.957 39.1875 532.802 39.4233 532.697 39.7216C532.595 40.0199 532.544 40.3594 532.544 40.7401C532.544 41.1207 532.595 41.4602 532.697 41.7585C532.802 42.0568 532.957 42.2926 533.162 42.4659C533.369 42.6364 533.625 42.7216 533.929 42.7216ZM540.137 40.2159V44H538.322V37.4545H540.052V38.6094H540.129C540.274 38.2287 540.517 37.9276 540.858 37.706C541.199 37.4815 541.612 37.3693 542.098 37.3693C542.552 37.3693 542.949 37.4688 543.287 37.6676C543.625 37.8665 543.887 38.1506 544.075 38.5199C544.262 38.8864 544.356 39.3239 544.356 39.8324V44H542.541V40.1562C542.544 39.7557 542.441 39.4432 542.234 39.2188C542.027 38.9915 541.741 38.8778 541.377 38.8778C541.133 38.8778 540.917 38.9304 540.73 39.0355C540.545 39.1406 540.4 39.294 540.295 39.4957C540.193 39.6946 540.14 39.9347 540.137 40.2159ZM545.787 44V37.4545H547.602V44H545.787ZM546.699 36.6108C546.429 36.6108 546.197 36.5213 546.004 36.3423C545.814 36.1605 545.719 35.9432 545.719 35.6903C545.719 35.4403 545.814 35.2259 546.004 35.0469C546.197 34.8651 546.429 34.7741 546.699 34.7741C546.969 34.7741 547.199 34.8651 547.389 35.0469C547.582 35.2259 547.679 35.4403 547.679 35.6903C547.679 35.9432 547.582 36.1605 547.389 36.3423C547.199 36.5213 546.969 36.6108 546.699 36.6108ZM552.538 37.4545V38.8182H548.596V37.4545H552.538ZM549.491 35.8864H551.306V41.9886C551.306 42.1562 551.332 42.2869 551.383 42.3807C551.434 42.4716 551.505 42.5355 551.596 42.5724C551.69 42.6094 551.798 42.6278 551.92 42.6278C552.005 42.6278 552.091 42.6207 552.176 42.6065C552.261 42.5895 552.326 42.5767 552.372 42.5682L552.657 43.919C552.566 43.9474 552.439 43.9801 552.274 44.017C552.109 44.0568 551.909 44.081 551.673 44.0895C551.235 44.1065 550.852 44.0483 550.522 43.9148C550.196 43.7812 549.941 43.5739 549.76 43.2926C549.578 43.0114 549.488 42.6562 549.491 42.2273V35.8864ZM556.608 44.1278C555.946 44.1278 555.373 43.9872 554.89 43.706C554.41 43.4219 554.039 43.027 553.778 42.5213C553.517 42.0128 553.386 41.4233 553.386 40.7528C553.386 40.0767 553.517 39.4858 553.778 38.9801C554.039 38.4716 554.41 38.0767 554.89 37.7955C555.373 37.5114 555.946 37.3693 556.608 37.3693C557.27 37.3693 557.841 37.5114 558.321 37.7955C558.804 38.0767 559.176 38.4716 559.437 38.9801C559.699 39.4858 559.829 40.0767 559.829 40.7528C559.829 41.4233 559.699 42.0128 559.437 42.5213C559.176 43.027 558.804 43.4219 558.321 43.706C557.841 43.9872 557.27 44.1278 556.608 44.1278ZM556.616 42.7216C556.917 42.7216 557.169 42.6364 557.37 42.4659C557.572 42.2926 557.724 42.0568 557.826 41.7585C557.931 41.4602 557.984 41.1207 557.984 40.7401C557.984 40.3594 557.931 40.0199 557.826 39.7216C557.724 39.4233 557.572 39.1875 557.37 39.0142C557.169 38.8409 556.917 38.7543 556.616 38.7543C556.312 38.7543 556.056 38.8409 555.849 39.0142C555.645 39.1875 555.49 39.4233 555.385 39.7216C555.282 40.0199 555.231 40.3594 555.231 40.7401C555.231 41.1207 555.282 41.4602 555.385 41.7585C555.49 42.0568 555.645 42.2926 555.849 42.4659C556.056 42.6364 556.312 42.7216 556.616 42.7216ZM561.01 44V37.4545H562.77V38.5966H562.838C562.957 38.1903 563.157 37.8835 563.439 37.6761C563.72 37.4659 564.044 37.3608 564.41 37.3608C564.501 37.3608 564.599 37.3665 564.704 37.3778C564.809 37.3892 564.902 37.4048 564.981 37.4247V39.0355C564.896 39.0099 564.778 38.9872 564.627 38.9673C564.477 38.9474 564.339 38.9375 564.214 38.9375C563.947 38.9375 563.708 38.9957 563.498 39.1122C563.291 39.2259 563.126 39.3849 563.004 39.5895C562.885 39.794 562.825 40.0298 562.825 40.2969V44H561.01ZM571.366 39.321L569.704 39.4233C569.675 39.2812 569.614 39.1534 569.521 39.0398C569.427 38.9233 569.303 38.831 569.15 38.7628C568.999 38.6918 568.819 38.6562 568.609 38.6562C568.327 38.6562 568.09 38.7159 567.897 38.8352C567.704 38.9517 567.607 39.108 567.607 39.304C567.607 39.4602 567.67 39.5923 567.795 39.7003C567.92 39.8082 568.134 39.8949 568.438 39.9602L569.623 40.1989C570.259 40.3295 570.734 40.5398 571.046 40.8295C571.359 41.1193 571.515 41.5 571.515 41.9716C571.515 42.4006 571.388 42.777 571.136 43.1009C570.886 43.4247 570.542 43.6776 570.104 43.8594C569.67 44.0384 569.168 44.1278 568.6 44.1278C567.734 44.1278 567.043 43.9474 566.529 43.5866C566.018 43.223 565.718 42.7287 565.63 42.1037L567.415 42.0099C567.469 42.2741 567.6 42.4759 567.808 42.6151C568.015 42.7514 568.281 42.8196 568.604 42.8196C568.923 42.8196 569.178 42.7585 569.371 42.6364C569.567 42.5114 569.667 42.3509 569.67 42.1548C569.667 41.9901 569.597 41.8551 569.461 41.75C569.325 41.642 569.114 41.5597 568.83 41.5028L567.697 41.277C567.058 41.1491 566.582 40.9276 566.269 40.6122C565.96 40.2969 565.805 39.8949 565.805 39.4062C565.805 38.9858 565.918 38.6236 566.146 38.3196C566.376 38.0156 566.698 37.7812 567.113 37.6165C567.531 37.4517 568.019 37.3693 568.579 37.3693C569.406 37.3693 570.056 37.544 570.531 37.8935C571.008 38.2429 571.286 38.7187 571.366 39.321Z" fill="#616061"/>
<path d="M446 27H576V25H446V27ZM579 30V50H581V30H579ZM576 53H446V55H576V53ZM443 50V30H441V50H443ZM446 53C444.343 53 443 51.6569 443 50H441C441 52.7614 443.239 55 446 55V53ZM579 50C579 51.6569 577.657 53 576 53V55C578.761 55 581 52.7614 581 50H579ZM576 27C577.657 27 579 28.3431 579 30H581C581 27.2386 578.761 25 576 25V27ZM446 25C443.239 25 441 27.2386 441 30H443C443 28.3431 444.343 27 446 27V25Z" fill="#BBBBBB"/>
</svg>
