<svg width="26" height="25" viewBox="0 0 26 25" fill="none" xmlns="http://www.w3.org/2000/svg">
<path d="M0.803711 11.2491V21.8961C0.803711 22.463 1.26333 22.9227 1.8303 22.9227H24.4737C25.0406 22.9227 25.5003 22.463 25.5003 21.8961V11.2491C25.5003 10.9497 25.3696 10.6653 25.1425 10.4702L13.8208 0.747763C13.4361 0.417412 12.8679 0.417412 12.4832 0.747762L1.16148 10.4702C0.934377 10.6653 0.803711 10.9497 0.803711 11.2491Z" fill="#111729" stroke="white"/>
<path d="M4.98975 3.9921C4.98975 2.82879 5.9328 1.88574 7.09611 1.88574H19.2077C20.371 1.88574 21.314 2.82879 21.314 3.9921V19.2632C21.314 20.4265 20.371 21.3696 19.2077 21.3696H7.09611C5.9328 21.3696 4.98975 20.4265 4.98975 19.2632V3.9921Z" fill="white" stroke="#111729"/>
<path d="M0.803711 12.8174V22.9496C0.803711 23.5166 1.26333 23.9762 1.8303 23.9762H24.4737C25.0406 23.9762 25.5003 23.5166 25.5003 22.9496V12.8174C25.5003 12.0211 24.6329 11.528 23.9486 11.9353L13.1656 18.353C13.1572 18.358 13.1468 18.358 13.1384 18.353L2.35534 11.9353C1.67104 11.528 0.803711 12.0211 0.803711 12.8174Z" fill="#111729" stroke="white"/>
<path d="M1.33449 23.6687L8.29099 16.7353C8.34379 16.6827 8.41502 16.6533 8.48909 16.6533H17.5109C17.585 16.6533 17.6562 16.6827 17.709 16.7353L24.6655 23.6687C24.8454 23.848 24.7171 24.1533 24.4674 24.1533H1.5326C1.2829 24.1533 1.15455 23.848 1.33449 23.6687Z" fill="#111729" stroke="white" stroke-width="0.5"/>
</svg>
