<svg width="24" height="24" viewBox="0 0 24 24" fill="none" xmlns="http://www.w3.org/2000/svg">
<path d="M11.8628 0.201172C5.23679 0.201172 -0.137207 5.52074 -0.137207 12.0818C-0.137207 17.3311 3.30079 21.7844 8.06979 23.3556C8.66879 23.4655 8.86279 23.0972 8.86279 22.7843V20.5725C5.52479 21.2913 4.82979 19.1706 4.82979 19.1706C4.28379 17.7974 3.49679 17.4321 3.49679 17.4321C2.40779 16.6945 3.57979 16.7103 3.57979 16.7103C4.78479 16.7935 5.41879 17.935 5.41879 17.935C6.48879 19.7508 8.22579 19.2261 8.91079 18.9221C9.01779 18.1548 9.32879 17.6301 9.67279 17.3341C7.00779 17.0321 4.20579 16.0133 4.20579 11.4621C4.20579 10.1641 4.67479 9.10473 5.44179 8.27309C5.31779 7.9731 4.90679 6.76424 5.55879 5.12867C5.55879 5.12867 6.56679 4.80988 8.85979 6.34644C9.81679 6.08309 10.8428 5.95141 11.8628 5.94646C12.8828 5.95141 13.9098 6.08309 14.8688 6.34644C17.1598 4.80988 18.1658 5.12867 18.1658 5.12867C18.8188 6.76523 18.4078 7.97409 18.2838 8.27309C19.0538 9.10473 19.5188 10.1651 19.5188 11.4621C19.5188 16.0252 16.7118 17.0301 14.0398 17.3242C14.4698 17.6925 14.8628 18.4152 14.8628 19.5241V22.7843C14.8628 23.1001 15.0548 23.4714 15.6638 23.3546C20.4288 21.7814 23.8628 17.3291 23.8628 12.0818C23.8628 5.52074 18.4898 0.201172 11.8628 0.201172Z" fill="#111729"/>
</svg>
