<svg width="24" height="24" viewBox="0 0 24 24" fill="none" xmlns="http://www.w3.org/2000/svg">
<path d="M12.167 10.4829V13.7106H16.6577C16.4644 14.7536 15.8764 15.6374 14.9927 16.229V18.3227H17.6894C19.2672 16.87 20.1775 14.7309 20.1775 12.1897C20.1775 11.598 20.1244 11.0291 20.0258 10.4829H12.167Z" fill="#3E82F1"/>
<path d="M4.71045 13.5854V15.7474C6.08346 18.4745 8.90534 20.3443 12.1672 20.3443C14.4202 20.3443 16.309 19.5972 17.6896 18.3227L14.9929 16.2291C14.2457 16.7297 13.2899 17.0256 12.1672 17.0256C9.99387 17.0256 8.15431 15.5577 7.49815 13.5854H4.71045Z" fill="#32A753"/>
<path d="M4.71029 8.25293C4.14516 9.37938 3.82275 10.6537 3.82275 12.0002C3.82275 13.3467 4.14516 14.6211 4.71029 15.7476L7.49799 13.5856C7.33111 13.085 7.23633 12.5502 7.23633 12.0002C7.23633 11.4503 7.33111 10.9155 7.49799 10.4148V8.25293H4.71029Z" fill="#F9BB00"/>
<path d="M4.71045 8.25279L7.49815 10.4147C8.15431 8.4424 9.99387 6.97456 12.1672 6.97456C13.3923 6.97456 14.4922 7.39559 15.357 8.22242L17.7503 5.82912C16.3052 4.48268 14.4164 3.65576 12.1672 3.65576C8.90534 3.65576 6.08346 5.5257 4.71045 8.25279Z" fill="#E74133"/>
</svg>