<svg width="24" height="24" viewBox="0 0 24 24" fill="none" xmlns="http://www.w3.org/2000/svg">
<path fill-rule="evenodd" clip-rule="evenodd" d="M8.77833 6.44336H2.39409C1.07184 6.44336 0 7.5152 0 8.83745C0 10.1597 1.07184 11.2315 2.39409 11.2315H8.77833C10.1006 11.2315 11.1724 10.1597 11.1724 8.83745C11.1724 7.5152 10.1006 6.44336 8.77833 6.44336Z" fill="#36C5F0"/>
<path fill-rule="evenodd" clip-rule="evenodd" d="M17.5567 8.83741V2.45317C17.5567 1.13092 16.4849 0.059082 15.1626 0.059082C13.8404 0.059082 12.7686 1.13092 12.7686 2.45317V8.83741C12.7686 10.1597 13.8404 11.2315 15.1626 11.2315C16.4849 11.2315 17.5567 10.1597 17.5567 8.83741Z" fill="#2EB67D"/>
<path fill-rule="evenodd" clip-rule="evenodd" d="M15.1626 17.6158H21.5469C22.8691 17.6158 23.941 16.544 23.941 15.2217C23.941 13.8995 22.8691 12.8276 21.5469 12.8276H15.1626C13.8404 12.8276 12.7686 13.8995 12.7686 15.2217C12.7686 16.544 13.8404 17.6158 15.1626 17.6158Z" fill="#ECB22E"/>
<path fill-rule="evenodd" clip-rule="evenodd" d="M6.38428 15.2217V21.606C6.38428 22.9282 7.45612 24.0001 8.77837 24.0001C10.1006 24.0001 11.1725 22.9282 11.1725 21.606V15.2217C11.1725 13.8994 10.1006 12.8276 8.77837 12.8276C7.45612 12.8276 6.38428 13.8995 6.38428 15.2217Z" fill="#E01E5A"/>
<path fill-rule="evenodd" clip-rule="evenodd" d="M8.77837 0.059082C7.45612 0.059082 6.38428 1.13092 6.38428 2.45317C6.38428 3.77542 7.45612 4.84726 8.77837 4.84726H11.1725V2.45317C11.1725 1.13092 10.1006 0.059082 8.77837 0.059082Z" fill="#36C5F0"/>
<path fill-rule="evenodd" clip-rule="evenodd" d="M23.941 8.83745C23.941 7.5152 22.8692 6.44336 21.5469 6.44336C20.2247 6.44336 19.1528 7.5152 19.1528 8.83745V11.2315H21.5469C22.8692 11.2315 23.941 10.1597 23.941 8.83745Z" fill="#2EB67D"/>
<path fill-rule="evenodd" clip-rule="evenodd" d="M15.1626 24.0001C16.4849 24.0001 17.5567 22.9283 17.5567 21.606C17.5567 20.2838 16.4849 19.2119 15.1626 19.2119H12.7686V21.606C12.7686 22.9283 13.8404 24.0001 15.1626 24.0001Z" fill="#ECB22E"/>
<path fill-rule="evenodd" clip-rule="evenodd" d="M0 15.2217C0 16.544 1.07184 17.6158 2.39409 17.6158C3.71634 17.6158 4.78818 16.544 4.78818 15.2217V12.8276H2.39409C1.07184 12.8276 0 13.8995 0 15.2217Z" fill="#E01E5A"/>
</svg>
