<svg width="17" height="14" viewBox="0 0 17 14" fill="none" xmlns="http://www.w3.org/2000/svg">
<path d="M4.05556 5C3.56389 5 3.16667 4.55312 3.16667 4C3.16667 3.44688 3.56389 3 4.05556 3C4.54722 3 4.94444 3.44688 4.94444 4C4.94444 4.55312 4.54722 5 4.05556 5ZM6.05556 4C6.05556 3.58437 6.35278 3.25 6.72222 3.25H12.9444C13.3139 3.25 13.6111 3.58437 13.6111 4C13.6111 4.41563 13.3139 4.75 12.9444 4.75H6.72222C6.35278 4.75 6.05556 4.41563 6.05556 4ZM6.05556 7C6.05556 6.58437 6.35278 6.25 6.72222 6.25H12.9444C13.3139 6.25 13.6111 6.58437 13.6111 7C13.6111 7.41563 13.3139 7.75 12.9444 7.75H6.72222C6.35278 7.75 6.05556 7.41563 6.05556 7ZM6.05556 10C6.05556 9.58438 6.35278 9.25 6.72222 9.25H12.9444C13.3139 9.25 13.6111 9.58438 13.6111 10C13.6111 10.4156 13.3139 10.75 12.9444 10.75H6.72222C6.35278 10.75 6.05556 10.4156 6.05556 10ZM4.05556 6C4.54722 6 4.94444 6.44688 4.94444 7C4.94444 7.55312 4.54722 8 4.05556 8C3.56389 8 3.16667 7.55312 3.16667 7C3.16667 6.44688 3.56389 6 4.05556 6ZM4.05556 11C3.56389 11 3.16667 10.5531 3.16667 10C3.16667 9.44687 3.56389 9 4.05556 9C4.54722 9 4.94444 9.44687 4.94444 10C4.94444 10.5531 4.54722 11 4.05556 11ZM0.5 2C0.5 0.895313 1.29583 0 2.27778 0H14.7222C15.7028 0 16.5 0.895313 16.5 2V12C16.5 13.1031 15.7028 14 14.7222 14H2.27778C1.29583 14 0.5 13.1031 0.5 12V2ZM1.83333 2V12C1.83333 12.275 2.03222 12.5 2.27778 12.5H14.7222C14.9667 12.5 15.1667 12.275 15.1667 12V2C15.1667 1.72375 14.9667 1.5 14.7222 1.5H2.27778C2.03222 1.5 1.83333 1.72375 1.83333 2Z" fill="currentColor"/>
</svg>
