<svg width="16" height="14" viewBox="0 0 16 14" fill="none" xmlns="http://www.w3.org/2000/svg">
<path d="M4 0H5C5.55312 0 6 0.446875 6 1V2H3V1C3 0.446875 3.44688 0 4 0ZM6 3V13C6 13.5531 5.55312 14 5 14H1C0.446875 14 0 13.5531 0 13V11.1531C0 10.0719 0.29375 9.00938 0.85 8.08125C1.27813 7.36875 1.55313 6.575 1.65625 5.75L1.89062 3.875C1.95312 3.375 2.37813 3 2.88438 3H6ZM13.1187 3C13.6219 3 14.05 3.375 14.1125 3.875L14.3438 5.75C14.4469 6.575 14.7219 7.36875 15.15 8.08125C15.7062 9.00938 16 10.0719 16 11.1531V13C16 13.5531 15.5531 14 15 14H11C10.4469 14 10 13.5531 10 13V3H13.1187ZM10 1C10 0.446875 10.4469 0 11 0H12C12.5531 0 13 0.446875 13 1V2H10V1ZM9 3V8H7V3H9Z" fill="currentColor"/>
</svg>
