<svg width="24" height="24" viewBox="0 0 16 16" fill="none" xmlns="http://www.w3.org/2000/svg">
<path fill-rule="evenodd" clip-rule="evenodd" d="M8 16C12.4183 16 16 12.4183 16 8C16 3.58172 12.4183 0 8 0C3.58172 0 0 3.58172 0 8C0 12.4183 3.58172 16 8 16ZM6.74629 11.5563V7.72059C6.74629 7.07679 7.2731 6.55006 7.9169 6.55006C8.56079 6.55006 9.08751 7.07679 9.08751 7.72059V11.5563C9.08751 12.2002 8.56079 12.7269 7.9169 12.7269C7.2731 12.7269 6.74629 12.2002 6.74629 11.5563ZM7.93932 5.81839C7.23651 5.81839 6.66666 5.24846 6.66666 4.54573C6.66666 3.843 7.23651 3.27307 7.93932 3.27307C8.64205 3.27307 9.21198 3.843 9.21198 4.54573C9.21198 5.24846 8.64205 5.81839 7.93932 5.81839Z" fill="white"/>
</svg>
