<svg width="12" height="18" viewBox="0 0 12 18" fill="none" xmlns="http://www.w3.org/2000/svg">
<path fill-rule="evenodd" clip-rule="evenodd" d="M2.81789 5.81802C2.62263 6.01328 2.62263 6.32986 2.81789 6.52512L5.29288 9.00011L2.81812 11.4749C2.62285 11.6701 2.62285 11.9867 2.81812 12.182C3.01338 12.3772 3.32996 12.3772 3.52522 12.182L5.99999 9.70721L8.47475 12.182C8.67001 12.3772 8.98659 12.3772 9.18186 12.182C9.37712 11.9867 9.37712 11.6701 9.18186 11.4749L6.70709 9.00011L9.18208 6.52512C9.37734 6.32986 9.37734 6.01328 9.18208 5.81802C8.98681 5.62275 8.67023 5.62275 8.47497 5.81802L5.99999 8.293L3.525 5.81802C3.32974 5.62275 3.01316 5.62275 2.81789 5.81802Z" fill="#616061"/>
</svg>
