<svg width="14" height="14" viewBox="0 0 14 14" fill="none" xmlns="http://www.w3.org/2000/svg">
<path d="M11.7599 7.6241C11.7839 7.4241 11.7999 7.2161 11.7999 7.0001C11.7999 6.7841 11.7839 6.5761 11.7519 6.3761L13.1039 5.3201C13.2239 5.2241 13.2559 5.0481 13.1839 4.9121L11.9039 2.6961C11.8239 2.5521 11.6559 2.5041 11.5119 2.5521L9.91991 3.1921C9.58391 2.9361 9.23191 2.7281 8.83991 2.5681L8.59991 0.872098C8.57591 0.712098 8.43991 0.600098 8.27991 0.600098H5.71991C5.55991 0.600098 5.43191 0.712098 5.40791 0.872098L5.16791 2.5681C4.77591 2.7281 4.41591 2.9441 4.08791 3.1921L2.49591 2.5521C2.35191 2.4961 2.18391 2.5521 2.10391 2.6961L0.823908 4.9121C0.743908 5.0561 0.775908 5.2241 0.903908 5.3201L2.25591 6.3761C2.22391 6.5761 2.19991 6.7921 2.19991 7.0001C2.19991 7.2081 2.21591 7.4241 2.24791 7.6241L0.895908 8.6801C0.775908 8.7761 0.743908 8.9521 0.815908 9.0881L2.09591 11.3041C2.17591 11.4481 2.34391 11.4961 2.48791 11.4481L4.07991 10.8081C4.41591 11.0641 4.76791 11.2721 5.15991 11.4321L5.39991 13.1281C5.43191 13.2881 5.55991 13.4001 5.71991 13.4001H8.27991C8.43991 13.4001 8.57591 13.2881 8.59191 13.1281L8.83191 11.4321C9.22391 11.2721 9.58391 11.0561 9.91191 10.8081L11.5039 11.4481C11.6479 11.5041 11.8159 11.4481 11.8959 11.3041L13.1759 9.0881C13.2559 8.9441 13.2239 8.7761 13.0959 8.6801L11.7599 7.6241ZM6.99991 9.4001C5.67991 9.4001 4.59991 8.3201 4.59991 7.0001C4.59991 5.6801 5.67991 4.6001 6.99991 4.6001C8.31991 4.6001 9.39991 5.6801 9.39991 7.0001C9.39991 8.3201 8.31991 9.4001 6.99991 9.4001Z" fill="#3BA88D"/>
</svg>
