<svg width="8" height="8" viewBox="0 0 8 8" fill="none" xmlns="http://www.w3.org/2000/svg">
<path fill-rule="evenodd" clip-rule="evenodd" d="M0.817833 0.817833C0.622571 1.0131 0.622571 1.32968 0.817833 1.52494L3.29282 3.99992L0.818055 6.47469C0.622793 6.66995 0.622793 6.98653 0.818055 7.18179C1.01332 7.37706 1.3299 7.37706 1.52516 7.18179L3.99992 4.70703L6.47469 7.18179C6.66995 7.37706 6.98653 7.37706 7.18179 7.18179C7.37706 6.98653 7.37706 6.66995 7.18179 6.47469L4.70703 3.99992L7.18202 1.52494C7.37728 1.32968 7.37728 1.0131 7.18202 0.817833C6.98675 0.622571 6.67017 0.622571 6.47491 0.817833L3.99992 3.29282L1.52494 0.817833C1.32968 0.622571 1.0131 0.622571 0.817833 0.817833Z" fill="#616061"/>
</svg>
