<svg width="16" height="18" viewBox="0 0 16 18" xmlns="http://www.w3.org/2000/svg">
<path fill-rule="evenodd" clip-rule="evenodd" d="M10.3827 15.7534C9.53138 16.081 8.60654 16.2606 7.63977 16.2606C3.42044 16.2606 0 12.8402 0 8.62084C0 4.40152 3.42044 0.981079 7.63977 0.981079C11.8591 0.981079 15.2795 4.40152 15.2795 8.62084C15.2795 10.2651 14.7601 11.788 13.8764 13.0345L14.9084 16.0939C15.0936 16.6427 14.5702 17.166 14.0214 16.9809L10.3827 15.7534ZM5.84383 5.41883C4.44922 5.79089 3.90459 7.41289 4.80961 8.4989L7.33248 11.5263C7.4924 11.7182 7.78713 11.7182 7.94705 11.5263L10.4699 8.4989C11.3749 7.41289 10.8303 5.79089 9.4357 5.41883C8.77049 5.24136 8.11864 5.40342 7.63977 5.77115C7.16089 5.40342 6.50904 5.24136 5.84383 5.41883Z" />
</svg>
