<svg width="12" height="16" viewBox="0 0 12 16" xmlns="http://www.w3.org/2000/svg">
<path fill-rule="evenodd" clip-rule="evenodd" d="M1 13.75C1 14.4392 1.56075 15 2.25 15H11C11.2762 15 11.5 15.2239 11.5 15.5C11.5 15.7761 11.2762 16 11 16H2.25C1.00934 16 0 14.9907 0 13.75V2.0625C0 0.925219 0.925219 0 2.0625 0H2.75H11C11.2762 0 11.5 0.223875 11.5 0.5V12C11.5 12.2761 11.2762 12.5 11 12.5H2.75H2.25C1.56075 12.5 1 13.0608 1 13.75ZM3.25 11.5H10.5V1H3.25V11.5ZM2.25 1V11.5C1.78783 11.5 1.35775 11.6401 1 11.88V2.0625C1 1.47662 1.47662 1 2.0625 1H2.25ZM11 14.25H2.25C1.97384 14.25 1.75 14.0261 1.75 13.75C1.75 13.4739 1.97384 13.25 2.25 13.25H11C11.2762 13.25 11.5 13.4739 11.5 13.75C11.5 14.0261 11.2762 14.25 11 14.25Z"/>
</svg>
