<svg width="10" height="8" viewBox="0 0 10 8" fill="none" xmlns="http://www.w3.org/2000/svg">
<path fill-rule="evenodd" clip-rule="evenodd" d="M10 1.5C10 1.84518 9.72018 2.125 9.375 2.125H0.625C0.279822 2.125 0 1.84518 0 1.5C0 1.15482 0.279822 0.875 0.625 0.875H9.375C9.72018 0.875 10 1.15482 10 1.5ZM2.29187 4.625C1.94669 4.625 1.66687 4.34518 1.66687 4C1.66687 3.65482 1.94669 3.375 2.29187 3.375H7.70854C8.05372 3.375 8.33354 3.65482 8.33354 4C8.33354 4.34518 8.05371 4.625 7.70854 4.625H2.29187ZM3.40271 7.125C3.05753 7.125 2.77771 6.84518 2.77771 6.5C2.77771 6.15482 3.05753 5.875 3.40271 5.875H6.59715C6.94233 5.875 7.22215 6.15482 7.22215 6.5C7.22215 6.84518 6.94233 7.125 6.59715 7.125H3.40271Z" fill="#9BAEBC"/>
</svg>
