<svg width="11" height="12" viewBox="0 0 11 12" fill="#343434" xmlns="http://www.w3.org/2000/svg">
<path fill-rule="evenodd" clip-rule="evenodd" d="M3 1.5V0.5H8V1.5H9V0.5H10C10.5523 0.5 11 0.947715 11 1.5V3.5V10.5C11 11.0523 10.5523 11.5 10 11.5H1C0.447715 11.5 0 11.0523 0 10.5V3.5V1.5C0 0.947715 0.447715 0.5 1 0.5H2V1.5H3ZM10 10.5V3.5H1L1 10.5H10ZM4 4.5H5V5.5H4V4.5ZM2 6.5H3V7.5H2V6.5ZM4 6.5H5V7.5H4V6.5ZM7 6.5H6V7.5H7V6.5ZM8 6.5H9V7.5H8V6.5ZM3 8.5H2V9.5H3V8.5ZM4 8.5H5V9.5H4V8.5ZM7 8.5H6V9.5H7V8.5ZM7 4.5H6V5.5H7V4.5ZM8 4.5H9V5.5H8V4.5Z"/>
</svg>
