<svg width="16" height="16" viewBox="0 0 16 16" fill="none" xmlns="http://www.w3.org/2000/svg">
<path d="M8.57292 5.70833C8.57292 6.02458 8.31625 6.28125 8 6.28125C7.68375 6.28125 7.42708 6.02458 7.42708 5.70833C7.42708 5.39208 7.68375 5.13542 8 5.13542C8.31625 5.13542 8.57292 5.39208 8.57292 5.70833ZM13.5 8C13.5 11.0374 11.0374 13.5 8 13.5C4.96263 13.5 2.5 11.0374 2.5 8C2.5 4.96263 4.96263 2.5 8 2.5C11.0374 2.5 13.5 4.96263 13.5 8ZM12.5833 8C12.5833 5.47275 10.5273 3.41667 8 3.41667C5.47275 3.41667 3.41667 5.47275 3.41667 8C3.41667 10.5273 5.47275 12.5833 8 12.5833C10.5273 12.5833 12.5833 10.5273 12.5833 8ZM6.625 7.08333V8H7.54167V10.75H8.45833V7.08333H6.625Z" fill="#4D6374"/>
</svg>
