<svg width="28" height="26" viewBox="0 0 28 26" fill="none" xmlns="http://www.w3.org/2000/svg">
<path d="M1.24512 11.7321V23.2857C1.24512 23.6013 1.50095 23.8571 1.81655 23.8571H26.388C26.7036 23.8571 26.9594 23.6013 26.9594 23.2857V11.7321C26.9594 11.5655 26.8867 11.4072 26.7603 11.2986L14.4745 0.748264C14.2604 0.564381 13.9441 0.564381 13.73 0.748263L1.44426 11.2986C1.31785 11.4072 1.24512 11.5655 1.24512 11.7321Z" fill="#E5E5E5"/>
<path fill-rule="evenodd" clip-rule="evenodd" d="M14.289 0.965091C14.1819 0.873151 14.0237 0.87315 13.9167 0.965091L1.63096 11.5154C1.56776 11.5697 1.53139 11.6489 1.53139 11.7322V23.2858C1.53139 23.4436 1.65931 23.5715 1.8171 23.5715H26.3885C26.5463 23.5715 26.6742 23.4436 26.6742 23.2858V11.7322C26.6742 11.6489 26.6379 11.5697 26.5747 11.5154L14.289 0.965091ZM13.5444 0.531574C13.8656 0.255751 14.34 0.255751 14.6612 0.531575L26.947 11.0819C27.1366 11.2448 27.2457 11.4822 27.2457 11.7322V23.2858C27.2457 23.7592 26.8619 24.1429 26.3885 24.1429H1.8171C1.34372 24.1429 0.959961 23.7592 0.959961 23.2858V11.7322C0.959961 11.4822 1.06906 11.2447 1.25868 11.0819L13.5444 0.531574Z" fill="#070707"/>
<path d="M5.24512 3.857C5.24512 2.59464 6.26847 1.57129 7.53083 1.57129H20.6737C21.9361 1.57129 22.9594 2.59464 22.9594 3.857V20.4284C22.9594 21.6908 21.9361 22.7141 20.6737 22.7141H7.53083C6.26847 22.7141 5.24512 21.6908 5.24512 20.4284V3.857Z" fill="white"/>
<path fill-rule="evenodd" clip-rule="evenodd" d="M4.95996 3.85707C4.95996 2.43691 6.11123 1.28564 7.53139 1.28564H20.6742C22.0944 1.28564 23.2457 2.43691 23.2457 3.85707V20.4285C23.2457 21.8487 22.0944 22.9999 20.6742 22.9999H7.53139C6.11123 22.9999 4.95996 21.8487 4.95996 20.4285V3.85707ZM7.53139 1.85707C6.42682 1.85707 5.53139 2.7525 5.53139 3.85707V20.4285C5.53139 21.5331 6.42682 22.4285 7.53139 22.4285H20.6742C21.7788 22.4285 22.6742 21.5331 22.6742 20.4285V3.85707C22.6742 2.7525 21.7788 1.85707 20.6742 1.85707H7.53139Z" fill="#070707"/>
<path d="M1.24512 13.4336V24.4286C1.24512 24.7442 1.50095 25 1.81655 25H26.388C26.7036 25 26.9594 24.7442 26.9594 24.4286V13.4336C26.9594 12.9904 26.4766 12.7159 26.0957 12.9426L14.3945 19.9068C14.2144 20.014 13.9901 20.014 13.81 19.9068L2.1088 12.9426C1.7279 12.7159 1.24512 12.9904 1.24512 13.4336Z" fill="#E5E5E5"/>
<path fill-rule="evenodd" clip-rule="evenodd" d="M26.6742 13.4337C26.6742 13.212 26.4329 13.0748 26.2424 13.1881L14.5412 20.1523C14.2711 20.3131 13.9346 20.3131 13.6644 20.1523L1.96323 13.1881C1.77278 13.0748 1.53139 13.212 1.53139 13.4337V24.4286C1.53139 24.5864 1.65931 24.7143 1.8171 24.7143H26.3885C26.5463 24.7143 26.6742 24.5864 26.6742 24.4286V13.4337ZM25.9502 12.6971C26.5215 12.357 27.2457 12.7688 27.2457 13.4337V24.4286C27.2457 24.902 26.8619 25.2857 26.3885 25.2857H1.8171C1.34372 25.2857 0.959961 24.902 0.959961 24.4286V13.4337C0.959961 12.7688 1.68413 12.357 2.25548 12.6971L13.9567 19.6613C14.0467 19.7149 14.1589 19.7149 14.2489 19.6613L25.9502 12.6971Z" fill="#070707"/>
<path d="M8.56454 17.166L1.08589 24.5946C0.724045 24.954 0.978577 25.5714 1.48859 25.5714H26.1449C26.6549 25.5714 26.9094 24.954 26.5476 24.5946L19.0689 17.166C18.9619 17.0597 18.8171 17 18.6662 17H8.96724C8.81636 17 8.67159 17.0597 8.56454 17.166Z" fill="#E5E5E5"/>
<path fill-rule="evenodd" clip-rule="evenodd" d="M8.96724 17.5714L1.48859 25L26.1449 25L18.6662 17.5714L8.96724 17.5714ZM1.08589 24.5946L8.56454 17.166C8.67159 17.0597 8.81636 17 8.96724 17H18.6662C18.8171 17 18.9619 17.0597 19.0689 17.166L26.5476 24.5946C26.9094 24.954 26.6549 25.5714 26.1449 25.5714H1.48859C0.978577 25.5714 0.724045 24.954 1.08589 24.5946Z" fill="#070707"/>
<path fill-rule="evenodd" clip-rule="evenodd" d="M11.5306 4.42871C10.8994 4.42871 10.3877 4.94038 10.3877 5.57157V10.5275C10.3877 11.1587 10.8994 11.6704 11.5306 11.6704H16.1561C16.7873 11.6704 17.299 11.1587 17.299 10.5275V5.57157C17.299 4.94039 16.7873 4.42871 16.1561 4.42871H11.5306ZM12.6367 6.42079H11.9298V9.95556H12.6367V6.42079ZM15.7296 6.42081H15.0227V9.95558H15.7296V6.42081ZM13.4763 6.42081H14.1833V7.83472H13.4763V6.42081Z" fill="url(#paint0_linear_2514_4949)"/>
<path fill-rule="evenodd" clip-rule="evenodd" d="M11.5306 4.42871C10.8994 4.42871 10.3877 4.94038 10.3877 5.57157V10.5275C10.3877 11.1587 10.8994 11.6704 11.5306 11.6704H16.1561C16.7873 11.6704 17.299 11.1587 17.299 10.5275V5.57157C17.299 4.94039 16.7873 4.42871 16.1561 4.42871H11.5306ZM12.6367 6.42079H11.9298V9.95556H12.6367V6.42079ZM15.7296 6.42081H15.0227V9.95558H15.7296V6.42081ZM13.4763 6.42081H14.1833V7.83472H13.4763V6.42081Z" fill="#6DDBA3"/>
<defs>
<linearGradient id="paint0_linear_2514_4949" x1="11.5027" y1="11.6673" x2="16.4937" y2="2.75453" gradientUnits="userSpaceOnUse">
<stop stop-color="#2C9987"/>
<stop offset="1" stop-color="#83F2AD"/>
</linearGradient>
</defs>
</svg>
