<svg width="16" height="13" viewBox="0 0 16 13" xmlns="http://www.w3.org/2000/svg">
<path d="M14.1333 0H1.86667C1.3716 0 0.896802 0.208423 0.546734 0.579419C0.196666 0.950415 0 1.45359 0 1.97826V11.0217C0 11.5464 0.196666 12.0496 0.546734 12.4206C0.896802 12.7916 1.3716 13 1.86667 13H14.1333C14.6284 13 15.1032 12.7916 15.4533 12.4206C15.8033 12.0496 16 11.5464 16 11.0217V1.97826C16 1.45359 15.8033 0.950415 15.4533 0.579419C15.1032 0.208423 14.6284 0 14.1333 0ZM10.4 6.25978L14.8827 1.69565C14.9146 1.78611 14.9318 1.88169 14.9333 1.97826V11.0217C14.9333 11.0359 14.9333 11.05 14.9333 11.067L10.4 6.25978ZM1.06667 11.0443V11.0217V1.97826C1.06824 1.88169 1.08538 1.78611 1.11733 1.69565L5.46933 6.1213L1.06667 11.0443ZM2.104 1.13043H13.896L8 7.13022L2.104 1.13043ZM1.86667 11.8696H1.808L6.24 6.90413L7.632 8.31717C7.73132 8.41821 7.86366 8.47463 8.00133 8.47463C8.13901 8.47463 8.27135 8.41821 8.37067 8.31717L9.62667 7.03978L14.176 11.8696H14.1333H1.86667Z" />
</svg>
