<svg width="32" height="32" viewBox="0 0 32 32" fill="none" xmlns="http://www.w3.org/2000/svg">
<path d="M23.3337 24.6668C21.867 24.6668 20.667 23.4668 20.667 22.0002C20.667 20.5335 21.867 19.3335 23.3337 19.3335C24.8003 19.3335 26.0003 20.5335 26.0003 22.0002C26.0003 23.4668 24.8003 24.6668 23.3337 24.6668Z" fill="#37474F"/>
<path d="M23.3332 28.6666C21.3332 28.6666 19.3999 27.7332 18.1332 26.1999L20.1999 24.5332C20.9332 25.4666 22.1332 26.0666 23.3332 26.0666C25.5332 26.0666 27.3332 24.2666 27.3332 22.0666C27.3332 19.8666 25.5332 18.0666 23.3332 18.0666C22.6665 18.0666 21.9999 18.2666 21.3999 18.5332L20.2665 19.1999L15.5332 10.6666L17.8665 9.3999L21.3999 15.6666C22.0665 15.4666 22.7332 15.3332 23.3999 15.3332C27.0665 15.3332 30.0665 18.3332 30.0665 21.9999C30.0665 25.6666 26.9999 28.6666 23.3332 28.6666Z" fill="#37474F"/>
<path d="M9.33366 28.6665C5.66699 28.6665 2.66699 25.6665 2.66699 21.9999C2.66699 18.9332 4.73366 16.3332 7.66699 15.5332L8.33366 18.1332C6.60033 18.5999 5.33366 20.1999 5.33366 21.9999C5.33366 24.1999 7.13366 25.9999 9.33366 25.9999C11.5337 25.9999 13.3337 24.1999 13.3337 21.9999V20.6665H23.3337V23.3332H15.867C15.267 26.3999 12.5337 28.6665 9.33366 28.6665Z" fill="#37474F"/>
<path d="M9.33366 24.6668C7.86699 24.6668 6.66699 23.4668 6.66699 22.0002C6.66699 20.5335 7.86699 19.3335 9.33366 19.3335C10.8003 19.3335 12.0003 20.5335 12.0003 22.0002C12.0003 23.4668 10.8003 24.6668 9.33366 24.6668Z" fill="#E91E63"/>
<path d="M16.6667 12.6668C15.2 12.6668 14 11.4668 14 10.0002C14 8.5335 15.2 7.3335 16.6667 7.3335C18.1333 7.3335 19.3333 8.5335 19.3333 10.0002C19.3333 11.4668 18.1333 12.6668 16.6667 12.6668Z" fill="#37474F"/>
<path d="M10.4669 22.6668L8.2002 21.3335L12.1335 14.8668C10.8002 13.6002 10.0002 11.8668 10.0002 10.0002C10.0002 6.3335 13.0002 3.3335 16.6669 3.3335C20.3335 3.3335 23.3335 6.3335 23.3335 10.0002C23.3335 10.6002 23.2669 11.1335 23.1335 11.6668L20.5335 11.0002C20.6002 10.6668 20.6669 10.3335 20.6669 10.0002C20.6669 7.80016 18.8669 6.00016 16.6669 6.00016C14.4669 6.00016 12.6669 7.80016 12.6669 10.0002C12.6669 11.4002 13.4002 12.6668 14.6002 13.4002L15.7335 14.0668L10.4669 22.6668Z" fill="#E91E63"/>
</svg>
