<svg width="22" height="20" viewBox="0 0 22 20" fill="none" xmlns="http://www.w3.org/2000/svg" class="mr-1">
    <path fill-rule="evenodd" clip-rule="evenodd" d="M1.29289 0.292893C1.68342 -0.0976311 2.31658 -0.0976311 2.70711 0.292893L5.7474 3.33319C7.30897 2.483 9.09945 2 11.0004 2C15.9274 2 20.0953 5.23846 21.4967 9.70039C21.558 9.89546 21.558 10.1046 21.4967 10.2997C20.844 12.3778 19.5924 14.1885 17.9452 15.531L20.7071 18.2929C21.0976 18.6834 21.0976 19.3166 20.7071 19.7071C20.3166 20.0976 19.6834 20.0976 19.2929 19.7071L1.29289 1.70711C0.902369 1.31658 0.902369 0.683418 1.29289 0.292893ZM7.23644 4.82223L8.96818 6.55397C9.56362 6.20229 10.2586 6 11 6C13.2091 6 15 7.79086 15 10C15 10.7414 14.7977 11.4364 14.446 12.0318L16.522 14.1078C17.869 13.0598 18.9097 11.6379 19.4886 10C18.2529 6.50345 14.9178 4 11.0004 4C9.65549 4 8.38102 4.29444 7.23644 4.82223ZM12.9324 10.5182C12.9765 10.353 13 10.1793 13 10C13 8.89543 12.1046 8 11 8C10.8207 8 10.647 8.02347 10.4818 8.06758L12.9324 10.5182ZM3.62488 6.17378C4.06528 6.50706 4.15211 7.13424 3.81884 7.57463C3.26624 8.30483 2.82282 9.12134 2.51228 9.99997C3.74799 13.4965 7.08311 16 11.0005 16C11.5783 16 12.1425 15.9457 12.6886 15.8421C13.2312 15.7392 13.7545 16.0957 13.8574 16.6383C13.9603 17.1809 13.6038 17.7042 13.0612 17.8071C12.3929 17.9338 11.7039 18 11.0005 18C6.07353 18 1.9056 14.7615 0.504202 10.2996C0.442935 10.1045 0.442935 9.89538 0.504204 9.70031C0.886115 8.48437 1.4731 7.36002 2.22403 6.36773C2.55731 5.92734 3.18449 5.8405 3.62488 6.17378Z" fill="#111827"/>
</svg>
